<?xml version="1.0" encoding="UTF-8"?>
<svg id="Layer_2" data-name="Layer 2" xmlns="http://www.w3.org/2000/svg" viewBox="0 0 493.58 193.45">
  <defs>
    <style>
      .cls-1 {
        fill: #eeead8;
      }

      .cls-2 {
        fill: #666;
      }

      .cls-3 {
        fill: #1a1a1a;
      }

      .cls-4 {
        fill: #464d52;
      }
    </style>
  </defs>
  <g id="SHARKS">
    <g id="Basking_Shark">
      <path id="body" class="cls-4" d="m285.99,8.81c.3,64.01-9.92,55.79,45.94,66.88,9.45,2.03,18.95,3.85,28.44,5.72,8.58,1.11,22.15-13.52,26.11,1.05.61,2.64,1.89,3.46,4.42,3.76,12.57,1.1,27.67,4.28,37.52-5.7,11.82-12.72,19.1-29.04,31.52-41.36,4.03-5.1,38.8-38.26,32.98-18.07-11.79,23.3-22.86,46.97-34.25,70.47-5.15,15.16-8.64,30.99-13.6,46.26.05,4.33-5.33,6.56-6.71,1.73-3.3-8.4-6.71-26.44-14.05-31.12-37.4-1.37-20.29,13.54-32.2,15.05-5.52-1.2-10.07-4.79-15.37-6.57-12.26-.67-24.97,2.08-37.37,2.68-5.12-.57,4.47,10.59,2.85,15.85-2.79,20.55-31.49-5.84-40.75-9.68-12.22-1.98-25.26,5.38-37.31,8.06-8.13,2.25-16.72,1.08-25.05,1.44-3.29-.71-4.08,1.23-1.55,3.33,2.78,3.86,5.57,7.69,7.67,12.01,4.54,8.67,11.98,52.04-7.84,41.07-20.76-16.85-39.99-35.46-60.79-52.26-19.37-5.4-43,19.4-63.99,20.3-19.32,2.96-38.53-1.97-57.31-5.97-10.79-2.78-1.84-14.84,1.36-20.65,7.68-13.11-7.26-54.11-22.77-57.58C22.11,71.66,2.11,61.04,0,48.32c-.52-7.48,22.35-7.63,27.97-7.36,36.67,7.7,73.84,10.33,111.02,14.81,25.59,2.97,51.34,4.5,77.1,4,8.42-.07,15.34-3.56,20.77-9.91,7.3-14.55,14.1-29.55,26.56-40.67,5.74-6.62,24.29-16.66,22.57-.37Z"/>
      <path id="mouth" class="cls-1" d="m76.08,94.26c-14.79-13.12-31.42-16.78-40-18,0,0-1.08-.36-2.18-.73,9.68,12.23,10.68,33.23,11.68,53.23.27,5.47-.62,17.05,5.14,22.49,17.26-7.58,32.16-22.64,30.86-37.49-.72-8.23,1.49-13.31-5.5-19.5Z"/>
      <g id="inner_mouth" data-name="inner mouth">
        <path class="cls-2" d="m43.86,77.74s0,0,0,0c1.08,10.38,3.09,24.86,7.14,42.02,1.47,6.25,5.48,23.25,7.43,23,2.09-.27.85-20.13,0-30-1.06-12.29-2.74-23.03-4.46-31.87-3.62-1.4-7.04-2.41-10.09-3.14,0,0-.01,0-.02,0Z"/>
        <path class="cls-2" d="m64.58,111.76c1.39,6.25,5.16,23.26,7,23,1.97-.27.8-20.13,0-30-.44-5.43-1-10.54-1.62-15.34-3.52-2.48-7.06-4.51-10.5-6.16,1.14,8.25,2.76,17.85,5.12,28.5Z"/>
        <path class="cls-2" d="m76.58,102.76c.89,4.02,2.77,12.46,4.48,17.93.53-2.29.72-4.61.52-6.93-.72-8.23,1.49-13.31-5.5-19.5-.51-.45-1.02-.86-1.53-1.29.61,3.15,1.28,6.42,2.03,9.79Z"/>
      </g>
      <g id="gills">
        <path class="cls-3" d="m115.21,145.76c-1.97-6.96-3.41-14.08-4.39-21.26-1.01-7.18-1.57-14.42-1.86-21.66-.25-7.24-.24-14.49.06-21.72.27-7.23.85-14.45,1.65-21.63l-.09,21.67c.02,7.21.09,14.42.38,21.61.51,14.39,1.83,28.73,4.25,42.99Z"/>
        <path class="cls-3" d="m125.35,145.71c-1.97-6.96-3.41-14.08-4.39-21.26-1.01-7.18-1.57-14.42-1.86-21.66-.25-7.24-.24-14.49.06-21.72.27-7.23.85-14.45,1.65-21.63l-.09,21.67c.02,7.21.09,14.42.38,21.61.51,14.39,1.83,28.73,4.25,42.99Z"/>
        <path class="cls-3" d="m137.44,144.83c-1.97-6.96-3.41-14.08-4.39-21.26-1.01-7.18-1.57-14.42-1.86-21.66-.25-7.24-.24-14.49.06-21.72.27-7.23.85-14.45,1.65-21.63l-.09,21.67c.02,7.21.09,14.42.38,21.61.51,14.39,1.83,28.73,4.25,42.99Z"/>
        <path class="cls-3" d="m147.58,144.79c-1.97-6.96-3.41-14.08-4.39-21.26-1.01-7.18-1.57-14.42-1.86-21.66-.25-7.24-.24-14.49.06-21.72.27-7.23.85-14.45,1.65-21.63l-.09,21.67c.02,7.21.09,14.42.38,21.61.51,14.39,1.83,28.73,4.25,42.99Z"/>
        <path class="cls-3" d="m104.99,141.52c-1.75-5.73-3.03-11.61-3.9-17.55-.9-5.94-1.42-11.93-1.7-17.92-.25-6-.27-12-.04-17.98.21-5.99.68-11.96,1.38-17.91l.18,17.93c.08,5.97.19,11.93.47,17.88.5,11.9,1.64,23.75,3.61,35.56Z"/>
      </g>
      <circle id="eye" class="cls-3" cx="43.58" cy="62.76" r="5"/>
    </g>
  </g>
</svg>