<?xml version="1.0" encoding="UTF-8"?>
<svg id="Layer_2" data-name="Layer 2" xmlns="http://www.w3.org/2000/svg" viewBox="0 0 492.6 184.01">
  <defs>
    <style>
      .cls-1 {
        fill: #d8f2ff;
      }

      .cls-2 {
        fill: #5786aa;
      }
    </style>
  </defs>
  <g id="WHALES">
    <g id="Blue_Whale">
      <path class="cls-2" d="m240.8,113.25c6.9-3.04,7.1-3.72,26.13-13.09,29.16-14.36,43.77-23.36,56.38-25.85,24.11-4.76,51.91-9.68,75.97-1.18,4.91,2.38,9.17,6.63,14.54,7.96-21.55-1.44-25.12,40.48-8.49,27.52h0c13.16-10.81,32.9,2.27,36.32-16.01,2.05,5.42.32,14.17,1.95,19.01,6.23,14.46,26.71,15.36,36.45,29.47,8.84,16.23,12.62-2.52,12.55-11.83.37-10.92-4.16-21.71-10.23-31.17-6.98-10.88-12.65-11.09-23.64-24.25-9.61-12.05-7.14-9.2-13.61-18.89-10.27-12.44-18.04-17-29.98-21.66-10.15-4.49-19.39-10.92-29.52-15.55-2.8-1.31-7.01-2.5-8.95-5.01-1.33-1.72-.6-4.15-2.05-5.74-3.63-3.97-11.31-2.58-15.97-2.89-6.64-.44-13.22-1.09-19.97-1.2-68.35-7.18-138.94-1.83-203.12,25.62-28.42,13.55-32.51,4.74-58.93,7.09-7.93,1.53-15.43,3.63-23.35,5.2-7.63,1.52-15.68,2.03-23.6,2.26-10.41-.69-18.93,0-27.26,7.85,0,0,0,0,0,0-.05.04-.08.08-.13.12h0c-6.4,4.66,2.33,15.05,6.2,19.91,13.97,17.52,31.53,24.2,31.53,24.2,48.02,20.22,80.66,33.96,129.27,32.37,17.51-.57,42.88-1.64,71.52-14.26Z"/>
      <path class="cls-2" d="m201.64,110.86c-1.25,5.34,3.83,10.84,14,21.83,0,0,15.27,16.52,43,26.2.83.29,2.5.81,4,0,2.56-1.39,2.95-5.74,3-6.55.35-5.29-3.61-8.35-11-17.47-5.3-6.55-10.47-12.92-15-21.83-3.44-6.77-2.85-7.8-5-9.82-8.78-8.29-30.64-2.42-33,7.64Z"/>
      <path class="cls-1" d="m281.64,92.3c-5.52-6.46-17.82-4.82-25-2.18-9.49,3.48-13.61,10.01-19,15.28-19.17,18.78-48.48,16-56,15.28-10.51-1-25.82-10.5-56-29.47-38.77-24.37-45.09-32.78-61-31.66-9.82.69-18.52,4.78-31,0-9.11-3.49-16.45-10.16-26-7.64-3.38.89-5.94,2.65-7.62,4.05.31,5.04,5.65,11.46,8.46,14.98,13.97,17.52,31.53,24.2,31.53,24.2,48.02,20.22,80.66,33.96,129.27,32.37,17.51-.57,42.88-1.64,71.52-14.26,6.9-3.04,7.1-3.72,26.13-13.09,5.48-2.7,10.45-5.21,14.98-7.52-.09-.11-.17-.23-.27-.34Z"/>
      <path class="cls-2" d="m159.64,101.03c-.58,1.52-1.88,6.07,10,26.2,3.13,5.31,19.9,33.19,45,50.22.74.5,10.37,6.87,22,6.55,3.1-.08,5.25-.62,6-2.18,1.54-3.22-3.62-9.12-6-12.01,0,0-11.14-13.48-21-37.12-8.43-20.22-1.46-26.66-9-34.93-12.2-13.38-42.2-9.41-47,3.27Z"/>
      <ellipse class="cls-1" cx="90.64" cy="59.55" rx="6" ry="3.27"/>
    </g>
  </g>
</svg>