<?xml version="1.0" encoding="UTF-8"?>
<svg id="Layer_2" data-name="Layer 2" xmlns="http://www.w3.org/2000/svg" viewBox="0 0 500.76 115.88">
  <defs>
    <style>
      .cls-1 {
        fill: #91bcdb;
      }

      .cls-2 {
        fill: #1a1a1a;
      }

      .cls-3 {
        fill: #2978a6;
      }
    </style>
  </defs>
  <g id="SHARKS">
    <g id="Blue_Shark">
      <path id="body" class="cls-3" d="m189.93,86.34c2.72,2.33,5.63,3.95,8.45,5.7.92.57,1.87,1.26,1.77,2.52-.11,1.35-1.37,1.77-2.33,1.95-2.92.56-5.86.96-8.89.78-5.25-.31-10.25-2.01-15.45-2.54-.47-.05-.95-.06-1.7-.11,1.05,2.36,3.1,3.28,4.66,4.69,1.46,1.32,4.41,2.23,3.39,4.53-.93,2.1-3.77,1.18-5.73.94-8.9-1.09-17.29-3.92-25.29-7.96-5.2-2.62-10.42-5.2-15.48-8.12-2.63-1.52-5.75-1.66-8.74-1.71-9.24-.15-18.47-.09-27.69.87-4.99.52-9.94-.76-14.89-1.19-7.43-.64-14.91-1.28-22.27-2.71-2.03-.39-4.09-.72-6.09-1.26-1.55-.42-3-.93-2.25-3.27.56-1.76-1.15-1.35-2.12-1.49-9.05-1.27-18.23-1.59-27.2-3.51-5.78-1.23-11.62-2.24-17.12-4.53-2.23-.93-4.87-1.8-4.97-4.65-.1-2.75,2.36-3.79,4.5-4.77,5.4-2.46,11.15-3.84,16.82-5.47,9.43-2.72,19.06-4.62,28.63-6.76,7.05-1.58,14.19-2.76,21.26-4.27,11.61-2.47,23.19-5.13,34.81-7.56,7.31-1.53,14.67-2.86,22.03-4.14,8.75-1.52,17.48-3.25,26.29-4.2,9.34-1.01,18.74-1.4,28.17-1.21,5.41.11,10.86-.59,16-2.18,3.47-1.07,6.52-3.31,9.09-6.18,1.33-1.49,3.47-2.3,5.07-3.66,6.63-5.65,13.77-10.44,22.15-13.22,3.23-1.07,3.91-.71,4.02,2.57.22,6.43-.32,12.78-1.81,19.06-.8,3.4-.39,6.58,3.09,8.38,2.16,1.12,3.05,3.61,5.2,4.56,2.5,1.11,5.1,2.11,7.75,2.76,8.32,2.06,16.67,3.98,25.02,5.87,9.9,2.24,19.81,4.44,29.73,6.59,4.22.91,8.43,1.98,12.75,2.26,2.48.16,4.95-.57,7.3-1.33,3.32-1.08,6.53-2.47,9.79-3.73,3.72-1.44,4.82-1.08,6.77,2.25,1.75,2.98,5.12,4.15,7.35,6.64,3.71,4.12,9.1,3.52,13.89,4.38,8.75,1.57,15.47-2.96,22.15-7.7,7.33-5.19,14.66-10.32,22.74-14.42,8.31-4.22,16.58-8.56,25.03-12.43,13.08-6,25.46-13.43,38.96-18.57,6.98-2.66,13.82-5.71,20.85-8.28,1.58-.57,3.08-.91,4.43.36,1.43,1.35.88,2.82.23,4.36-2.51,6-5.68,11.66-8.78,17.35-1.76,3.22-2.61,3.47-6.18,2.7-.98-.21-1.55.29-2.22.79-9.68,7.33-19.39,14.63-29.22,21.76-5.24,3.79-10.32,7.82-15,12.38-5.96,5.81-12.74,10.7-19.36,15.73-3.89,2.95-5.03,6.82-5.62,11.39-.61,4.7-.88,9.43-1.58,14.1-.4,2.67-.16,5.32-.33,7.98-.14,2.32-.06,5.05-2.4,6.18-2.15,1.04-3.84-1.02-5.47-2.21-7.54-5.47-12.66-13.06-17.9-20.55-1.76-2.52-3.63-4.97-5.5-7.42-4.02-5.25-9.45-7.06-15.87-6.41-5.88.59-11.77.96-17.68.93-3.58-.02-6.26,2.04-9.19,3.55-.81.41-.88,1.34-.96,2.19-.4,4.05-2.59,5.42-6.5,3.88-2.78-1.1-5.58-2.27-8.13-3.81-5.68-3.45-11.91-4.61-18.38-4.75-6.18-.14-12.37,0-18.56,0-2.12,0-3.87.78-5.35,2.26-2.25,2.23-4.44,4.52-6.33,7.06-1.22,1.65-2.46,1.81-4.26.72-4-2.41-7.96-4.85-11.63-7.75-2.72-2.15-5.9-1.47-8.89-.99-5.35.84-10.74,1.26-16.12,1.62-8.7.6-17.42.94-26.11,1.86-4.37.46-8.82.14-13.23.21-1.06.02-2.15-.22-3.42.35Z"/>
      <path id="belly" class="cls-1" d="m366.58,78.9c.47-.01.93,0,1.39.01.04,0,.07,0,.11,0,.51.02,1.01.07,1.5.13.07,0,.15.02.22.03.48.07.95.15,1.41.25.01,0,.03,0,.04,0,.51.11,1,.25,1.49.41,0,0,.01,0,.02,0,1.47.48,2.86,1.18,4.15,2.12-.1-.12-.2-.25-.3-.38-9.25-10.59-25.92-12.98-33-14-13.53-1.94-21.06.73-38,3-17.04,2.28-28.92,2.18-51,2-29.75-.24-32.12-4.44-65-7-29.37-2.29-51.91-.19-97,4-25.26,2.35-73.46-2.5-92.13-2.49.87,1.55,2.81,2.22,4.51,2.93,5.49,2.29,11.34,3.29,17.12,4.53,8.97,1.91,18.14,2.24,27.2,3.51.96.13,2.68-.27,2.12,1.49-.75,2.34.71,2.85,2.25,3.27,2,.54,4.05.86,6.09,1.26,7.36,1.43,14.83,2.07,22.27,2.71,4.95.43,9.9,1.71,14.89,1.19,9.22-.96,18.45-1.02,27.69-.87,2.99.05,6.11.2,8.74,1.71,5.06,2.92,10.28,5.5,15.48,8.12,7.99,4.03,16.38,6.87,25.29,7.96,1.96.24,4.81,1.17,5.73-.94,1.02-2.31-1.93-3.22-3.39-4.53-1.56-1.41-3.61-2.33-4.66-4.69.76.05,1.23.06,1.7.11,5.2.54,10.2,2.23,15.45,2.54,3.03.18,5.97-.22,8.89-.78.96-.18,2.22-.6,2.33-1.95.11-1.26-.85-1.95-1.77-2.52-2.82-1.75-5.72-3.37-8.45-5.7,1.27-.57,2.36-.34,3.42-.35,4.41-.07,8.87.25,13.23-.21,8.69-.92,17.4-1.26,26.11-1.86,5.38-.37,10.77-.78,16.12-1.62,3-.47,6.17-1.16,8.89.99,3.67,2.91,7.63,5.34,11.63,7.75,1.8,1.09,3.03.93,4.26-.72,1.89-2.54,4.08-4.83,6.33-7.06,1.49-1.48,3.23-2.27,5.35-2.26,6.19,0,12.37-.13,18.56,0,6.47.14,12.69,1.3,18.38,4.75,2.55,1.55,5.35,2.71,8.13,3.81,3.91,1.55,6.09.17,6.5-3.88.09-.85.15-1.78.96-2.19,2.93-1.51,5.61-3.57,9.19-3.55,5.91.03,11.8-.34,17.68-.93.52-.05,1.03-.08,1.54-.1.13,0,.25,0,.38-.01Z"/>
      <path id="fin" class="cls-3" d="m140.88,54.95c-1.11-2.25-4.97-2.47-8.88-2.65-7.49-.35-13.24,4.05-15.92,6.46,3.75,15.32,10.2,23.46,14,27.38,14.44,14.9,19.57,14.84,36.52,20.03,6.15,1.88,15.78,2.81,17.66-.97,1.65-3.31-3.65-9.59-7.94-11.8-8.4-4.33-26.07-19.38-35.45-38.44Z"/>
      <circle id="eye" class="cls-2" cx="53.1" cy="59.99" r="3.5"/>
      <g id="gills">
        <path class="cls-2" d="m100.69,71.66c-4.32-4.87-4.58-12.36-2.27-18.21.52,6.19.54,12.19,2.27,18.21h0Z"/>
        <path class="cls-2" d="m105.77,71.65c-4.32-4.87-4.58-12.36-2.27-18.21.52,6.19.54,12.19,2.27,18.21h0Z"/>
        <path class="cls-2" d="m111.83,71.46c-4.32-4.87-4.58-12.36-2.27-18.21.52,6.19.54,12.19,2.27,18.21h0Z"/>
        <path class="cls-2" d="m116.91,71.45c-4.32-4.87-4.58-12.36-2.27-18.21.52,6.19.54,12.19,2.27,18.21h0Z"/>
        <path class="cls-2" d="m95.57,70.76c-1.97-1.87-2.98-4.58-3.29-7.23-.27-2.67.05-5.37,1.15-7.83.26,1.33.37,2.62.48,3.88.29,3.7.8,7.55,1.66,11.18h0Z"/>
      </g>
      <path id="mouth" class="cls-2" d="m51.07,78.17c.38.17.58.51.34,1.28-.1.32-.16.59-.18.85,4.88.28,7.35.25,7.37-.1.03-.35-2.49-1.03-7.53-2.03Z"/>
    </g>
  </g>
</svg>