<?xml version="1.0" encoding="UTF-8"?>
<svg id="Layer_2" data-name="Layer 2" xmlns="http://www.w3.org/2000/svg" viewBox="0 0 498.94 192">
  <defs>
    <style>
      .cls-1 {
        fill: #b3b3b3;
      }

      .cls-2 {
        fill: #666;
      }

      .cls-3 {
        fill: #1a1a1a;
      }
    </style>
  </defs>
  <g id="SHARKS">
    <g id="Bull_Shark">
      <path id="body" class="cls-2" d="m194.03,22.88c.02-5.06.51-9.35,1.08-13.63.29-2.22.53-4.44-.08-6.66-.5-1.84-2.04-2.91-3.91-2.49-3.04.68-5.98,1.74-8.69,3.24-5.52,3.06-10.49,6.88-15.21,11.07-6.39,5.67-12.21,11.87-17.9,18.23-4.09,4.57-7.84,9.41-11.77,14.11-1.41,1.68-2.61,3.53-3.87,5.34-.5.73-1.14,1.13-1.99,1.33-2.8.64-5.65.95-8.48,1.43-5.46.91-10.81,2.36-16.21,3.57-8.12,1.83-16.22,3.77-24.26,5.9-7.62,2.02-15.17,4.33-22.72,6.64-7.93,2.43-15.66,5.39-23.46,8.18-4.96,1.77-9.85,3.71-14.64,5.86-6.23,2.8-12.31,5.94-17.76,10.14-1.61,1.24-2.75,2.9-3.78,4.62-.72,1.21-.34,2.33.55,3.34,1.47,1.67,3.18,3.07,5.08,4.17,2.44,1.42,4.9,2.83,7.49,3.93,4.76,2.02,9.53,4.06,14.56,5.39.7.18,1.14.39.99,1.25-.17.96.24,1.72.95,2.4,3,2.9,6.67,4.69,10.45,6.26,4.53,1.89,9.13,3.6,13.73,5.29,2.74,1,5.63,1.42,8.4,2.31,8.12,2.63,16.42,4.55,24.74,6.38,7.59,1.67,15.19,3.34,22.9,4.38,2.13.29,4.29.43,6.42.77.97.16,1.68.59,2.3,1.29,2.94,3.33,6.16,6.39,9.32,9.51,5.25,5.19,10.77,10.09,16.4,14.87,6.34,5.38,13.15,10.06,20.29,14.29,4.81,2.85,9.9,4.93,15.46,5.76,1.34.2,2.65.14,3.97-.19.85-.21,1.26-.71,1.36-1.54.16-1.34-.2-2.53-.79-3.74-2.76-5.64-6.64-10.55-10.11-15.74-2.58-3.85-5.37-7.54-8.02-11.34-1.55-2.22-2.88-4.6-4.06-7.04-.51-1.06-.27-1.42.86-1.3,4.03.43,8.07.44,12.12.43,3.69,0,7.39-.13,11.08.01,6.22.25,12.36-.59,18.54-.91,6.08-.31,12.12-.93,18.17-1.53,6.56-.65,13.08-1.66,19.6-2.61,2.94-.43,5.84-.24,8.74.57,7.29,2.03,13.84,5.51,19.99,9.82,1.29.9,2.63,1.72,4.09,2.32,1.54.63,2.5.4,3.54-.9.44-.55.86-1.15,1.09-1.8,2.43-6.64,7.4-10.87,13.42-14.07,1.49-.79,3.08-1.37,4.59-2.13,1.22-.61,1.23-1.09.23-1.97-.45-.4-1.42-.56-1.27-1.2.17-.7,1.14-.49,1.76-.65,6.55-1.65,13.16-3.01,19.78-4.36,2.15-.44,4.26-1.08,6.39-1.63,1.71-.44,3.08-.15,4.48,1.17,3.05,2.87,6.61,5.01,10.49,6.65,3.98,1.68,8.04,2.91,12.36,3.26.08,0,.16.02.23.03,2.73.27,3.6-.9,2.49-3.43-.95-2.15-2.26-4.12-2.98-6.4-.96-3.06.06-5.62,1.74-8.06.33-.47.87-.66,1.4-.82,3.69-1.09,7.49-1.78,11.16-2.96,1.01-.32,2.02-.63,3.04-.93,4.63-1.35,9.27-2.67,13.89-4.06,1.39-.42,2.74-.97,4.08-1.52,1.21-.5,2.06-.17,2.85.85,3.3,4.25,7.44,7.63,11.68,10.88,6.07,4.65,12.68,8.44,19.43,11.98,3.67,1.93,7.44,3.75,11.51,4.79,1.36.35,2.65.33,3.77-.66,1.37-1.21,1.57-3.13.42-4.94-2.25-3.56-4.28-7.24-6.11-11.02-2.56-5.29-4.09-10.86-4.21-16.78-.06-2.99,1.29-5.54,2.95-7.8,4.26-5.83,8.32-11.8,12.98-17.34,4.78-5.67,9.49-11.41,14.09-17.23,4.28-5.42,8.46-10.94,12.09-16.83,1.4-2.26,2.35-4.7,3.1-7.23.23-.79.61-1.08,1.39-1.11,2.7-.12,5.33.18,7.85,1.23,1.21.51,2.46.79,3.79.68.91-.07,1.13-.44.83-1.32-1.76-5.1-1.08-9.64,2.79-13.68,2.58-2.7,5.46-5.08,7.96-7.86.57-.64,1.13-1.31,1.6-2.03.63-.97.37-1.51-.78-1.73-1.07-.21-2.11.09-3.15.28-1.08.2-2.13.53-3.19.82-9.23,2.61-18.21,5.88-26.89,10.01-8.55,4.07-16.48,9.11-24.22,14.51-4.61,3.22-9.03,6.67-13.34,10.27-1.6,1.34-3.01,2.87-4.57,4.25-3.05,2.71-5.98,5.57-8.91,8.4-3.33,3.22-6.31,6.77-9.47,10.16-3.97,4.25-7.77,8.64-11.47,13.11-1.05,1.27-1.94,2.67-3.12,3.83-.49.49-1,.67-1.69.55-7.78-1.36-15.35-3.63-23.05-5.36-3.29-.74-6.5-1.84-9.75-2.75-.79-.22-1.61-.39-2.43-.45-1.01-.06-1.66-.56-2.19-1.36-.61-.92-1.2-1.85-1.91-2.69-1.3-1.52-1.42-3.26-1.1-5.1.39-2.2.82-4.4,1.22-6.6.06-.35.07-.7.08-1.06.08-2.68-.45-3.18-3.07-2.75-6.49,1.08-12.3,3.69-17.41,7.84-1.26,1.02-2.3,2.25-3.24,3.56-.45.63-.94.72-1.72.57-5.41-1.04-10.61-2.92-15.98-4.03-4.78-.98-9.46-2.29-14.21-3.36-6.62-1.5-13.15-3.39-19.78-4.81-5.88-1.26-11.69-2.76-17.54-4.1-2.78-.64-5.66-.92-8.44-1.6-4.35-1.05-8.67-2.27-13.09-2.99-6.13-1-12.17-2.39-18.27-3.53-2.32-.43-4.68-.46-6.97-1.06-.34-.09-.69-.11-.99-.33-5.3-3.77-9.38-8.45-11.86-14.58-1.73-4.28-1.94-8.69-2.1-12.43Z"/>
      <path id="belly" class="cls-1" d="m251.86,146.44c7.29,2.03,13.84,5.51,19.99,9.82,1.29.9,2.63,1.72,4.09,2.32,1.54.63,2.5.4,3.54-.9.44-.55.86-1.15,1.09-1.8,2.43-6.64,7.4-10.87,13.42-14.07,1.49-.79,3.08-1.37,4.59-2.13,1.22-.61,1.23-1.09.23-1.97-.45-.4-1.42-.56-1.27-1.2.17-.7,1.14-.49,1.76-.65,6.55-1.65,13.16-3.01,19.78-4.36,2.15-.44,4.26-1.08,6.39-1.63.57-.15,1.09-.2,1.6-.18-13.01-7.65-25.85-3.93-55.45,1.32-41.36,7.34-62.04,11.01-84,9-4.06-.37-20.1-4.25-52-12-20.66-5.02-41.46-9.52-62-15-23.31-6.22-48-5.1-71.81-8.97,1.26,1.26,2.66,2.35,4.19,3.24,2.44,1.42,4.9,2.83,7.49,3.93,4.76,2.02,9.53,4.06,14.56,5.39.7.18,1.14.39.99,1.25-.17.96.24,1.72.95,2.4,3,2.9,6.67,4.69,10.45,6.26,4.53,1.89,9.13,3.6,13.73,5.29,2.74,1,5.63,1.42,8.4,2.31,8.12,2.63,16.42,4.55,24.74,6.38,7.59,1.67,15.19,3.34,22.9,4.38,2.13.29,4.29.43,6.42.77.97.16,1.68.59,2.3,1.29,2.94,3.33,6.16,6.39,9.32,9.51,5.25,5.19,10.77,10.09,16.4,14.87,6.34,5.38,13.15,10.06,20.29,14.29,4.81,2.85,9.9,4.93,15.46,5.76,1.34.2,2.65.14,3.97-.19.85-.21,1.26-.71,1.36-1.54.16-1.34-.2-2.53-.79-3.74-2.76-5.64-6.64-10.55-10.11-15.74-2.58-3.85-5.37-7.54-8.02-11.34-1.55-2.22-2.88-4.6-4.06-7.04-.51-1.06-.27-1.42.86-1.3,4.03.43,8.07.44,12.12.43,3.69,0,7.39-.13,11.08.01,6.22.25,12.36-.59,18.54-.91,6.08-.31,12.12-.93,18.17-1.53,6.56-.65,13.08-1.66,19.6-2.61,2.94-.43,5.84-.24,8.74.57Z"/>
      <path id="fin" class="cls-2" d="m110.62,119c1.97,13.47,3.44,20.27,7,27,9,17,19,24,43,37,1.05.57,14,9,22,9,.75,0,3.35-.66,4-2,1.46-3.02-4.46-9.8-6-12-7-10-12.18-16.39-22-35-7.56-14.32-5.53-15.94-10-20-9.75-8.85-25.87-6.98-38-4Z"/>
      <path id="mouth" class="cls-3" d="m46.62,120c.16,0,.17-.02.17-.03.11-.38-13.21-2.38-17.82-2.86.09.17.12.4.07.73-.17.96.24,1.72.95,2.4.26.25.53.49.81.72,11.82.04,11.1-.96,15.82-.96Z"/>
      <circle id="eye" class="cls-3" cx="46.62" cy="95" r="5"/>
      <g id="gills">
        <path class="cls-3" d="m103.21,118.3c-3.38-8.02-2.34-17.43,1-25.3-.61,8.49-1.63,16.77-1,25.3h0Z"/>
        <path class="cls-3" d="m108.21,119.53c-3.38-8.02-2.34-17.43,1-25.3-.61,8.49-1.63,16.77-1,25.3h0Z"/>
        <path class="cls-3" d="m114.21,120.77c-3.38-8.02-2.34-17.43,1-25.3-.61,8.49-1.63,16.77-1,25.3h0Z"/>
        <path class="cls-3" d="m119.21,122c-3.38-8.02-2.34-17.43,1-25.3-.61,8.49-1.63,16.77-1,25.3h0Z"/>
        <path class="cls-3" d="m98.33,115.83c-3.12-6.55-2.35-14.51.57-20.99-.17,6.96-.95,14.02-.57,20.99h0Z"/>
      </g>
    </g>
  </g>
</svg>