<?xml version="1.0" encoding="UTF-8"?>
<svg id="Layer_2" data-name="Layer 2" xmlns="http://www.w3.org/2000/svg" viewBox="0 0 498.85 216.36">
  <defs>
    <style>
      .cls-1 {
        fill: #8e9170;
      }

      .cls-2 {
        fill: #163019;
      }
    </style>
  </defs>
  <g id="OTHER">
    <g id="Crocodile">
      <path id="body" class="cls-1" d="m58.12,37.35c-5.96.34-5.95-4.84-8.54-3.33-1.53,1.37-1.95.73-2.67-.53-.86-1.75-2.75-1.62-3.97,0-4.95-.96-6.34,4.48-11.22,3.96-2.4-.26-5.08,1.44-7.21-.81-.4-.42-1.2-.36-1.69.06-2.43,2.13-3.16-3.3-5.66-.61-3.47,4.04-7.06-1.64-9.32.52-.73,1.2-2.05,1.6-3.37,2.11-23.46,13.44,53.19,25.49,61.11,28.99,20.59,13.99,38.09,32.79,63.63,40.33-14.04,2-27.59,3.3-40.72,8.14-4.72,2.11-12.45,2.5-15.14,6.8.31,3.29,11.48-.14,8.89,3.11-7.92,7.86,13.87,2.49,16.42.65,4.78-2.18,2.25,5.27-.66,6.1-.92.42-1.8,1.05-1.32,2.04,2.59,1.99,7,.42,10.23.89-9.55,10.23,10.22,3.4,14.15,1.35,7.46-4.74-2.07,13.36,16.14-2.28,8.24-6.11,19.52,2.54,29.11,1.71,7.32.53,14.63.65,21.82-1.01,9.1-2.1,13.73-7.01,13.74-14.63,0-4.32.03-4.4,5.28-3.25,8.78,1.93,17.5,4.06,26.3,5.92,12.09,2.86,24.94,2.76,37.12,4.47-9.29,5.8,5.73,3.94,9.13,5.11-1.41,2.91-8.65,2.75-8.85,6.36,1.48,3.39,19.28-3.21,15.39,2.89-.67,1.01-1.97,2-.9,3.21,14.89,2,27.59-10.72,43.11-9.87,32.36-3.04,10.77-13.76,21.51-17.47,24.39-10.01,81.48-6.75,98.77,14.3,11.4,18.9-5.56,39.1-23.41,47.6-7.91,6-18.36,4.19-26.61,8.64-7.36,7.09-18.72.27-26.54,5.3-4.33,3.55-9.02,3.95-14.58,2.11-13.23-4.39-16.79,10.05-31.67,2.25-10.43-3.72-15.74,9.86-25.96,3.42-9.42-4.82-15.82,7.7-25.22,1.8-2.66-1.41-5.91-1.1-8.61.44-8.55,5.41-20.29-2.07-28.27,5.09-10.82,10.22,54.57,4.96,60.49,6.57,64.67-2.57,194.19,19.17,200.45-72.68.28-7.5-.31-15.04-.5-22.44-5.1-7.01-1.49-16.47-8.49-22.08-8.02-6.3-2.45-15.43-15.76-17.38-9.67-2.58-11.48-13.81-23.55-11.75-11.07,1.39-14.58-11.02-26.04-8.59-11.43,2.58-16.84-10.14-28.36-6.86-11.3,2.84-17.01-9.23-28.47-5.62-4.34.96-8.94,1.04-12.72-1.79-9.26-8.08-21.64,2.08-31.09-5.5-7.08-5.71-16.09,3.62-23.3-1.8-3.97-2.6-8.08-2.89-12.41-.5-3.55,1.96-7.2,2.09-10.82.08-8.33-5.88-15.02,5.41-23.29,1.2-8.83-5.46-14.76,6.07-23.47,2.04-4.68-1.99-9.01-1.6-13.01,1.26-7.15,5.88-15.71-4.48-23.24,1.48-3.31,1.96-6.8,2.3-10.02-.05-5.5-5.7-15.47-.18-20.43-5.86-2.25-2.93-5.39-4.89-10.23-3.94-4.01.78-7.23-.39-9.35-3.25-3.83-4.28-11.84-.49-15.48-5.62-7.09-6.55-15.79-10.7-26.76-11.34-3.84-1.5-4.21-5.1-9.71-4.51-14.93,1.8-29.57,7.41-44.06.99-5.92-2-11.84-3.83-18.2-4.62C22.93,3.44,17.75-2.82,9.1,1.43.03,5.98,2.94,17.5,11.94,19.51c1.33,1.66,2.41,3.06,4.8.84,1.85-.61,4.67,2.13,5.7,3.34,1.42,2.88,4.36,4.23,7.32,5.7.54.27,1.47.78,1.61.51,1.14-2.12,3.68-.54,5.1-1.32,8.7-4.25,14.88,4.99,21.64,8.76Z"/>
      <path id="top" class="cls-2" d="m498.27,120.71c-5.1-7.01-1.49-16.47-8.49-22.08-8.02-6.3-2.45-15.43-15.76-17.38-9.67-2.58-11.48-13.81-23.55-11.75-11.07,1.39-14.58-11.02-26.04-8.59-11.43,2.58-16.84-10.14-28.36-6.86-11.3,2.84-17.01-9.23-28.47-5.62-4.34.96-8.94,1.04-12.72-1.79-9.26-8.08-21.64,2.08-31.09-5.5-7.08-5.71-16.09,3.62-23.3-1.8-3.97-2.6-8.08-2.89-12.41-.5-3.55,1.96-7.2,2.09-10.82.08-8.33-5.88-15.02,5.41-23.29,1.2-8.83-5.46-14.76,6.07-23.47,2.04-4.68-1.99-9.01-1.6-13.01,1.26-7.15,5.88-15.71-4.48-23.24,1.48-3.31,1.96-6.8,2.3-10.02-.05-5.5-5.7-15.47-.18-20.43-5.86-2.25-2.93-5.39-4.89-10.23-3.94-4.01.78-7.23-.39-9.35-3.25-3.83-4.28-11.84-.49-15.48-5.62-7.09-6.55-15.79-10.7-26.76-11.34-3.84-1.5-4.21-5.1-9.71-4.51-14.93,1.8-29.57,7.41-44.06.99-5.92-2-11.84-3.83-18.2-4.62C22.93,3.44,17.75-2.82,9.1,1.43.03,5.98,2.94,17.5,11.94,19.51c1.33,1.66,2.41,3.06,4.8.84,1.85-.61,4.67,2.13,5.7,3.34,1.42,2.88,4.36,4.23,7.32,5.7.54.27,1.47.78,1.61.51,1.14-2.12,3.68-.54,5.1-1.32,8.7-4.25,14.88,4.99,21.64,8.76-5.96.34-5.95-4.84-8.54-3.33-1.53,1.37-1.95.73-2.67-.53-.86-1.75-2.75-1.62-3.97,0-4.95-.96-6.34,4.48-11.22,3.96-2.4-.26-5.08,1.44-7.21-.81-.4-.42-1.2-.36-1.69.06-2.43,2.13-3.16-3.3-5.66-.61-3.47,4.04-7.06-1.64-9.32.52-.73,1.2-2.05,1.6-3.37,2.11-23.15,13.26,51.14,25.17,60.75,28.84.28-.12.53-.23.7-.31,21.53-9.19,42.4,5.09,67,14,12.33,4.46,46.05,5.04,113,6,62.53.9,62.29-.5,95,1,81.42,3.74,100.31,13.23,112,27,9.76,11.5,18.62,30.84,12,45-6.33,13.53-24.82,18.05-39.55,19.91-.02.01-.04.02-.07.03-7.91,6-18.36,4.19-26.61,8.64-7.36,7.09-18.72.27-26.54,5.3-4.33,3.55-9.02,3.95-14.58,2.11-13.23-4.39-16.79,10.05-31.67,2.25-10.43-3.72-15.74,9.86-25.96,3.42-9.42-4.82-15.82,7.7-25.22,1.8-2.66-1.41-5.91-1.1-8.61.44-8.55,5.41-20.29-2.07-28.27,5.09-10.82,10.22,54.57,4.96,60.49,6.57,64.67-2.57,194.19,19.17,200.45-72.68.28-7.5-.31-15.04-.5-22.44Z"/>
      <path id="rear_foot" data-name="rear foot" class="cls-2" d="m302.89,117.26c-12.5,0-21.67,5.17-32,11-.84.48-1.71.97-2.6,1.47-3.83,3.75,8.35,2.4,11.37,3.44-1.41,2.91-8.65,2.75-8.85,6.36,1.48,3.39,19.28-3.21,15.39,2.89-.67,1.01-1.97,2-.9,3.21,14.89,2,27.59-10.72,43.11-9.87,27.52-2.58,16.02-10.72,18.57-15.39-.03-.05-.06-.08-.1-.13-9.58-14.36,5.57-31.13-2-41-7.61-9.93-33.97-7.37-39,3-5.22,10.76,13.48,27.91,8,34-1.93,2.14-5.13,1-11,1Z"/>
      <path id="front_foot" data-name="front foot" class="cls-2" d="m201.84,120.92c0-1.51,0-2.5.24-3.1-.06-.19-.12-.36-.19-.56-5.83-18.19,3.61-27.46-2-35-6.34-8.51-26.82-8-36,1-4.69,4.6-3.24,8.29-8,14-6.35,7.61-16.15,9.71-27,11-1.71.2-3.36.37-4.98.52-12.17,1.66-23.97,3.18-35.45,7.41-4.72,2.11-12.45,2.5-15.14,6.8.31,3.29,11.48-.14,8.89,3.11-7.92,7.86,13.87,2.49,16.42.65,4.78-2.18,2.25,5.27-.66,6.1-.92.42-1.8,1.05-1.32,2.04,2.59,1.99,7,.42,10.23.89-9.55,10.23,10.22,3.4,14.15,1.35,7.46-4.74-2.07,13.36,16.14-2.28,8.24-6.11,19.52,2.54,29.11,1.71,7.32.53,14.63.65,21.82-1.01,9.1-2.1,13.73-7.01,13.74-14.63Z"/>
      <circle id="eye" class="cls-1" cx="80.39" cy="26.76" r="2.5"/>
    </g>
  </g>
</svg>