<?xml version="1.0" encoding="UTF-8"?>
<svg id="Layer_2" data-name="Layer 2" xmlns="http://www.w3.org/2000/svg" viewBox="0 0 496.34 308.99">
  <defs>
    <style>
      .cls-1 {
        fill: #ccc;
      }

      .cls-2 {
        fill: #1a1a1a;
      }

      .cls-3 {
        fill: #464d52;
      }
    </style>
  </defs>
  <g id="UNIQUE_WILDLIFE" data-name="UNIQUE WILDLIFE">
    <g id="Dolphin">
      <path id="body" class="cls-3" d="m122.86,144.05c-5.31-1.62-16.5-5.25-32.03-6.45-13.08-1.01-23.99.12-31.34,1.28-19.73,3.38-34.22,9.03-52.15,4.08-19.18-11.35,4.89-19.41,8.33-21.27,45.98-19.55,19.03-14.73,46.65-44.83,35.54-33.03,76.7-39.65,119.55-40.3,24.27-.37,36.53,4.87,59.33-15.84,8.07-5.85,17.62-12.31,27.31-16.6,10.54-4.66,45.06-8.07,33.93,5.31-65.38,32.9,22.74,57.01,45.65,79.48,28.59,23.92,71,93.32,73.98,101.48,2.98,8.16,6.27,17.01,6.84,19.21,2.54,9.78,1.38,19.16,6.99,17.58,17.97-5.09,86.12,47.65,50.06,35.66-13.98-9.23-35.21,12.12-47.07-.14-5.3-4.01-3.82,6.81-6.6,9.13-8.76,7.31-31.38,21.64-36.06,32.28-14.49,25.52-3.32-56.48,20.1-69.46-38.29-40.25-74.26-56.49-100.44-63.8-31.9-8.92-41.97-2.56-124.02-14.94-39.92-6.03-59.88-9.04-69.02-11.83Z"/>
      <path id="belly" class="cls-1" d="m392.91,212.59c-2.84-16.57-29.41-34.94-57.04-54.03-51.39-35.5-102.22-40.61-136-44-18.8-1.89-57-8-115,1-49.51,7.68-60,14-78,27-.03.02-.05.04-.08.06.18.11.36.22.55.33,17.93,4.95,32.42-.7,52.15-4.08,7.35-1.16,18.26-2.28,31.34-1.28,15.53,1.2,26.72,4.83,32.03,6.45,9.14,2.79,29.1,5.8,69.02,11.83,82.04,12.39,92.12,6.03,124.02,14.94,20.76,5.8,47.67,17.22,77.02,41.76Z"/>
      <path id="fin" class="cls-3" d="m131.32,106.24c-4.27,11.28,9.23,32.15,17.23,41.51,13.76,16.1,29.19,19.17,43.55,22.02,6.01,1.19,16.43,3.26,17.5-.93,1.12-4.37-9.25-10.29-21.02-27.32-12.9-18.66-10.83-26.56-20.12-34.91-12.72-11.44-32.99-11.34-37.14-.36Z"/>
      <ellipse id="eye" class="cls-2" cx="95.88" cy="91.06" rx="6" ry="4.5" transform="translate(-15.33 19.53) rotate(-10.77)"/>
    </g>
  </g>
</svg>