<?xml version="1.0" encoding="UTF-8"?>
<svg id="Layer_2" data-name="Layer 2" xmlns="http://www.w3.org/2000/svg" viewBox="0 0 498.99 335.97">
  <defs>
    <style>
      .cls-1 {
        fill: #d9cfc1;
      }

      .cls-2 {
        fill: #1a1a1a;
      }

      .cls-3 {
        fill: #a3a198;
      }
    </style>
  </defs>
  <g id="UNIQUE_WILDLIFE" data-name="UNIQUE WILDLIFE">
    <g id="Dugong">
      <path id="belly" class="cls-1" d="m78.69,233.05c.35-10.93-2.41-39,8.93-50.78-19.6,8.43-15.51,53.81-36.07,14.31-9.32-31.42,36.58-57.79,16.98-88.62-15.86-16.13-30.76,6.31-51.12-19.6-11-14-29.83-49.16-5.63-64.9C25.53,9.27,38.8,3.19,58.21,6.69c89.53-31.89,149,57.18,196.3,119.63,21.99,20.06,79.65,144.35,102.55,131.21,7.51-10.54,34.76-46.76,42.8-21.65,2.68,11.88,14.16,20.11,7.44,33-2.63,8.21-6.14,10.69,6.82,13.86,20.68,15.89,44.38,25.05,69.61,31.71,63.06,35.18-88.63,19.7-102.64,6.21-27.47-8.09-59.05,7.67-88.12-3.2-53.74-14.45-102.2-47.31-137.9-89.6-6.55-3.88-24.95-44.92-28.32-32.62-4.97,20.55-24.71,31.58-32.39,51.36-5.02,6.08-17.79-1.55-15.66-13.56Z"/>
      <path id="body" class="cls-3" d="m483.72,314.45c-25.23-6.67-48.94-15.82-69.61-31.71-12.96-3.17-9.45-5.65-6.82-13.86,6.72-12.89-4.76-21.12-7.44-33-8.04-25.11-35.28,11.12-42.8,21.65-22.9,13.15-80.56-111.15-102.55-131.21C207.21,63.87,147.74-25.2,58.21,6.69c-19.41-3.51-32.67,2.58-46.43,16.77-24.2,15.74-5.37,50.9,5.63,64.9,4.93,6.27,9.54,9.71,13.92,11.55,9.08-6.51,25.88-14.37,25.08-23.55-.14-1.63-2-6,3-8,4.55-1.82,18.26,10.35,23,13,32.7,18.27,94.28,84.72,86,140-.54,3.6-1.53,10.18-4.34,16.67,34.65,37.36,79.54,66.16,128.89,79.43,29.06,10.87,60.65-4.89,88.12,3.2,14.01,13.49,165.7,28.97,102.64-6.21Z"/>
      <circle id="eye" class="cls-2" cx="71.41" cy="23.36" r="5"/>
    </g>
  </g>
</svg>