<?xml version="1.0" encoding="UTF-8"?>
<svg id="Layer_2" data-name="Layer 2" xmlns="http://www.w3.org/2000/svg" viewBox="0 0 501.38 173.53">
  <defs>
    <style>
      .cls-1 {
        fill: #f7f5f5;
      }

      .cls-2 {
        fill: #999;
      }

      .cls-3 {
        fill: #1a1a1a;
      }
    </style>
  </defs>
  <g id="SHARKS">
    <g id="Great_White_Shark">
      <path id="body" class="cls-2" d="m26.85,130.06c-11.48-5.84-22.21-11.45-23.86-12.82-.07-.06-.15-.13-.15-.13-3.92-3.15-3.8-6.28.43-9.27,3.5-2.48,7.2-4.62,10.98-6.55,12.22-6.23,24.97-11.05,37.56-16.33,18.37-7.7,37.37-13.08,56.56-17.51,14.3-3.3,28.71-6.14,43.08-9.17,6.79-1.43,13.76-1.24,20.6-2.28,2.81-.43,5.64-.91,8.5-.88.88,0,1.53-.58,2.19-1.13,5.1-4.32,9.26-9.53,12.61-15.5,6.57-11.71,14.05-22.62,23.61-31.75,3.05-2.91,6.56-4.92,10.36-6.33,3.08-1.14,4.48.13,4.64,3.7.17,3.86-.6,7.63-.91,11.44-.74,9.04,1.53,17.21,5.51,24.96,3.32,6.46,7.64,12.09,12.59,17.17,1.11,1.14,2.38,1.68,3.84,2.05,7.22,1.87,14.63,2.56,21.87,4.3,5.07,1.22,10.2,2.15,15.34,2.98,13.34,2.15,26.73,4.04,40.06,6.29,14.95,2.53,29.92,4.96,44.78,8.14,1.56.33,2.72.03,3.98-1.1,3.27-2.92,6.87-5.21,11.33-5.12,2.61.05,3.41,1.38,2.47,3.97-.23.64-.51,1.27-.64,1.93-.42,2.19.47,3.64,2.49,3.93,5.09.73,10.12,1.8,15.15,2.95,2,.46,3.88,1.25,5.83,1.84,1.15.35,1.92.13,2.55-1.02,7.58-13.73,18.1-24.63,29.1-35.02,8.46-8,17.72-14.85,27.23-21.33,6.24-4.25,12.63-8.13,19.48-11.11,1.12-.49,2.23-1,3.44-1.13,1.52-.17,2.12.67,1.91,2.22-.08.6-.25,1.22-.5,1.76-2.81,6.14-5.66,12.26-9.46,17.79-1.95,2.83-4.54,4.98-6.93,7.31-9.53,9.3-17.24,20.02-22.39,32.8-1.14,2.83-2.38,5.6-3.52,8.43-3.32,8.28-2.77,16.69-.77,25.18,1.76,7.47,4.36,14.6,7.41,21.53,1.85,4.2,2.82,8.82,5.22,12.76,1.26,2.06,2.41,4.19,3.65,6.25,1.78,2.94.83,5.08-2.44,5.31-2.34.16-4.53-.59-6.62-1.59-10.96-5.24-20.48-12.6-27.97-22.77-5.72-7.77-11.52-15.49-16.45-23.89-.6-1.03-1.34-1.36-2.38-1.21-3.01.45-6.03.83-9.03,1.36-3.19.57-6.35,1.32-9.54,1.9-1.27.23-1.87.91-2.04,2.26-.16,1.29-.34,2.59-.68,3.83-.77,2.88-3.08,3.95-5.52,2.5-1.89-1.12-3.7-2.39-5.51-3.64-.92-.64-1.81-.79-2.88-.43-12.12,4.06-24.1,8.49-35.58,14.4-1.32.68-2.53,1.52-3.64,2.57-2.5,2.38-3.76,5.11-2.6,8.75.2.63.2,1.36.19,2.04-.06,3.04-1.32,4.23-4.13,3.82-3.36-.49-6.51-1.74-9.54-3.36-.56-.3-1.11-.61-1.97-1.08.15,2.08,1.15,3.39,1.71,4.88.9,2.37.02,3.64-2.33,3.26-2.57-.41-4.82-1.77-6.91-3.3-4.14-3.04-8.2-6.25-11.46-10.41-1-1.27-2.03-.88-3.08-.47-6.38,2.51-12.9,4.54-19.45,6.39-10.67,3.01-21.48,5.35-32.33,7.52-8.39,1.67-13.84,1.68-21.57,2.73,0,0-10.29,1.4-20.23,1.99-18.27,1.07-26.36-.1-63.86-3.11-15.29-1.23-16.59-1.06-26.69-2.13-14.66-1.55-12.78-1.25-33.18-4.43-6.77-1.06-13.59-1.81-20.28-3.31-7.08-1.59-10.83-3.6-15.71-6.64-2.86-1.79-4.55-4.04-6-5.4,9.43-5.43,12.55-7.97,12-9.72-.63-1.99-7.63-1.63-21,1.08-2.84,1.38-5.68,2.76-8.52,4.14Z"/>
      <path id="belly" class="cls-1" d="m191.38,161.58c5.97-.14,13.8-.53,18.72-.91,6.56-.5,12.7-1.07,20.23-1.99,7.25-.88,14.4-2.38,21.57-3.81,10.85-2.16,21.66-4.5,32.33-7.52,6.55-1.85,13.07-3.88,19.45-6.39,1.05-.41,2.08-.8,3.08.47,3.27,4.16,7.32,7.37,11.46,10.41,2.09,1.54,4.34,2.89,6.91,3.3,2.35.38,3.22-.89,2.33-3.26-.56-1.49-1.57-2.8-1.71-4.88.86.47,1.41.78,1.97,1.08,3.03,1.62,6.18,2.87,9.54,3.36,2.81.41,4.07-.78,4.13-3.82.01-.68.01-1.41-.19-2.04-1.16-3.64.1-6.37,2.6-8.75,1.11-1.06,2.32-1.89,3.64-2.57,11.48-5.91,23.46-10.34,35.58-14.4,1.07-.36,1.96-.21,2.88.43,1.82,1.25,3.63,2.53,5.51,3.64,2.44,1.44,4.75.38,5.52-2.5.33-1.24.52-2.54.68-3.83.16-1.35.77-2.03,2.04-2.26,3.19-.58,6.35-1.34,9.54-1.9,3-.53,6.02-.91,9.03-1.36,1.04-.16,1.77.18,2.38,1.21.13.23.28.45.41.68,7.39-4.93,15.84-7.69,15.38-10.76-.19-1.27-1.85-2.19-6-3.24-9.91-2.52-21.7-2.7-38,1.08-5.95,1.38-8.92,2.07-12,3.24-8.78,3.34-11.53,6.67-16,5.4-4.06-1.16-3.54-4.41-8-6.48-6.1-2.83-14.1-.01-19,4.32-5.47,4.84-3.14,8.07-9,14.05-1.05,1.07-9,8.95-18,7.56-3.87-.6-4.09-2.31-9-3.24-5.65-1.07-10.29.27-13,1.08-11.04,3.32-12.88,9.81-19,8.64-3.35-.64-6.56-3.29-8-6.48-2.36-5.24,1.07-9.69-1-11.89-2-2.13-6.96.18-16,4.32-6.33,2.9-12.68,5.72-19,8.64-13.97,6.46-21.06,9.66-26,8.64-7.82-1.62-6.89-7.27-17-12.97-5.32-3-7.27-2.39-33-5.4-17.34-2.03-18.64-2.57-22-1.08-9.59,4.24-10.72,13.8-19,14.05-4.27.13-8.97-2.27-13-4.32-4.05-2.07-4.09-2.81-7-4.32-8.74-4.54-12.28.13-22-3.24-7.9-2.74-8.26-6.77-14-6.48-5,.25-6.33,3.4-12,3.24-3.8-.1-3.63-1.53-10-3.24-4.8-1.29-10.12-2.72-16-1.08-3.55.99-4.11,2.21-7,2.16-3.66-.06-5.55-2.05-7.29-2.89.26,1.26,1.17,2.53,2.76,3.81.05.04.1.08.15.13,7.03,6.28,15.35,9.72,23.86,12.82,6.01,2.19,12.52.18,15.52-.9s4-1.08,6-1.08-6.46,3.86-7,4.32c-1.99,1.72.05,1.85,1.69,3.22,2.09,1.76,4.12,3.62,6.49,4.99,5.21,3,10.83,4.71,16.53,5.99,6.69,1.5,13.52,3.11,20.29,4.17,20.37,3.18,18.39,2.78,33,4.32,15.5,1.64,13.84.75,27,2.16,25.11,2.69,28.62,4.71,45,4.32Z"/>
      <path id="fin" class="cls-2" d="m192.38,164.82c-10-10.81-15.89-18.85-21.77-31.68-3.84-8.37-5.98-16.14-7.23-22.35-8-3.24-13,1.08-22,4.32-34-10.81-6.74,31.25,3,38.9,3.22,2.53,6.29,4.83,9.57,7,9.4,6.23,11.43,7.04,21.43,10.29,10,3.24,27,4.32,17-6.48Z"/>
      <g id="gills">
        <path class="cls-3" d="m107.87,131.09c-4.78-11.05-5.2-23.67-3.28-35.43.86,11.88,1.17,23.68,3.28,35.43h0Z"/>
        <path class="cls-3" d="m113,131.62c-4.78-11.05-5.2-23.67-3.28-35.43.86,11.88,1.17,23.68,3.28,35.43h0Z"/>
        <path class="cls-3" d="m119.12,131.91c-4.78-11.05-5.2-23.67-3.28-35.43.86,11.88,1.17,23.68,3.28,35.43h0Z"/>
        <path class="cls-3" d="m124.26,132.44c-4.78-11.05-5.2-23.67-3.28-35.43.86,11.88,1.17,23.68,3.28,35.43h0Z"/>
        <path class="cls-3" d="m102.64,128.82c-4.27-9.04-4.72-19.6-2.97-29.34,1.03,9.83,1.37,19.57,2.97,29.34h0Z"/>
      </g>
      <ellipse id="eye" class="cls-3" cx="36.88" cy="103.77" rx="3" ry="3.24"/>
    </g>
  </g>
</svg>