<?xml version="1.0" encoding="UTF-8"?>
<svg id="Layer_2" data-name="Layer 2" xmlns="http://www.w3.org/2000/svg" viewBox="0 0 491.44 114.27">
  <defs>
    <style>
      .cls-1 {
        fill: #ccc;
      }

      .cls-2 {
        fill: gray;
      }
    </style>
  </defs>
  <g id="WHALES">
    <g id="Grey_Whale">
      <path id="body" class="cls-2" d="m154.09,91.43c-.69.01-1.7.03-2.93.03-12.96.07-23.44-.6-34.21-2.05-10.63-1.43-21.28-2.73-31.91-4.15-8.12-1.09-16.29-1.51-24.42-2.35-9.26-.96-18.25.83-27.33,1.9-5.48.64-10.93,1.79-16.48.49-3.91-.92-7.39-2.6-10.03-5.65-2.97-3.44-2.7-7.38.44-10.66,1.71-1.78,3.81-3.03,5.71-4.56.29-.23.57-.46.86-.69-.05-.1-.11-.2-.16-.3-.95.18-1.89.39-2.85.55-3.02.51-5.96.06-8.78-1.03-2.09-.81-2.75-5.48-.98-7.17.8-.76,1.41-1.62,2.05-2.48,1.32-1.75,2.94-3.17,4.75-4.39,2.88-1.94,5.2-4.58,8.08-6.54,9.25-6.33,19.03-11.57,29.82-14.79,4.62-1.38,9.21-2.86,13.83-4.26,1.72-.52,3.36-1.23,4.93-2.1,2.53-1.4,5.19-2.45,8.03-3.05.96-.2,1.92-.49,2.71-1.07,4.28-3.14,9.32-3.96,14.37-4.76,3.54-.56,7.07-.71,10.68-.46,4.92.35,9.82-.66,14.74-.98,5.4-.34,10.8-.81,16.2-1.21,3.43-.26,6.85-.68,10.26-.96,2.47-.2,4.71-.71,6.94-1.62.32-.13.68-.13.93.09,1.63,1.48,3.38.49,5.09.28,2.36-.3,4.45-1.64,6.99-1.43,1.78.15,3.38-1.25,5.27-1.36.73-.04,1.48-.27,2.22-.13,6.36,1.21,12.35-1.12,18.51-1.87,6.94-.84,13.86-1.76,20.85-2.18,4.45-.26,8.87-.13,13.31-.05,6.93.12,13.87-.2,20.8-.44,4.48-.16,8.99.21,13.48.38,2.33.09,4.65.38,6.97.41,5.15.06,10.27.5,15.39,1.09,6.07.7,12.12.49,18.04-1.28,1.75-.52,3.53-.52,5.32-.2.95.17,1.58.58,1.86,1.71.72,2.95,3.74,4.89,6.76,4.58,1.08-.11,2.15-.22,3.23-.26.97-.04,1.63.39,2.33,1.16,1.67,1.85,3.97,2.54,6.41,2.74,1.35.11,2.7.01,4.06.16,1.95.21,3.57.85,5.09,2.2,1.89,1.68,4.42,1.99,6.87,2.14,2.26.13,4.42.26,5.98,2.28.56.72,1.59.9,2.52.98.81.07,1.63.19,2.43.15,3.69-.16,6.84,1.09,9.73,3.35,1.59,1.25,3.53,1.93,5.64,1.75,2.64-.23,4.59,1.38,6.7,2.52,2.36,1.28,4.76,1.89,7.49,1.49,2.09-.31,3.9.08,5.72,1.79,2.08,1.97,5.13,2.54,8.08,2.23,2.17-.23,4.2-.45,6.27.7,1.71.95,3.75,1.03,5.71,1.07,3.07.07,5.93,1.19,8.91,1.7.64.11,1.29.18,1.94.18,2.33,0,4.59-.02,6.78,1.18,1.9,1.04,4.14.6,6.24.5,1.17-.06,2.2.09,3.18.88,1.09.87,2.46,1.06,3.84,1.09,2.12.05,4.06.41,6,1.55,4.07,2.4,8.56,2.51,12.85.72,5.09-2.13,10.03-4.64,14.99-7.07,2.73-1.34,5.61-1.99,8.57-2.38,1.45-.19,1.93.38,1.24,1.47-1.02,1.61-1.03,3.4-1.24,5.16-.31,2.67-1.6,4.93-2.99,7.12-.38.6-1.12,1.03-1.78,1.38-1.55.83-1.64,1.15-.09,2.18,3.22,2.14,5.4,4.98,6.31,8.75.36,1.47.71,2.96.87,4.47.35,3.26,1.2,6.38,2.29,9.45,2.11,5.91,3.47,12.11,6.59,17.64.61,1.09,1.24,2.17,1.8,3.28.35.7,1.09,1.53.4,2.22-.77.78-1.65-.02-2.33-.44-1.66-1.02-3.29-2.11-4.85-3.28-6.04-4.51-11.95-9.19-18.17-13.46-5.03-3.45-8.77-8.2-12.81-12.64-5.71-6.26-4.78-5.73-11.7-3.67-9.92,2.94-20.07,4.63-30.26,6.08-4.66.66-9.39.87-14.1,1.07-8.62.36-17.18,1.21-25.74,2.2-8.34.96-16.71,1.72-25.04,2.75-7.04.87-14.03,2.15-21.08,3.02-15.06,1.85-30.04,4.23-45.14,5.81-13.04,1.36-26.09,2.52-39.19,3.29-13.12.77-26.81,2.99-26.81,2.99-1.49.17-2.58.3-2.91.34-8.02.94-23.86,1.98-56.94,2.73Z"/>
      <path id="chin" class="cls-1" d="m116.95,89.41c2.48.33,4.97.63,7.46.9,5.97-6.53,9.93-13.78,8.02-19.32-.25-.74-.5-1.64-1.09-2.64-4.02-6.82-9.91-1.36-15.91-5.36-14.55-9.7-30-8-30-8s-46.6-3.41-64.01,3.9c-3.06,1.29-5.63,2.69-7.99,4.1-.4.24-.8.48-1.22.73.47-.09.94-.19,1.41-.28.05.1.11.2.16.3-.29.23-.57.46-.86.69-1.9,1.53-4,2.78-5.71,4.56-3.14,3.28-3.41,7.22-.44,10.66,2.64,3.05,6.13,4.74,10.03,5.65,5.54,1.3,11,.16,16.48-.49,9.08-1.07,18.07-2.86,27.33-1.9,8.13.84,16.31,1.27,24.42,2.35,10.63,1.42,21.28,2.72,31.91,4.15Z"/>
      <path id="fin_front" data-name="fin front" class="cls-2" d="m168.44,71c-2.28,11.39,8.62,21.09,22,33,5.26,4.68,11.54,9.2,20,10,3.93.37,6.52.61,8-1,3.86-4.21-5.71-14.58-20-43-4.84-9.63-6.56-14.04-11-15-7.18-1.56-17.17,6.84-19,16Z"/>
      <path id="fin_front_barnacle" data-name="fin front barnacle" class="cls-1" d="m183.77,54.99c-6.54,1.19-13.8,8.33-15.34,16.01-2.24,11.17,8.21,20.72,21.24,32.32,2.68-1.12,5.11-2.82,6.76-5.32,1.27-1.93,2.4-4.84,2-11-.5-7.71-1.66-25.59-14.66-32.01Z"/>
      <path id="head" class="cls-1" d="m215.3.38c-2.35-.02-4.7,0-7.06.15-6.99.41-13.91,1.33-20.85,2.18-6.15.75-12.15,3.08-18.51,1.87-.73-.14-1.48.09-2.22.13-1.88.11-3.48,1.51-5.27,1.36-2.54-.22-4.63,1.13-6.99,1.43-1.71.22-3.46,1.2-5.09-.28-.25-.23-.62-.22-.93-.09-2.23.91-4.47,1.42-6.94,1.62-3.41.28-6.83.71-10.26.96-5.4.41-10.8.87-16.2,1.21-4.92.31-9.82,1.33-14.74.98-3.61-.26-7.14-.11-10.68.46-5.04.8-10.09,1.62-14.37,4.76-.79.58-1.75.86-2.71,1.07-2.83.6-5.49,1.65-8.03,3.05-1.57.87-3.21,1.57-4.93,2.1-4.62,1.4-9.21,2.88-13.83,4.26-4.21,1.26-8.27,2.83-12.2,4.65,8.57,4.85,21.45,5.52,25.92,5.75,14.12.73,26.18-2.84,47-9,16.92-5.01,22.96-8.23,31-5,9.48,3.81,11.04,12.29,18,12,7.03-.3,7.45-9.04,19-16,8.49-5.11,11.9-2.58,22-7,5.65-2.47,14.27-7.51,18.87-12.62Z"/>
      <ellipse class="cls-1" cx="123.94" cy="58.5" rx="4.5" ry="3.5"/>
      <ellipse class="cls-2" cx="123.94" cy="58.78" rx="2.86" ry="2.22"/>
    </g>
  </g>
</svg>