<?xml version="1.0" encoding="UTF-8"?>
<svg id="Layer_2" data-name="Layer 2" xmlns="http://www.w3.org/2000/svg" viewBox="0 0 498.91 265.59">
  <defs>
    <style>
      .cls-1 {
        fill: #736357;
      }

      .cls-2 {
        fill: #d9cfc1;
      }

      .cls-3 {
        fill: #1a1a1a;
      }
    </style>
  </defs>
  <g id="SHARKS">
    <g id="Hammerhead_Shark" data-name="Hammerhead Shark">
      <path id="body" class="cls-1" d="m145.28,214.85c-12.37-.76-22.97-.15-34.41-1.02-.16-.01-1.02-.1-1.32.34-.32.48.15.72.45.98,3.46,2.91,6.97,5.77,10.98,7.89,2.54,1.35,5.07,2.69,7.18,4.65,2.25,2.08,2.14,4.61-.19,6.68-.56.5-1.17.97-1.84,1.29-3.39,1.63-6.68,3.45-10.06,5.07-6.16,2.95-12.47,5.17-19.54,5.59-13.07.78-24.15-2.66-32.76-12.85-1.19-1.41-2.35-2.85-3.93-3.88-5.11-3.37-10.94-4.59-16.83-5.5-2.28-.35-4.45-.89-6.39-2.06-2.75-1.66-5.44-3.41-7.81-5.63-2.79-2.61-5.11-5.77-8.51-7.67-3.76-2.1-6.41-4.98-7.53-9.24-.72-2.75-1.94-5.42-4.27-7.11-3.63-2.62-5.37-6.48-7.33-10.21-1.92-3.64-1.54-5.85,1.69-8.47,4.77-3.87,10.07-6.88,16.06-8.4,3.11-.79,6.3-1.27,9.4-2.15,3.2-.9,6.16-.12,8.67,1.93,2.93,2.4,6.03,4.42,9.56,5.85,4.22,1.71,8.5,2.58,12.68.4,3.64-1.9,7.33-3.68,11.05-5.4,8.94-4.14,17.92-8.18,26.6-12.86,5.18-2.8,10.42-5.55,15.93-7.53,8.5-3.05,16.86-6.5,25.41-9.42,3.87-1.33,7.8-2.54,11.62-4.07,8.11-3.27,16.05-6.99,24.6-9.13,9.35-2.35,18.69-4.8,27.89-7.72,1.4-.45,2.6-1.12,3.71-2.1,4.31-3.8,6.87-8.75,8.5-14.05,3.87-12.55,6.92-25.34,10.5-37.98,2.97-10.47,7.06-20.41,11.66-30.2,4.02-8.55,8.74-16.7,14.47-24.26,1.84-2.43,3.71-4.63,6.43-6.02,2.54-1.3,4.33-.43,5.07,2.36.53,1.99.21,3.95.04,5.91-.41,4.71-.06,9.43-.18,14.13-.16,6.15-.77,12.28-.67,18.45.03,1.85.13,3.72-.1,5.54-.93,7.55-1.2,15.13-1.2,22.73,0,.75-.06,1.5-.13,2.25-.93,10.54.36,20.74,4.57,30.52.57,1.32,1.41,1.84,2.84,1.82,2.94-.03,5.88-.07,8.82.21,5.92.57,11.85,1,17.78,1.45,4.91.38,9.82.66,14.72,1.09,9.6.83,19.2,1.72,28.8,2.59,1.43.13,2.63-.31,3.81-1.18,3.52-2.61,7.03-5.28,11.01-7.11,3.85-1.77,7.86-3.18,11.83-4.69,2.53-.96,3.62-.28,3.45,2.37-.16,2.48.31,4.91.24,7.37-.05,1.58.5,2.94,1.68,4.04,1.06.98,1.65,2.07.39,3.51,4.33,1.24,8.5,1.52,12.62,2.08,6.8.93,13.22,3.49,19.99,4.6,3.23.53,5.93.17,8.42-1.94,1.77-1.5,3.73-2.8,5.39-4.42,6.9-6.74,13.24-14.03,20.4-20.51,5.02-4.54,9.9-9.24,14.82-13.88,3.98-3.75,8.12-7.31,12.27-10.87,3.41-2.91,6.68-6.03,10.07-8.98,5.86-5.1,12.31-9.32,19.07-13.08,1.03-.57,2.11-.95,3.31-.98,1.46-.03,2.36.73,2.14,2.1-.31,1.93-.41,4-1.5,5.67-2.69,4.12-5.54,8.14-8.31,12.22-4.15,6.11-8.32,12.21-12.42,18.35-5,7.51-9.98,15.03-14.87,22.61-1.62,2.5-4.17,4.21-5.63,6.77-3.76,6.59-7.73,13.06-11.06,19.88-2.85,5.87-4.2,11.92-2.46,18.5,2.01,7.6,3.36,15.36,5.5,22.94,2.18,7.7,4.26,15.42,7.37,22.83.72,1.71,1.92,3.97-.15,5.48-1.88,1.37-3.65-.21-5.23-1.22-4.91-3.11-8.75-7.44-12.45-11.79-6.65-7.83-12.44-16.31-17.72-25.13-3.62-6.05-7.35-12.02-11.55-17.68-1.57-2.11-3.37-4.06-6.02-4.73-9.6-2.4-19.23-2.34-28.88-.19-.76.17-1.27.26-1.06,1.27.31,1.5-.42,2.77-1.54,3.6-3.04,2.25-4.69,5.43-6.29,8.71-1.66,3.41-3.32,4-7.01,3.1-3.6-.88-6.78-2.73-9.6-4.9-2.42-1.86-4.01-2.2-5.25-2.62-1.86-.62-7.86.38-13.53,2.2-8.25,2.66-9.36,12.74-10.01,15.6-.79,3.45-1.74,7.63-.58,12.61.28,1.2,1.64,6.54.76,10.25-.28,1.19-.73,1.98-1.43,2.22-.59.21-1.3.11-2.03-.39-1.91-1.31-3.86-2.64-5.33-4.47-3.73-4.63-7.4-9.31-11.1-13.96-1.4-1.76-2.4-4-4.62-3.68-3.13.45-5.36,2.51-8.28,3.72-12.72,5.28-21.59,7-32.17,11.08-47.96,18.5-86.6,29.35-109.18,27.96Z"/>
      <path class="cls-2" d="m287.7,165.54c-6.54,1.99-8.89,2.74-14.79,4.55-40.1,12.35-46.88,13.42-50,14-8.6,1.6-12.26,1.86-21,4-17,4.17-23.78,8.25-37,13-29.67,10.67-55.56,12.64-54.04,12.74,11.44.87,22.04.26,34.41,1.02,25.49,1.56,67.63-10.76,109.18-27.96,4.89-2.03,12.58-3.37,21.85-6.85,1.52-.57,5.52-2.1,10.31-4.23,14.97-6.62,33.37-17.08,32.57-18.88-.17-.37-1.26-.61-31.49,8.6Z"/>
      <path id="hammer" class="cls-2" d="m96.53,246.32c7.07-.42,13.38-2.64,19.54-5.59,3.38-1.62,6.67-3.44,10.06-5.07.67-.32,1.28-.8,1.84-1.29,2.33-2.06,2.43-4.6.19-6.68-.69-.64-1.43-1.21-2.2-1.74-5.11-.3-9.93,1.68-11.05,2.14-4.36,1.8-8.22,4.93-12,8-4.81,3.9-5.21,5.12-8,6-3.95,1.24-7.63.22-12-1-2.51-.7-5.66-1.61-9-4-1.34-.96-2.91-2.66-6-6-5.61-6.08-5.92-6.9-8-8-1.28-.67-3.52-1.12-8-2-6.31-1.24-7.01-.9-10-2-2.11-.77-4.64-1.71-7-4-2.06-2-1.74-2.85-4-5-2.11-2.01-2.73-1.58-6-4-2.29-1.69-4.43-3.27-6-6-1.3-2.25-.59-2.47-2-5-1.06-1.9-2.39-3.3-5-6-2.52-2.61-2.6-2.36-4-4-2.48-2.9-3.72-5.43-4-6-1.19-2.47-1.25-3.69-1.6-4.92-2.72,2.43-2.95,4.58-1.14,8.01,1.97,3.72,3.7,7.58,7.33,10.21,2.33,1.68,3.55,4.35,4.27,7.11,1.12,4.26,3.77,7.14,7.53,9.24,3.4,1.9,5.72,5.06,8.51,7.67,2.37,2.22,5.06,3.97,7.81,5.63,1.94,1.17,4.11,1.71,6.39,2.06,5.89.91,11.72,2.14,16.83,5.5,1.57,1.04,2.74,2.48,3.93,3.88,8.61,10.19,19.69,13.63,32.76,12.85Z"/>
      <path id="fin" class="cls-1" d="m193,229.95c20.45,15.53,23.79,17.23,24.58,17.71,0,0,22.46,15.88,52.43,17.88,3.59.24,7.06-.29,10.44-1.08,2.6-.61,4.57-2.01,4.77-4.97.19-2.84-1.82-4.54-4-6.04-12.78-8.79-24.39-19.04-34.3-31.22-5.74-7.05-9.69-13.17-13.68-20.17-2.44-4.27-6.59-11.63-10.38-21.84-5.64-15.19-3.06-19.72-6.91-19.68-19.15.17-41.74,19.17-52.09,37.44-1.88,3.31,2.85,6.76,7.54,12.78,6.19,7.96,12.52,12.3,21.62,19.2Z"/>
      <path id="fin-2" data-name="fin" class="cls-1" d="m288.06,147.73c2.22,13.09,3.06,14.98,3.22,15.46,0,0,3.11,14.04,18.15,27.25,1.8,1.58,3.98,2.89,6.25,4.09,1.75.92,3.61,1.35,5.39.58,1.72-.74,1.59-2.07,1.27-3.42-1.91-7.92-2.36-15.76-.8-23.44.9-4.44,2.25-7.87,4.06-11.57,1.11-2.25,3.04-6.12,6.79-10.66,5.58-6.75,9.54-6.96,7.44-8.57-10.43-8.03-33.41-12.09-49.36-11.2-2.89.16-2.3,3.15-3.19,6.85-1.17,4.9-.22,8.82.77,14.64Z"/>
      <g id="gills_copy" data-name="gills copy">
        <path class="cls-3" d="m146.27,203.37c-7.56-8.24-11.49-19.37-12.88-30.33,4.08,10.25,7.64,20.58,12.88,30.33h0Z"/>
        <path class="cls-3" d="m151.32,202.31c-7.56-8.24-11.49-19.37-12.88-30.33,4.08,10.25,7.64,20.58,12.88,30.33h0Z"/>
        <path class="cls-3" d="m157.25,200.75c-7.56-8.24-11.49-19.37-12.88-30.33,4.08,10.25,7.64,20.58,12.88,30.33h0Z"/>
        <path class="cls-3" d="m162.3,199.68c-7.56-8.24-11.49-19.37-12.88-30.33,4.08,10.25,7.64,20.58,12.88,30.33h0Z"/>
        <path class="cls-3" d="m140.66,202.91c-6.52-6.62-9.91-15.92-10.91-25.04,3.69,8.38,6.7,16.89,10.91,25.04h0Z"/>
      </g>
      <ellipse id="eye" class="cls-3" cx="118" cy="233.32" rx="5.85" ry="4.19" transform="translate(-89.75 74.56) rotate(-25.79)"/>
    </g>
  </g>
</svg>