<?xml version="1.0" encoding="UTF-8"?>
<svg id="Layer_2" data-name="Layer 2" xmlns="http://www.w3.org/2000/svg" viewBox="0 0 499.56 219.91">
  <defs>
    <style>
      .cls-1 {
        fill: #f6eeeb;
      }

      .cls-2 {
        fill: #3a7f9c;
      }
    </style>
  </defs>
  <g id="WHALES">
    <g id="Humpback_Whale">
      <path class="cls-2" d="m499.56,35.78c-14.68-3.91-36.21,23.49-48.93,46.98-8.82,16.28-14.73,9.22-24.47-.98-25.49-19.7-43.83-45.98-74.39-57.66-11.68-5.09-27.81-5.66-38.05-9.82,1.21-3.74,4.74-7.5,2.56-11.43.04.03.08.05.13.08-12.4-12.14-81.81,17.08-102.14,20.61-35.54,8.19-70.22,18.29-104.22,27.22-10.01-2.19-16.79,1.18-24.8,6.85-7.78.64-15.31.4-20.75,6.7-5.33,2.9-11.5-.23-16.76,3.49-4.58,4.54-9.1,6.52-15.47,7.34-4.57,5.98-10.17,2.4-16.79,7.04-1.03,7.45-10.91,6.97-10.71,15.96-7.79,6.34-5.14,6.4,1.5,11.43,1.85,2.23,1.2,8.3,6.85,4.75,1.83,2.69,5.03,7.75,8.5,5.44,3.39,5.64,6.89,1.84,10.93,2.92,4.18,2.46,7.56,5.05,12.52,2.29,1.51,3.19,6.06,2.64,8.48.82-.42,2.4,16.07,8.47,15.65,5.71,31.5,10.32,67.49,25.87,102.35,17.3,8.2,11.69,13.64,25.26,22.48,36.47,2.4,3.05,6.25,2.59,9.54,3.04,4.59.64,4.32,5.16,8.26,6.86,4.03.46,5.45,4.01,9.3,4.31-.82,5.42,7.62,4.33,10.75,5.96,14.26,8.97,33.26,18.09,50.11,12.98,16.01-8.89-50.93-47.53-54.96-63.04,6.44,1.45,28.07,7.85,19.52-5.41-29.75-22.29,29.44-14.3,43.67-29.07,42.99-12.62,97.41-27.66,140.58-3.34,0,0,0,0,0,0,21.79,10.18,10.05,36.61,29.71,60.72,5.78,8.18,13.28,6.92,19.01,9.85,3.04,1.55,5.95,5.08,7.81.25,2.39-6.27-5.22-9.63-7.33-13.11-6.86-11.31-5.54-24.57-.98-31.86,4.21-6.74-6.46-24.03,0-29.36,5.63-4.65-6.85-19.57,2.94-32.3,12.72-10.77,17.62-42.08,17.62-46Z"/>
      <path class="cls-1" d="m244.13,197.25c-4.1-18.64-15.59-31.52-21.53-38.17-3.61-4.05-8.21-8.6-14.68-13.7-23.29-18.38-37.06-17.32-62.63-31.32-29.35-16.07-25.1-25.07-44.04-29.36-9.63-2.18-24.49.8-53.83,6.85C9.14,99.46,3.41,103.01.59,105.15c.95,1.16,2.99,2.38,5.68,4.43,1.85,2.23,1.2,8.3,6.85,4.75,1.83,2.69,5.03,7.75,8.5,5.44,3.39,5.64,6.89,1.84,10.93,2.92,4.18,2.46,7.56,5.05,12.52,2.29,1.51,3.19,6.06,2.64,8.48.82-.42,2.4,16.07,8.47,15.65,5.71,31.5,10.32,67.49,25.87,102.35,17.3,8.2,11.69,13.64,25.26,22.48,36.47,2.4,3.05,6.25,2.59,9.54,3.04,4.59.64,4.32,5.16,8.26,6.86,4.03.46,5.45,4.01,9.3,4.31-.82,5.42,7.62,4.33,10.75,5.96,4.36,2.74,9.16,5.49,14.2,7.85-.12-7.55-1.7-14.98-1.94-16.06Z"/>
      <path id="eye" class="cls-1" d="m143.55,98.17c1.14-.3,2.28-.6,2.8-1.62.62-1.21-.07-2.57-.15-2.72-.22-.43-.55-.81-1-1.14-.83-.61-1.86-.92-2.87-1.02-2-.2-4.22.72-5.07,3.08-.5,1.4.68,3.16,2.16,3.66.85.29.98,0,1.96,0s1.28,0,2.17-.24Z"/>
      <g id="dots">
        <ellipse class="cls-2" cx="34.54" cy="118.25" rx="2.11" ry="1.69"/>
        <ellipse class="cls-2" cx="50.53" cy="123.04" rx="1.78" ry="1.43"/>
        <ellipse class="cls-2" cx="26.07" cy="115.21" rx="1.78" ry="1.43"/>
        <ellipse class="cls-2" cx="18.24" cy="109.33" rx="1.78" ry="1.43"/>
        <ellipse class="cls-2" cx="230.61" cy="200.35" rx="1.78" ry="1.43"/>
        <ellipse class="cls-2" cx="222.78" cy="196.43" rx="1.78" ry="1.43"/>
        <ellipse class="cls-2" cx="191.46" cy="173.93" rx="1.78" ry="1.43"/>
        <ellipse class="cls-2" cx="214.03" cy="190.71" rx="2.83" ry="2.26"/>
        <ellipse class="cls-2" cx="199.35" cy="181.9" rx="2.83" ry="2.26"/>
        <ellipse class="cls-2" cx="11.88" cy="110.7" rx="1.29" ry="1.03"/>
        <ellipse class="cls-2" cx="18.73" cy="115.6" rx="1.29" ry="1.03"/>
        <ellipse class="cls-2" cx="42.21" cy="121.47" rx="1.29" ry="1.03"/>
        <ellipse class="cls-2" cx="208.59" cy="188.02" rx="1.29" ry="1.03"/>
        <ellipse class="cls-2" cx="208.59" cy="182.15" rx="1.29" ry="1.03"/>
      </g>
    </g>
  </g>
</svg>