<?xml version="1.0" encoding="UTF-8"?>
<svg id="Layer_2" data-name="Layer 2" xmlns="http://www.w3.org/2000/svg" viewBox="0 0 454.16 399.14">
  <defs>
    <style>
      .cls-1 {
        fill: #ccc;
      }

      .cls-2 {
        fill: #464d52;
      }
    </style>
  </defs>
  <g id="UNIQUE_WILDLIFE" data-name="UNIQUE WILDLIFE">
    <g id="Leopard_Seal">
      <path id="body" class="cls-2" d="m257.93,23.89c-20.61-6.98-62.21-29.33-77.18-22.66-2.64,1.18-4.69,3.03-4.69,3.03-2.44,2.45-7.59,9.03-6.3,24.74,6.13,21.69,45.9,27.54,44.85,31.77-.94,3.77-31.01-6.86-45.78,7.47-39.96,55.27,85.21,15.14,90.25,7.1,31.09-16.63,106.35-27.7,90.98,41.66-4.09,35.79-24.08,49.81-60,51.51-19.57,4.73-44.93,8.38-64.15,13.83-22.57,6-51.48,20.82-70.99-2.42-17.95-25.53-37.23-65.9-74.31-59.12-14.55,1.08-48.59,9.37-63.22,10.43-13.48.61-19.36,6.96-16.79,16.16,1.42,28.27,37.44,32.03,58.92,67.53,24.62,40.67,47.82,94.49,97.83,106.68,9.97,4.16,23.21,1.37,34.34,4.57,17.51,2.38,32.91,11.07,48.49,6.99,23.93,0-6.28,56.37,33.97,51.8,21.08-7.66,27.46,2.18,30.47,3.09,20.45,14.36,77.57,16.11,46.43-2.69-1.32-5.37-3.04-9.43-4.27-12.01-5.32-11.13-11.42-15.19-25.69-32.64-4.85-5.92-7.27-8.89-7.49-9.93-3.58-16.49,35.58-34.23,67.47-59.07,18.8-14.64,42.98-37.9,65.15-75.26,4.48-12.87,14.88-48.46.96-88.54-24.51-70.6-79.08-87.04-106.31-89.52-27.23-2.48-65.9,11.26-82.94,5.49Z"/>
      <path class="cls-1" d="m447.17,107.92c-.37-1.05-.74-2.09-1.12-3.12-.15-.41-.31-.82-.47-1.23-.23-.6-.45-1.2-.68-1.79-.21-.53-.41-1.05-.62-1.57-.18-.45-.36-.9-.54-1.35-.25-.6-.49-1.18-.74-1.77-.15-.35-.3-.7-.45-1.05-.28-.65-.57-1.3-.85-1.94-.12-.26-.23-.52-.35-.78-.32-.7-.64-1.39-.96-2.08-.09-.18-.17-.36-.26-.54-.35-.74-.71-1.48-1.07-2.21-.05-.1-.1-.19-.14-.29-.4-.79-.8-1.58-1.2-2.36,0,0,0,0,0,0,4.92,31.8-2.22,66.33-20.37,88.89-10.3,12.81-13.55,8.59-43.91,30.83-38.96,28.53-40.3,40.38-65.4,58.86-7.62,5.61-65.76,48.42-118.65,32.7-23.19-6.89-21.84-18.04-73.81-57.93C80.72,212.46,53.67,149.5.26,145.74c.07.56.18,1.11.33,1.65,1.42,28.27,37.44,32.03,58.92,67.53,24.62,40.67,47.82,94.49,97.83,106.68,9.97,4.16,23.21,1.37,34.34,4.57,17.51,2.38,32.91,11.07,48.49,6.99,23.93,0-6.28,56.37,33.97,51.8,21.08-7.66,27.46,2.18,30.47,3.09,20.45,14.36,77.57,16.11,46.43-2.69-1.32-5.37-3.04-9.43-4.27-12.01-5.32-11.13-11.42-15.19-25.69-32.64-4.85-5.92-7.27-8.89-7.49-9.93-3.58-16.49,35.58-34.23,67.47-59.07,18.8-14.64,42.98-37.9,65.15-75.26,4.48-12.87,14.88-48.46.96-88.54Z"/>
      <path id="fin" class="cls-2" d="m308.97,311.15c-1.02-17.34-7.96-45.09-21.91-49.29-1.65-.5-3.45-.05-7.05-.23-16.5-.81-37.74,6.83-43.91,21.49-6.73,15.98,4.78,20.85,12.42,54.77,7.05,13.46-7.44,50.83,25.63,47.08,21.08-7.66,27.46,2.18,30.47,3.09,20.45,14.36,77.57,16.11,46.43-2.69-1.32-5.37-3.04-9.43-4.27-12.01-3.56-7.44-7.56-11.93-25.69-32.64-3.79-4.33-5.72-6.56-7.49-9.93-4.25-8.07-4.37-15.4-4.62-19.63Z"/>
      <path id="eye" d="m59.86,149.98c4.32.73,10.24-.49,10.91-3.28.72-2.96-4.44-7.75-9.84-8.09-4.37-.28-9.61,2.32-9.8,5.2-.18,2.94,4.9,5.53,8.72,6.17Z"/>
      <g id="spots">
        <circle class="cls-1" cx="385.78" cy="98.88" r="5.68"/>
        <path class="cls-1" d="m199.78,190.06c-15.71,3.93-31.68,4.67-44.06-9.24-3.13,6.23-10.12,11.3-3.77,18.67,7.39,8.58,15.72,9.36,18.89,3.9s5.75-12.48,11.5-3.12c4.91,8,20.37,1.18,17.43-10.22Z"/>
        <path class="cls-1" d="m209.79,209.24c3.18-3.02,8.82-3.27,10.59-.16,1.07,1.88.59,4.72-.57,6.48-2.97,4.5-11.33,3.34-12.6,0-.78-2.05,1.12-4.93,2.58-6.32Z"/>
        <path class="cls-1" d="m132.14,157.62c2.6.92,5.45.11,6.02-2.71-4.88-6.99-10.14-13.76-15.98-19.46-.98.03-1.77.4-2.13,1.29-1.61,4.01,5.42,18.52,12.08,20.88Z"/>
        <path class="cls-1" d="m252.83,193.06c3.96-4.12,10.98-4.47,13.19-.22,1.33,2.56.73,6.44-.71,8.84-3.7,6.15-14.1,4.56-15.69,0-.97-2.8,1.39-6.73,3.21-8.62Z"/>
        <path class="cls-1" d="m359.19,132.61c6.03-5.3,16.73-5.74,20.1-.28,2.03,3.29,1.12,8.28-1.09,11.37-5.64,7.9-21.49,5.86-23.9,0-1.48-3.61,2.12-8.65,4.89-11.09Z"/>
        <path class="cls-1" d="m226.3,183.15c.23,4.56,8.75,8.4,13.43,3.59,1.83-1.88,3.3-5.32,2.79-7.98-.03-.15-.08-.29-.13-.44-5.61,1.22-11.01,2.5-16.02,3.9-.05.31-.09.62-.07.93Z"/>
        <path class="cls-1" d="m360.89,173.26c3.47,5.14,2.7,13.3-1.88,15.28-2.76,1.19-6.54-.04-8.7-2.04-5.54-5.12-2.3-16.93,2.5-18.13,2.95-.74,6.49,2.53,8.08,4.89Z"/>
        <path class="cls-1" d="m332.41,67.04c8.81,3.84,15.55,10.6,18.31,21.32.5-.56.97-1.15,1.39-1.81,2.85-4.46,4.23-11.77,1.92-16.71-3.38-7.22-13.93-7.9-21.62-2.8Z"/>
        <path class="cls-1" d="m313.61,182.24c2.23-3.1-3.35-4.6-2.24-10.07.82-4.04,4.5-6.33,6.63-8.76-7.59,2.85-16.49,4.45-26.71,5.02-1.5,1.82-3.01,3.62-4.5,5.45-1.57,5.74-.92,10.93,3.37,12.95,6.16,2.9,20.48-.45,23.45-4.6Z"/>
      </g>
    </g>
  </g>
</svg>