<?xml version="1.0" encoding="UTF-8"?>
<svg id="Layer_2" data-name="Layer 2" xmlns="http://www.w3.org/2000/svg" viewBox="0 0 493.96 176.15">
  <defs>
    <style>
      .cls-1 {
        fill: #f7f5f5;
      }

      .cls-2 {
        fill: #004e7e;
      }

      .cls-3 {
        fill: #e6e6e6;
      }

      .cls-4 {
        fill: #91bcdb;
      }

      .cls-5 {
        fill: #cce3e6;
      }

      .cls-6 {
        fill: #1a1a1a;
      }
    </style>
  </defs>
  <g id="SHARKS">
    <g id="Mako_Shark">
      <path id="body" class="cls-4" d="m112.96,145.92c-9.99-1.05-22-3-22-3-10.58-1.34-19.57-2.04-26-3-4.74-1.51-16.98.22-17.88-7.87.09-.2,11.2.72,13.41-.62,1.45-.71,2.26-1.87,1.86-2.92-.01-.06-.12-.49-.39-.82-.67-.85-12.73-2.77-12.99-2.77-9.23.06-18.36-3.15-27.38-5.09,0,0,0,0,0,0-11.29-4.3-16.02-5.48-18.7-7.42C.98,111.02.03,110.31,0,109.39c-.07-2.14,3.86-3.77,14.83-8.1,8.42-3.32,12.55-4.9,16.27-6.47,6.37-2.68,11.37-5.25,14.54-6.97,16.99-11.24,49.81-17.8,70.74-23.07,4.63-1.41,47.12-9.98,54.25-9.6,23.7-2.07,29.16.6,39.02-4.32,18.12-9.57,21.16-24.31,35.23-37.26,0,0,8.18-8.48,17.82-12.76,1.16-.52,3.16-1.32,4.12-.48,1.8,2.72-3.25,15.22-3.07,15.05-6.52,13.04-6.35,28.51-6.31,32.3-.64,5.39,3.89,11.03,8.93,11.55,8.17,1.95,16.2,4.49,24.46,6.01,12.85,3.47,54.27,16.63,71.46,21.09,6.59,2.89,12.54-6.68,16.45-3.96.18,1.99-2.88,6.82-2.15,7.29.45,1.52,3.61,1.83,5.2,2.01,7.92.91,15.57,3.51,23.42,4.87,1.56.27,4.08.71,6.68-.45,2.32-1.03,3.59-2.83,4-3.39,4.51-6.22,22.66-26,32.26-34.76,3.74-4.05,28-19.65,42.34-28.14,0,0,1.43-1.32,2.37-1.03.84.48.66.23,1.07,1.08.3,1.01-1,2.49-1,2.49-1.76,2.01-2.27,9.29-20.82,38.1-8.92,13.85-13.29,19.13-14.15,29.17-3.33,25.87,23.6,62.13,24.55,65.04-.57,1.66-2.66.63-3.66.06-13.31-7.46-15.67-9.95-15.67-9.95-21.07-20.89-32.45-27.63-46.97-41.65-1.51-.76-3.82-1.56-12.35-.64-12.83,1.38-14.18,3.9-18.28,4.66-1.58.35-1.9.83-1.31,3.06,1.35,4.02-2.63,2.39-4.79,2.19-12.6-6.64-41.13,2.42-50.38,3.42-5.92.82-7.33.14-9.57,4.35-2.18,2.89-.24,7.35-2.43,8.38-6.86-.41-11.72-2.46-17.14-5.13-1.56-.79-1.74-1.39-2.24-1.59,0,0-.3-.14-.66-.07-26.09,5.17-38.09,6.17-38.09,6.17-49.61,9.32-130.01,9.69-146,8Z"/>
      <path id="middle" class="cls-3" d="m258.57,139.6s11.39-1.68,38.48-7.85c.35-.08.66.07.66.07.5.2.68.8,2.24,1.59,5.42,2.67,10.28,4.72,17.14,5.13,2.18-1.03.25-5.49,2.43-8.38,2.24-4.21,3.65-3.54,9.57-4.35,9.25-1,37.78-10.06,50.38-3.42,2.16.2,6.15,1.83,4.79-2.19-.6-2.23-.28-2.71,1.31-3.06,4.1-.76,5.46-3.27,18.28-4.66,8.53-.92,10.85-.13,12.35.64,14.52,14.02,25.89,20.76,46.97,41.65,0,0,2.36,2.49,15.67,9.95,1,.57,3.09,1.6,3.66-.06-.95-2.91-27.87-39.17-24.55-65.04.25-2.89.8-5.38,1.65-7.79-7.84-.95-22.88,5.96-46.64,12.09-24.4,6.29-42.4,7.73-46,8-20.39,1.51-33.1-2.23-50-3-39.44-1.8-73.11-3.33-115-1-22.73,1.26-22,2.23-64,5-20.45,1.35-36.39,2.39-58,3-39.79,1.13-63.09-1.12-78.62-4.68.42.34.93.71,1.55,1.16,2.68,1.94,7.41,3.12,18.7,7.42,0,0,0,0,0,0,9.38,3.09,17.78,6.12,27.01,6.06,4.37.03,8.4,1.55,9.37,2.03,2,1,1.99,1.94,2,2,.4,1.05-4.39,0-6,0-5,0-6.79,1.93-6.88,2.13.91,8.09,12.64,7.84,17.38,9.34,16.01,2.05,32.02,4.1,48.03,6.14,99.01,1.4,123.47-4.62,146.08-7.94Z"/>
      <path id="middle-2" data-name="middle" class="cls-5" d="m258.57,139.6s11.39-1.68,38.48-7.85c.35-.08.66.07.66.07.5.2.68.8,2.24,1.59,5.42,2.67,10.28,4.72,17.14,5.13,2.18-1.03.25-5.49,2.43-8.38,2.24-4.21,3.65-3.54,9.57-4.35,9.25-1,37.78-10.06,50.38-3.42,2.16.2,6.15,1.83,4.79-2.19-.6-2.23-.28-2.71,1.31-3.06,4.1-.76,5.46-3.27,18.28-4.66,8.53-.92,10.85-.13,12.35.64,14.52,14.02,25.89,20.76,46.97,41.65,0,0,2.36,2.49,15.67,9.95,1,.57,3.09,1.6,3.66-.06-.95-2.91-27.87-39.17-24.55-65.04.25-2.89.8-5.38,1.65-7.79-7.84-.95-22.88,5.96-46.64,12.09-24.4,6.29-42.4,7.73-46,8-20.39,1.51-33.1-2.23-50-3-39.44-1.8-73.11-3.33-115-1-22.73,1.26-22,2.23-64,5-20.45,1.35-36.39,2.39-58,3-39.79,1.13-63.09-1.12-78.62-4.68.42.34.93.71,1.55,1.16,2.68,1.94,7.41,3.12,18.7,7.42,0,0,0,0,0,0,9.38,3.09,17.78,6.12,27.01,6.06,4.37.03,8.4,1.55,9.37,2.03,2,1,1.99,1.94,2,2,.4,1.05-4.39,0-6,0-5,0-6.79,1.93-6.88,2.13.91,8.09,12.64,7.84,17.38,9.34,16.01,2.05,32.02,4.1,48.03,6.14,99.01,1.4,123.47-4.62,146.08-7.94Z"/>
      <path id="top" class="cls-2" d="m76.96,96.92c45.44-9.14,44.42-11.97,68-15,38.55-4.95,69.55-1.02,117,5,14.11,1.79,6.11,1.12,59,9,44.09,6.57,62.44,8.71,86.57,16.25,5.56-.34,7.4.32,8.66.95,14.52,14.02,25.89,20.76,46.97,41.65,0,0,2.36,2.49,15.67,9.95,1,.57,3.09,1.6,3.66-.06-.95-2.91-27.87-39.17-24.55-65.04.86-10.04,5.23-15.31,14.15-29.17,18.56-28.81,19.06-36.09,20.82-38.1,0,0,1.3-1.48,1-2.49-.4-.84-.23-.6-1.07-1.08-.94-.3-2.37,1.03-2.37,1.03-14.34,8.49-38.59,24.09-42.34,28.14-9.6,8.77-27.75,28.55-32.26,34.76-.41.56-1.68,2.36-4,3.39-2.6,1.16-5.12.72-6.68.45-7.86-1.36-15.5-3.96-23.42-4.87-1.59-.18-4.75-.48-5.2-2.01-.73-.47,2.33-5.3,2.15-7.29-3.91-2.71-9.86,6.85-16.45,3.96-17.19-4.46-58.61-17.62-71.46-21.09-8.26-1.52-16.29-4.06-24.46-6.01-5.04-.52-9.57-6.16-8.93-11.55-.04-3.79-.21-19.26,6.31-32.3-.19.17,4.86-12.33,3.07-15.05-.96-.84-2.95-.04-4.12.48-9.64,4.27-17.82,12.76-17.82,12.76-14.07,12.95-17.11,27.69-35.23,37.26-9.86,4.92-15.31,2.25-39.02,4.32-7.14-.38-49.62,8.19-54.25,9.6-20.92,5.28-53.74,11.83-70.74,23.07-3.17,1.72-8.16,4.29-14.54,6.97-3.72,1.57-7.86,3.15-16.27,6.47C3.86,105.62-.06,107.25,0,109.39c0,.05.02.1.02.14,18.67-2.36,45.25-6.24,76.94-12.62Z"/>
      <path id="fin" class="cls-2" d="m148.96,125.92c7.44-4.96,14-5,24-6,6.01-.6,9.36,4.83,13,8,26.69,23.27,35.36,28.18,49,35,8,4,13.92,5.9,14,8,.09,2.34-6.7,4.85-9,5-31,2-55-9-86-34-9.01-7.27-8-14-5-16Z"/>
      <g id="gills">
        <path class="cls-6" d="m122.31,132.62c-5.18-13.86-5.19-29.26-2.7-43.7.29,14.64.21,29.22,2.7,43.7h0Z"/>
        <path class="cls-6" d="m128.64,133.29c-5.18-13.86-5.19-29.26-2.7-43.7.29,14.64.21,29.22,2.7,43.7h0Z"/>
        <path class="cls-6" d="m136.19,133.67c-5.18-13.86-5.19-29.26-2.7-43.7.29,14.64.21,29.22,2.7,43.7h0Z"/>
        <path class="cls-6" d="m142.52,134.34c-5.18-13.86-5.19-29.26-2.7-43.7.29,14.64.21,29.22,2.7,43.7h0Z"/>
        <path class="cls-6" d="m115.94,129.79c-4.63-11.37-4.75-24.24-2.55-36.19.58,12.13.61,24.17,2.55,36.19h0Z"/>
      </g>
      <g id="teeth">
        <path class="cls-1" d="m47.08,132.05s.1-.14.24-.27c-.48-.39-.79-1.01-.79-1.67-.25.82.03,1.73.61,2.35-.02-.14-.05-.27-.06-.41Z"/>
        <path class="cls-1" d="m48.09,128.89c-.56.7-.63,1.69-.28,2.51.17-.11.36-.23.6-.35-.48-.56-.62-1.41-.32-2.15Z"/>
        <path class="cls-1" d="m49.51,129.11c-.13.48-.1.98.07,1.43.13-.04.27-.08.4-.12-.29-.36-.47-.82-.47-1.31Z"/>
        <path class="cls-1" d="m51.51,128.11c-.19.66-.04,1.36.32,1.94.26-.03.53-.06.81-.08-.66-.33-1.12-1.06-1.13-1.85Z"/>
        <path class="cls-1" d="m54.55,128.51c-.33.4-.5.9-.53,1.41.13,0,.27,0,.43.02-.12-.46-.1-.97.1-1.43Z"/>
        <path class="cls-1" d="m56.55,128.51c-.38.45-.54,1.03-.52,1.61.17.02.33.04.5.06-.21-.51-.22-1.12.02-1.67Z"/>
        <path class="cls-1" d="m45.27,125.77c-.34-.02-.68-.06-1.02-.09-.16.46-.21.94-.1,1.39.14.65.55,1.17,1.03,1.5-.37-.46-.57-1.03-.53-1.55.03-.51.28-.95.62-1.25Z"/>
        <path class="cls-1" d="m46.83,125.85c-.31-.01-.63-.03-.94-.05-.12,1.16.62,2.32,1.72,2.64-.88-.56-1.25-1.71-.78-2.58Z"/>
        <path class="cls-1" d="m48.87,127.58c-.3-.53-.34-1.16-.17-1.7-.04,0-.07,0-.11,0-.14,0-.28,0-.43,0,0,.01,0,.02,0,.03,0,.66.3,1.25.7,1.68Z"/>
        <path class="cls-1" d="m50.19,125.96c-.09.55.01,1.09.24,1.54-.1-.53-.02-1.07.21-1.49-.15-.02-.3-.03-.45-.05Z"/>
        <path class="cls-1" d="m52.15,126.21c-.02.46.08.91.28,1.29-.08-.42-.05-.85.08-1.23-.12-.02-.24-.04-.36-.06Z"/>
        <path class="cls-1" d="m54.8,126.8c-.16-.05-.33-.09-.51-.13-.29.46-.43.99-.37,1.54.1-.58.43-1.08.87-1.4Z"/>
      </g>
      <circle id="eye" class="cls-6" cx="44.21" cy="101.17" r="5.75"/>
    </g>
  </g>
</svg>