<?xml version="1.0" encoding="UTF-8"?>
<svg id="Layer_2" data-name="Layer 2" xmlns="http://www.w3.org/2000/svg" viewBox="0 0 506 226.36">
  <defs>
    <style>
      .cls-1 {
        fill: #999;
      }

      .cls-2 {
        fill: #464d52;
      }
    </style>
  </defs>
  <g id="OTHER">
    <g id="Manatee">
      <path id="body" class="cls-1" d="m55.85,145.89c5.13-.29,9.62.28,14.13.19,5.95-.12,11.87-.47,17.71-1.68,13.67-2.83,26.29-8.1,37.65-16.28,8.36-6.01,15.5-13.26,21.78-21.4,5.09-6.58,10.49-12.89,16.22-18.92,10.18-10.73,21.08-20.65,32.88-29.58,10.14-7.68,20.76-14.62,31.88-20.8,10.88-6.05,22.12-11.33,33.74-15.77,7.47-2.85,15.05-5.41,22.68-7.82,6.07-1.92,12.21-3.6,18.37-5.23,5.81-1.53,11.74-2.63,17.59-4.02,5.17-1.23,10.42-2.04,15.66-2.84,5.57-.85,11.15-.77,16.63.74,3.95,1.09,7.97,1.8,12.06,1.81,3.88.01,7.75-.32,11.54-1.3,6.67-1.72,13.44-3.15,20.33-2.97,17.21.45,32.46,6.18,45.23,17.88,4.75,4.35,9.56,8.52,15.51,11.19,3.2,1.44,6.56,2.4,9.89,3.45,8.14,2.55,15.33,6.73,21.59,12.51,6.72,6.19,11.68,13.59,14.9,22.12,1.18,3.12,2.26,6.28,2.17,9.72-.13,5.2-2.05,9.63-5.76,13.21-5.87,5.68-12.59,10.11-20.22,13.09-9,3.51-18.3,4.92-27.97,4.18-4.94-.38-9.46-2.02-14.01-3.66-1.01-.36-1.75-.35-2.66.33-5.9,4.44-12.38,7.72-19.62,9.37-2.08.48-4.2.77-6.29,1.16-4.43.84-8.56,2.49-12.37,4.92-.63.4-.75.81-.39,1.43.88,1.51,1.77,3.01,2.63,4.53,3.99,7.02,7.16,14.39,9.49,22.11,1.38,4.58,2.63,9.2,3.1,13.96.47,4.77.06,9.55-.9,14.25-2.24,10.93-7.23,20.43-14.83,28.58-3.11,3.34-6.92,4.91-11.42,4.24-4.05-.6-7.14-2.93-8.97-6.57-4.15-8.28-4.17-16.64.32-24.78,2.93-5.32,3.59-10.92,2.98-16.78-.59-5.63-2.97-10.48-6.63-14.74-1.07-1.25-1.09-1.25-2.44-.38-6.08,3.92-12.61,6.86-19.6,8.74-2.67.72-2.75.83-.78,2.9,3.28,3.46,6.22,7.15,8.52,11.33,3.42,6.18,5.66,12.77,6.47,19.8.71,6.23.34,12.4-1.15,18.5-.24.99-.76,1.87-1.36,2.69-2.99,4.08-6.13,8.02-9.75,11.57-8.27,8.08-21.21,7.15-28.11-2.15-7.48-10.07-13.09-21.08-16.65-33.14-1.43-4.85-2.58-9.75-3.18-14.77-.16-1.38-.32-1.43-1.44-.62-12.55,9.05-26.09,16.26-40.56,21.71-10.27,3.87-20.86,6.65-31.67,8.52-5.78,1-11.6,1.63-17.45,2-3.8.24-7.59.49-11.4.46-9.18-.07-18.29-.84-27.36-2.21-1.15-.17-2.33-.12-3.47-.32-2.81-.51-5.61-1.11-8.41-1.67-2.1-.42-4.24-.51-6.36-.7-4.07-.36-8.15-.38-12.22-.29-11.44.26-22.61,2.17-33.55,5.54-7.38,2.27-14.31,5.59-21.36,8.65-9.99,4.34-20.32,7.7-30.89,10.36-4.55,1.14-9.1,1.25-13.62.3-3.26-.69-6.27-2.25-9.24-3.78-15.28-7.88-25.97-19.92-32.39-35.81-1.18-2.92-2.13-5.93-2.71-9.02-1.11-5.92.76-10.84,5.4-14.61,5.58-4.52,12.01-7.33,18.91-9.25,8-2.22,16.14-3.51,24.4-4.15,2.47-.19,4.97-.03,6.83-.03Z"/>
      <path id="mouth" class="cls-2" d="m500.24,90.09c1.19-1.15,2.17-2.39,2.99-3.71-23.23,20.3-51.23,20.3-67.23,12.3-11.66-5.83-11-7-18-14-.72-.72-5-9-6-7-1.94,3.89,10.01,19.32,26,26,.04.02.08.03.12.05,4.53,1.63,9.02,3.26,13.93,3.63,9.68.74,18.98-.68,27.97-4.18,7.62-2.97,14.35-7.41,20.22-13.09Z"/>
      <circle id="eye" class="cls-2" cx="431" cy="49.68" r="5"/>
    </g>
  </g>
</svg>