<?xml version="1.0" encoding="UTF-8"?>
<svg id="Layer_2" data-name="Layer 2" xmlns="http://www.w3.org/2000/svg" viewBox="0 0 430.45 421.69">
  <defs>
    <style>
      .cls-1 {
        fill: #f7f5f5;
      }

      .cls-2 {
        fill: #17152a;
      }
    </style>
  </defs>
  <g id="RAYS">
    <g id="Manta_Ray">
      <g id="body">
        <path class="cls-2" d="m251.73,269.14c-3.12-1.55-5.36-2.69-6.5-3.36-.25-.15-.86-.51-1.4-.3-.31.12-.57.43-.78,1.05-1.51,4.37-4.66,7.39-8.76,9.21-4.22,1.88-8.02,3.84-11.19,7.58-4.05,4.78-10.17,6.48-16.18,7.97-7.16,1.78-14.46,2.42-21.78,2.56-7.76.15-15.28,1.68-22.69,3.62-8.34,2.19-16.66,4.55-24.72,7.71-10.96,4.29-22.07,8.46-31.94,14.87-9.19,5.97-18.44,11.87-27.31,18.38-10.14,7.44-19.65,15.54-27.35,25.35-10.91,13.9-20.57,28.68-24.01,46.53-.51,2.65-.68,5.36-1.44,7.97-.88,3.02-2.8,4.06-5.8,3.01-3.92-1.37-6.1-4.6-7.88-8.02-2.99-5.74-4.17-12.05-4.65-18.41-1.78-23.42.74-46.49,6.01-69.31,3.16-13.7,7.6-27.01,11.94-40.37,4.1-12.63,6.85-25.58,8.14-38.84,1.25-12.8-.12-25.22-4.6-37.3-.65-1.76-1.52-3.04-3.22-3.86-4.48-2.15-8.8-4.7-13.55-6.22-5.81-1.86-9.37-5.54-9.29-11.76.07-5.85-1.68-11.33-2.51-16.99-1.15-7.82,1.35-14.85,6.28-20.93,2.66-3.28,6.32-3.56,9.76-1.14,4.52,3.18,5.44,5.74,3.97,10.99-.14.49-.45.98.26,1.92,8.71-12.61,16.56-25.5,23.79-39.25-1.9.05-2.46,1.09-3.03,1.83-2.68,3.49-6.13,6.19-9.26,9.22-3.83,3.7-9.28,3.85-13.27.37-3.02-2.62-3.39-8.02-.55-11.16,4.09-4.52,7.9-9.28,12.29-13.56,4.03-3.94,8.72-6.07,14.24-6.32,3.94-.18,7.48-1.14,10.85-3.27,5.6-3.53,11.31-3.85,17.3-.47,4.54,2.57,9.55,4.27,14.08,6.91.62.36,1.31.51,2.02.34,8.81-2.06,17.78-3.38,26.06-7.51,9.78-4.87,18.49-11.18,26.78-18.17,12.1-10.2,22.5-22.16,33.94-33.04,18.89-17.94,39.96-32.65,64.02-42.88,5.8-2.47,11.79-4.35,18.24-4.06,3.06.14,5.87.94,8.04,3.23,2.05,2.16,2,3.7-.34,5.39-18.27,13.23-28.01,32.06-34.72,52.86-3.59,11.14-4.28,22.74-5.23,34.3-.48,5.84-.42,11.68-.65,17.51-.64,15.78,2.62,30.96,6.02,46.26,3.59,16.17,9.49,31.31,16.68,46.13,3.4,7.01,6.81,14.21,6.32,22.43-.15,2.54-.61,5.01-1.09,7.5-.05.26-.05.63-.22.74-2.94,1.99-1.61,4.75-1.42,7.36.29,3.98-.54,7.83-1.98,11.52-.64,1.64-.22,2.61,1.22,3.45,4.9,2.85,9.88,5.58,14.66,8.63,8.94,5.71,26.12,14.4,62.03,37.71,3.48,2.26,2.42,1.6,6.51,4.26,39.6,25.75,45.83,26.63,65.64,40.16,0,0,15.23,10.4,26.83,16.27.93.47,1.76,1.21,2.78,1.44.38.09,1.13.22,1.3.7.06.17.05.4-.06.56-.34.47-1.52.3-1.89.09-7.48-4.23-12.83-7.05-12.83-7.05-13.33-7.4-27.86-15.92-41.78-23.91-24.58-14.11-40.59-22.98-46.5-26.24-5.04-2.78-8.4-4.61-11.01-6.04-13.97-7.65-34.86-19.22-64.61-36.14Z"/>
      </g>
      <g id="left_patch" data-name="left patch">
        <path class="cls-1" d="m163.29,112.1c-15.1-5.29-28.76,3.58-37.06-2.23-5.27-3.69-4.03-10.26-2.19-16.69-.1.04-.2.08-.29.13-2.81,1.74-5.69,3.38-8.68,4.86-8.28,4.12-17.25,5.44-26.06,7.51-.71.17-1.4.02-2.02-.34-2.55-1.49-5.26-2.68-7.94-3.89-4.32,7.43-7.89,18.39-1.9,29.93,10.11,19.47,38.9,24.14,50.09,25.96,9.37,1.52,42.55,6.91,54.09-6.68,10.13-11.93-1.3-32.7-18.03-38.57Z"/>
      </g>
      <g id="right_patch" data-name="right patch">
        <path class="cls-1" d="m87.31,207.23c-9.27-7.63-33.15-27.28-56.21-21.4-8.82,2.25-14.66,7.51-18.54,13.31,4.56,1.53,8.73,3.98,13.06,6.05,1.7.81,2.57,2.1,3.22,3.86,4.48,12.08,5.85,24.5,4.6,37.3-.1,1.02-.22,2.04-.34,3.05,3.81-5.57,8.18-10.4,14.41-8.94,10.55,2.47,12.75,19.74,27.61,28.01,16.47,9.17,41.53,3.4,44.3-13.24,3.16-18.96-24.35-41.6-32.12-48Z"/>
      </g>
      <g id="back_patch" data-name="back patch">
        <path class="cls-1" d="m184.31,176.46c-3.14,2.08,12.74,23.18,5.64,40.45-7.62,18.53-34.77,15.86-34.58,22.39.31,10.25,67.69,33.58,78.6,13.26,11.38-21.2-44.21-79.71-49.66-76.11Z"/>
      </g>
      <g id="eyes">
        <circle class="cls-1" cx="10.13" cy="184.69" r="3"/>
        <circle class="cls-1" cx="58.13" cy="106.69" r="3"/>
      </g>
    </g>
  </g>
</svg>