<?xml version="1.0" encoding="UTF-8"?>
<svg id="Layer_2" data-name="Layer 2" xmlns="http://www.w3.org/2000/svg" viewBox="0 0 473.95 324">
  <defs>
    <style>
      .cls-1 {
        fill: #363636;
      }

      .cls-2 {
        fill: gray;
      }
    </style>
  </defs>
  <g id="UNIQUE_WILDLIFE" data-name="UNIQUE WILDLIFE">
    <g id="Marine_Iguana">
      <path id="body" class="cls-1" d="m473.9,262.31c-.72-7.54-6.81-12.51-13.63-18.07-5.75-4.69-11.6-8.02-16.51-10.81-2.78-1.58-5.55-3.05-5.55-3.05-4.51-2.38-7.63-3.73-17.5-8.93-10-5.27-11.34-6.27-20.38-10.86-6.03-3.06-10.78-5.33-13.87-6.8-6.76-3.22-10.25-4.76-20.56-9.4,0,0-35.51-16.02-47.39-20.56-.52-.2-.87-.33-.87-.33-.19-.07-.3-.11-.52-.2,0,0-.32-.12-.66-.25-6.69-2.56-37.49-16.28-37.49-16.28-9.62-4.28-20.45-8.94-26.86-11.81-1.29-.58-5.04-2.26-7.91-3.57-1.45-.66-2.6-1.19-2.6-1.19-1.19-.54-1.71-.79-3.01-1.38,0,0-1.22-.56-3.08-1.41-8.11-3.7-44.89-13.16-46.25-26.45-.44-4.31,2.89-8.54,6.68-13.35,5.11-6.48,10.82-9.32,10.08-11.01-.54-1.23-4.17-1.12-7.11-.37-12.75,3.28-17.38,19.93-18.78,19.3-1.62-.72,7.67-21.46,10.32-22.76.15-.07,1.42-.65,1.48-1.49.01-.2-.03-.51-.2-.8,0,0-.23-.41-.65-.61-.73-.35-1.76.25-2.16.5-9.58,6.06-19.61,14.41-19.61,14.41-.22.19-.68.55-.9.41-.26-.16-.05-.94.02-1.2,1.49-5.46,5.62-11.58,5.62-11.58,7.64-11.3,6.74-10.57,6.95-10.75.2-.17,1.14-.93,1.1-1.89,0-.04-.03-.53-.21-.7-1.56-1.4-21.02,15.59-23.19,20.39-.09.19-.36.84-1,1.13-1.28.57-3-.77-5.21-2.51-.31-.24-.67-.54-.89-1.04-.46-1.03-.02-2.13.14-2.55,1.57-3.99,16.61-20.67,19.72-22.53.15-.09.98-.57,1.06-1.27.04-.34-.09-.66-.09-.66-.12-.31-.33-.5-.44-.58-.52-.38-1.34-.12-1.61-.03-11.46,3.76-15.98,7.96-15.98,7.96-2.44,2.27-10.62,10.44-11.62,11.99-.08.12-.4.65-1.01.85-.5.17-1,.06-1.16-.03-.96-.52.15-6.07,2.77-10.77,2.91-5.22,9.29-12.27,18.46-15,3.17-.95,8.65-1.97,12.59-6.18.77-.82,1.21-1.48,1.01-1.98-.7-1.79-9.24-.34-15.38,1.56-9.12,2.82-15.49,7.42-16.67,8.28-7.14,5.24-12.97,12.19-14.61,11.03-.2-.14-.36-.45-.7-1.07,0,0-.82-1.52-.98-3.25-.28-3.1,8.9-8.85,9.98-9.52,4.76-2.95,8.88-6.86,13.71-9.68.22-.13.98-.55,1.1-1.28,0,0,.05-.33-.06-.64-.39-1.03-7.85-1.58-15.36,1.56-8.97,3.75-12.35,10.39-13.52,9.61-1.31-.87,1.01-10.6,8.31-17.66,10.66-10.31,26.21-9.43,26.02-11.8-.15-1.84-9.47-2.49-10.34-2.55-4.86-.32-8.56.34-11.4.87-7.17,1.34-10.75,2.01-14.25,4.58-9.3,6.83-11.86,8.95-11.86,8.95-.27.22-1.01.84-1.62.62-1.45-.53-.94-5.41-.78-6.56,1.28-8.98,13.49-15.12,17.35-17.01,13.47-6.59,23.61-5.7,23.6-7.34,0-1.87-13.22-6.15-26.79-2.41-14.6,4.03-25.03,16.07-25.11,15.96-.08-.1,2.12-9.01,10.56-14.65.61-.41,6.16-5.53-1.44-3.36-7,2-7.82,7.56-15.1,11.26-2.29,1.17-4.38,1.62-6.54,1.62,1.28-5.73,5.43-11.59,4.35-12.89-.34-.41-.94-.1-1.99.63-2.53,1.76-6.96,3.75-9.49,10.39-.07.19-.1.4-.08.62-1.48-.41-3.07-.89-4.82-1.4,1.52-3.51,3.11-6.38,2.39-7.24-.34-.41-.94-.1-1.99.63-1.66,1.15-4.13,2.41-6.35,5.01-2.71-.66-5.76-1.29-9.26-1.8-10.65-1.55-33.12-4.84-43.31,6.83-4.16,4.76-6.47,12.24-7.04,14.24-.76,2.65-2.16,7.67-1.66,14.22.24,3.16.9,11.8,6.92,18.88,5.59,6.58,14.17,9.9,17,11,1.42.55,5.48,2.02,10.05,5.31,0,0,1.45,1.05,2.81,2.22,5.85,5.05,11.13,17.33,14.22,23.8,6.46,13.54,11.02,17.82,15.66,29.55.26.66,1.21,3.09,2.6,6.42,3.26,7.82,4.88,11.73,6.26,13.86,3.69,5.71,5.92,5.65,9.42,11.92,1.28,2.3,2.51,4.48,3.07,7.02,3.68,16.61-22.91,39.77-23.97,43.33-.05.16-.26,1.03-1,1.45-.71.4-1.53.18-1.79.12-3.25-.83-22.01-3.88-31.97-4.08-6.57-.13-10.94.95-13.42,2.39-5.63-.34-16,2.71-14.33,3.02,2.75.52,7.29-.59,11.67-.26-.21.33-.47.74-.79,1.19-5.36.19-16.29,5.73-14.49,5.73,2.89,0,7.34-2.08,11.86-2.48-.35.38-.72.8-1.26,1.49-.53.68-.93,1.26-1.25,1.76-5.58,1.41-12.84,5.22-11.34,5.22,2.55,0,6.33-1.63,10.29-2.28.02.08.04.15.06.2.21.55.66.9.72.95.83.63,1.9.47,2.23.43,1.68-.21,4.9-.15,11.32-.02,6.38.13,12.26,2.63,12.38,2.72,0,0,0,0,.01,0,8,5,15.69,1.53,16,4,0,0,0,0,0,0,.08.67-.81,1.3-1.96,1.86-5.01-.07-16.73,6.78-14.85,6.66,3.45-.22,8.96-3.55,14.34-3.4.75.12,1.57.24,2.48.34,0,0,.02,0,.03,0,0,0,0,0,0,0,7.42.79,19.84.34,29.96-6.47,16.02-10.77,20.75-33.71,30-34,.56-.02,3.16-.1,3.45.82.4,1.22-3.66,3.13-6.45,5.18,0,0-13.29,10.2-19.84,37.75,0,.02-.03.19-.16.25-2.12,5.02-5.84,11.56-12,13-5.61,1.31-8.73-2.67-16-3-3.1-.14-6.3.41-9.25,1.38-3.13-2.96-19.13-1.28-17.21-.57,2.96,1.11,8.56.53,13.21,2.21-1.44.72-2.75,1.51-3.87,2.35-4.5-1.05-17.85,5.63-15.88,5.63,3.1,0,7.99-2.39,12.83-2.54-.58.88-.88,1.75-.83,2.54.04.55.26,1.12.61,1.71-5.61,1.36-13.12,5.29-11.61,5.29,3.41,0,8.98-2.89,14.27-2.51,1.18.91,2.66,1.81,4.37,2.67-5.15,1.96-10.79,5.46-9.44,5.38,3.39-.21,8.75-3.42,14.04-3.4,2.32.85,4.87,1.61,7.6,2.21-4.16,1.93-7.74,4.26-6.64,4.19,2.93-.18,7.33-2.61,11.89-3.25,7.71,1.05,16.24.81,24.17-1.76,24.89-8.07,54.19-51.85,55.22-54.05.07-.16.45-1.04,1.3-1.38,1.1-.44,2.34.31,2.55.43,4.12,2.23,78.98,10.94,84.36,18.3.21.28,1.53,2.23,3.82,4.47,1.08,1.05,1.88,1.69,2.47,2.19,2.88,2.42,4.32,4.48,6.22,6.69,5.65,6.57,9.22,7.32,8.8,8.83-.68,2.43-9.68-.44-23,3-2.45.63-4.44,1.35-6.57,2.3-4.68-2.34-17.46-2.21-15.81-1.4,2.67,1.32,7.82,1.39,12.13,3.17-1.13.57-2.36,1.21-3.75,1.93-1.39.72-2.77,1.48-3.67,2.14-4.93,2.4-10.15,6.28-8.82,6.08,2.89-.43,7.05-3.19,11.51-4.23,4.99.24,7.98.8,7.98,1,0,.25-4.7.71-8.06,2.02-5.43,1.97-13,7.44-11.43,7.21,2.72-.4,7.48-3.23,12.21-4.61,3.37.58,8.29.92,8.27,1.39,0,.32-2.34.16-6,2-.01,0-.08.04-.17.09-1,.51-4.86,2.56-5.74,4.28-4.99,1.99-10.19,5.24-8.88,5.16,2.64-.17,6.49-2.15,10.55-3.02,1.1.3,2.43.42,3.25.48.66.05,1.38.11,2.14.16-3.37,1.71-5.9,3.43-4.94,3.37,2.61-.16,6.41-2.11,10.43-2.99,15.91.99,44.08,1.71,71.2-4.63.86-.2,1.79-.43,2.59-1.23,6.67-6.59-16.07-31.79-9.82-40.24,3.46-4.68,13.08-.56,36.75,2.23,1.43.17,13.2.79,36.76,2.02,17.8.93,35.96,1.82,58.47,6.38,14.97,3.03,17.66,4.8,18.19,7.09,2.01,8.68-27.79,22.68-38.78,27.84-10.87,5.1-21.96,10.31-38,14-11.85,2.72-47.2,10.85-64.71,7.93,0,0-10-1.67-13.84,2.2-1.14,1.15-1.14,2.3-1.14,2.3,0,.17,0,.76.38,1.28.65.93,1.97,1.04,2.42,1.08,5.33.5,10.56,2.57,15.89,2.2,18.15-1.26,24.83,3.09,67.02-2.37,18.03-2.33,27.05-3.5,35.95-5.93,43.54-11.86,64.14-35.77,67.16-46.94.85-3.14.58-5.99.58-5.99Z"/>
      <g id="back_patch" data-name="back patch">
        <path class="cls-2" d="m169.02,94.99c11.64,20.17,40.49,41.58,43.18,43.54,27.4,20.03,53.42,28.31,87,39,45,14.33,59.76,11.7,82,28,4.06,2.98,13.06,10.02,27,14,4.05,1.16,9.28,2.27,14.57,2.99-.66-.34-1.33-.7-2.06-1.08-10-5.27-11.34-6.27-20.38-10.86-6.03-3.06-10.78-5.33-13.87-6.8-6.76-3.22-10.25-4.76-20.56-9.4,0,0-35.51-16.02-47.39-20.56-.52-.2-.87-.33-.87-.33-.19-.07-.3-.11-.52-.2,0,0-.32-.12-.66-.25-6.69-2.56-37.49-16.28-37.49-16.28-9.62-4.28-20.45-8.94-26.86-11.81-1.29-.58-5.04-2.26-7.91-3.57-1.45-.66-2.6-1.19-2.6-1.19-1.19-.54-1.71-.79-3.01-1.38,0,0-1.22-.56-3.08-1.41-8.11-3.7-44.89-13.16-46.25-26.45-.44-4.31,2.89-8.54,6.68-13.35,5.11-6.48,10.82-9.32,10.08-11.01-.54-1.23-4.17-1.12-7.11-.37-12.75,3.28-17.38,19.93-18.78,19.3-1.62-.72,7.67-21.46,10.32-22.76.15-.07,1.42-.65,1.48-1.49.01-.2-.03-.51-.2-.8,0,0-.23-.41-.65-.61-.73-.35-1.76.25-2.16.5-9.58,6.06-19.61,14.41-19.61,14.41-.07.06-.17.14-.27.21Z"/>
        <path class="cls-2" d="m164.37,82.68c.49,3.6,1.94,7.4,4.06,11.27,1.5-5.45,5.61-11.53,5.61-11.53,7.64-11.3,6.74-10.57,6.95-10.75.2-.17,1.14-.93,1.1-1.89,0-.04-.03-.53-.21-.7-1.09-.98-10.94,7.04-17.51,13.6Z"/>
      </g>
      <path id="head_patch" data-name="head patch" class="cls-2" d="m56.2,7.53C38.2,1.53,19.2,3.53,11.2,16.53c-.17.27-5.62,9.76-4,11,1.97,1.5,6.75-6.16,12-9,16.54-8.95,37.83-1.83,42-6,2-2-5-5-5-5Z"/>
      <path id="arm_patch" data-name="arm patch" class="cls-2" d="m136.2,169.53c-12.85-6.04-23.54,13.36-29.2,36.76,1.95-2.26,3.94-3.69,6.2-3.76.56-.02,3.16-.1,3.45.82.4,1.22-3.66,3.13-6.45,5.18,0,0-1.96,1.51-4.74,4.92-1.03,5.35-1.79,10.79-2.26,16.08-.86,9.8-.93,32.28,7.58,35.83,18.23-15.85,34.14-39.75,34.9-41.36.07-.16.45-1.04,1.3-1.38.3-.12.6-.15.9-.13.61-2.61,1.06-5.27,1.33-7.96,2.15-21.75,4-37-13-45Z"/>
      <path id="lips" class="cls-2" d="m46.2,52.53c1.51-.79,5.86-4.94,5-6-.92-1.13-7.3,1.56-11,3-14.11,5.51-28.11-3.24-35.44-2.66.38,2.3,1.05,5.11,2.32,8.01,8.63,2.72,19.62,7.79,39.12-2.35Z"/>
      <path id="eye" class="cls-2" d="m37.2,24.53c-2.74,1.37,1.03,7.05,6,9,6.07,2.38,13.55-3.09,11-5-4-3-11-7-17-4Z"/>
    </g>
  </g>
</svg>