<?xml version="1.0" encoding="UTF-8"?>
<svg id="Layer_2" data-name="Layer 2" xmlns="http://www.w3.org/2000/svg" viewBox="0 0 473.43 195.37">
  <defs>
    <style>
      .cls-1 {
        fill: #91bcdb;
      }

      .cls-2 {
        fill: #0c2b4b;
      }

      .cls-3 {
        fill: #534741;
      }
    </style>
  </defs>
  <g id="OTHER">
    <g id="Marlin">
      <path id="body" class="cls-2" d="m349.02,79.59c16,1.99,28.4,3.56,33.29,4.18,5.52-1.87,12.81-8.77,19.08-4.93-.07,2.25-7.85,4.48-5,6.67,3.13.55,8.07,1.48,14.09,2.98,11.51,2.87,12.15,4.98,13.67,3.57,6.82-6.35,5.43-31.09,22.15-58.35,9.37-15.27,23.36-26.35,25.51-24.75,1.86,1.38-5.52,11.05-9.72,22.21-16.55,48.36-16.3,77.02-4.81,124.32,3.41,14.06,11.06,25.83,16.11,38.83.32.93-.91,1.38-1.44.74-27.44-19.82-41.82-50.89-46.21-82.93-10.56,3.11-24.93-.11-33.76,5.12-1.15,2.91,5.14,6.71,2.13,8.41-6.53-.18-10.73-5.07-14.17-9.07-32.59-.85-32.1,20.12-13.06,40.35-4.45,3.25-17.75-4.08-21.69-9.28-9.36-12.35-10.34-24.72-24.88-17.52-29.17,5.29-58.98,5.59-88.52,6.43-4.72,10.09,11.83,27.68,8.72,36.11-15.89-7.01-24.98-23.68-31.08-38.17-31.25,2.2-56.1-23.29-86.68-17.49-9.2-3.06,29.7-6.57,29.3-8.37-47.88-7.64-130.63-.97-150.05-6.61-19.42-5.64,108.38,4.19,156.64-22.65,13.99-9.82,38.72-7.27,44.12-25.84,2.98-10.25,32.71-73.34,35.09-47.33,1.25,7.42,4.34,19.87,12.91,32.78,2.98,4.49,11.62,16.57,27.05,25.78,13,7.76,22.96,8.78,71.23,14.8Z"/>
      <path id="belly" class="cls-1" d="m367.21,108.67s-57.21,10.33-122.21,13.33-92.96-13.33-92.96-13.33c.4,1.8-38.5,5.31-29.3,8.37,30.58-5.8,55.43,19.69,86.68,17.49,6.1,14.49,15.19,31.15,31.08,38.17,3.11-8.43-13.43-26.02-8.72-36.11,29.54-.84,59.35-1.14,88.52-6.43,14.54-7.2,15.52,5.17,24.88,17.52,3.94,5.19,17.23,12.53,21.69,9.28-19.04-20.23-19.53-41.19,13.06-40.35,3.45,4,7.64,8.89,14.17,9.07,3.01-1.7-3.27-5.5-2.13-8.41,8.83-5.23,23.2-2.01,33.76-5.12-47.27-6.86-58.52-3.47-58.52-3.47Z"/>
      <g id="stripes">
        <path class="cls-1" d="m191.76,75c-.65,0-2.01,5.02-2.59,22-.65,19,.65,28.95,1.94,29.47s3.89-6.47,3.89-29.47-2.59-22-3.24-22Z"/>
        <path class="cls-1" d="m210.76,67.01c-.65,0-2.01,5.85-2.59,25.63-.65,22.13.65,33.72,1.94,34.33s3.89-7.54,3.89-34.33-2.59-25.63-3.24-25.63Z"/>
        <path class="cls-1" d="m230.76,86.01c-.65,0-2.01,4.15-2.59,18.15-.65,15.68.65,23.89,1.94,24.32s3.89-5.34,3.89-24.32-2.59-18.15-3.24-18.15Z"/>
        <path class="cls-1" d="m248.76,67.01c-.65,0-2.01,5.85-2.59,25.63-.65,22.13.65,33.72,1.94,34.33s3.89-7.54,3.89-34.33-2.59-25.63-3.24-25.63Z"/>
        <path class="cls-1" d="m265.76,81.01c-.65,0-2.01,4.44-2.59,19.43-.65,16.78.65,25.57,1.94,26.04s3.89-5.72,3.89-26.04-2.59-19.43-3.24-19.43Z"/>
        <path class="cls-1" d="m305.76,86.01c-.65,0-2.01,4.15-2.59,18.15-.65,15.68.65,23.89,1.94,24.32s3.89-5.34,3.89-24.32-2.59-18.15-3.24-18.15Z"/>
        <path class="cls-1" d="m323.76,82c-.65,0-2.01,4.19-2.59,18.37-.65,15.86.65,24.17,1.94,24.61s3.89-5.41,3.89-24.61-2.59-18.37-3.24-18.37Z"/>
        <path class="cls-1" d="m342.76,89c-.65,0-2.01,3.41-2.59,14.95-.65,12.91.65,19.67,1.94,20.03s3.89-4.4,3.89-20.03-2.59-14.95-3.24-14.95Z"/>
        <path class="cls-1" d="m363.76,86c-.65,0-2.01,2.83-2.59,12.39-.65,10.7.65,16.3,1.94,16.6s3.89-3.65,3.89-16.6-2.59-12.39-3.24-12.39Z"/>
        <path class="cls-1" d="m285.76,76c-.65,0-2.01,5.02-2.59,22-.65,19,.65,28.95,1.94,29.47s3.89-6.47,3.89-29.47-2.59-22-3.24-22Z"/>
      </g>
      <circle id="eye" class="cls-3" cx="156" cy="95" r="4"/>
    </g>
  </g>
</svg>