<?xml version="1.0" encoding="UTF-8"?>
<svg id="Layer_2" data-name="Layer 2" xmlns="http://www.w3.org/2000/svg" viewBox="0 0 465.89 106.98">
  <defs>
    <style>
      .cls-1 {
        fill: #e6e6e6;
      }

      .cls-2 {
        fill: #374d65;
      }
    </style>
  </defs>
  <g id="WHALES">
    <g id="Minke_Whale">
      <path id="body" class="cls-2" d="m165.79,91.31c-26.82-.78-36.46-2.83-114.68-13.91C13.62,72.1.48,70.39.01,65.66c-.43-4.39,10.98-10.37,40.84-18.93C93.75,28.19,148.04,12.69,204.85,9.59c26.16-2.79,54.16-2.21,81.22-1.03,14.18.29,30.41-4.1,39.86-6.33,37.51-8.85-18.71,11.02,33.73,17.51,23.45,7.39,50.84,13.32,68.24,32.23,6.28-.55,25.75-6.6,25.41,1.13-6.69,5.96-1.51,27.29,2.41,35.8,2.59,5.63,17.82,20.53,5.26,17.72-18.58-6.55-30.95-20.34-41.55-36.59-15.35,1.91-36.14,2.06-46.29,1.91s-17.21,1.33-30.26,2.63c-13.77,1.37-23.58,4.12-27.71,5.03-39.73,8.77-86.9,10.64-104.1,11.32-9.65.38-24.94.96-45.28.37Z"/>
      <path id="fin_back" data-name="fin back" class="cls-2" d="m162.11,67c14.34,17.77,28.51,24.27,37,27,7.08,2.27,21.05,5.39,22,3,.36-.91-1.28-2.35-2-3-15.11-13.5-23-23-30-30-2.56-2.56-12.89-3.52-27,3Z"/>
      <g id="belly">
        <path class="cls-1" d="m374.98,71.98c.54,0,1.1,0,1.68.01.1,0,.2,0,.3,0,.6,0,1.22,0,1.86,0,.06,0,.12,0,.19,0,.67,0,1.36,0,2.07,0,0,0,.01,0,.02,0-1.85-6.77-28.1-9.09-45-8-18.46,1.2-24.53,6.4-36,2-14.3-5.49-19.62-19.23-26-17-5.65,1.98-3.07,13.29-9,16-9.76,4.46-29.2-21.35-34-17-3.18,2.89,2.64,11.68-2,17-3.9,4.47-12.69,3.63-18,2-12.47-3.84-22.6-15.81-28-14-6.32,2.11,3.97,14.1-3,20-13.28,11.24-41.75,0-86-9C57.14,56.49,28.11,60,.11,66c-.01,0-.01.02-.02.03.08.33.24.64.46.95,2.78,3.78,16.79,5.64,50.57,10.42,78.22,11.08,87.86,13.13,114.68,13.91,20.34.59,35.63.01,45.28-.37,17.2-.68,64.37-2.56,104.1-11.32,4.13-.91,13.94-3.66,27.71-5.03,13.05-1.3,20.11-2.77,30.26-2.63.5,0,1.04.01,1.59.02.08,0,.16,0,.25,0Z"/>
      </g>
      <path id="fin_front" data-name="fin front" class="cls-2" d="m156.11,71c14.34,17.77,28.51,24.27,37,27,7.08,2.27,21.05,5.39,22,3,.36-.91-1.28-2.35-2-3-15.11-13.5-23-23-30-30-2.56-2.56-12.89-3.52-27,3Z"/>
      <g id="eye">
        <ellipse class="cls-1" cx="107.61" cy="62" rx="3.5" ry="2"/>
      </g>
    </g>
  </g>
</svg>