<?xml version="1.0" encoding="UTF-8"?>
<svg id="Layer_2" data-name="Layer 2" xmlns="http://www.w3.org/2000/svg" viewBox="0 0 451.73 460.71">
  <defs>
    <style>
      .cls-1 {
        fill: #1a1a1a;
      }

      .cls-2 {
        fill: #534741;
      }
    </style>
  </defs>
  <g id="RAYS">
    <g id="Mobula_Ray">
      <g id="ray_3" data-name="ray 3">
        <path class="cls-2" d="m324.07,113.61c30.1,18.05,48.53,48.15,75.74,68.45,3.34,1.37,6.41,3.77,10.15,1.86,8.11-1.65,16.07,1.67,24.82-1.83,13.86-1.94,9.71,12.03-1.92,9.52-16.81-4.65-11.62,21.94-3.2,27.66,8.01,1.54,10.89-9.45,19.01-9.02,8.58,3.58-3,12.77-8.69,13.08-5.29,3.11-6.37,10.42-13.74,10.53-8.39,6.15-11.94,17.85-15.06,26.7-5.84,37.88-31.75,118.95-34.88,106.5s-6.11-28.5-14.23-40.16c-6.69-13.42-14.33-25.81-23.67-36.72-14.03-16.27-36.47-22.8-50.24-38.3-11.01-3.24-18.35,3.05-35.61-6.34-32.14-17.49-20.39-49.84-62.93-59.55,47.23-6.88,37.61,68.92,95.41,56.54,3.37-.31,1.9-2.91,1.7-5.65s.13-3.06,1.28-6.26c3.53-9.91,9.07-18.35,13.25-29.38,25.19-66.49-37.28-128.07,22.8-87.62Z"/>
        <path class="cls-1" d="m391.56,197.86c-23.52,8.48-84.18,31.57-82.13,35.79,1.07,2.19,14.5-6.16,35.41-13.83,26.16-9.6,29.91-10.85,50.35-18.37,1.94-.71,7.4-2.69,7.19-3.65-.26-1.13-8.4-.8-10.82.07Z"/>
        <path class="cls-1" d="m403.26,234.25c-24.16,6.44-87.16,22.05-87.88,17.43-.37-2.41,15.43-3.21,36.98-8.82,26.96-7.03,30.76-8.14,51.84-13.61,2-.52,7.62-2.01,7.99-1.09.44,1.08-6.45,5.44-8.93,6.11Z"/>
      </g>
      <g id="ray_2" data-name="ray 2">
        <path class="cls-2" d="m24.26,63.63c31.24-16,66.53-15.73,98.14-28.11,2.93-2.11,6.59-3.45,6.95-7.63,2.89-7.76,9.92-12.76,11.57-22.04,5.68-12.79,15.35-1.88,7.07,6.66-12.84,11.81,12.48,21.46,21.78,17.34,5.54-5.98-2.27-14.24,2.39-20.9,7.57-5.39,9.25,9.3,6.51,14.29-.16,6.13,5.48,10.92,1.67,17.23.78,10.37,8.83,19.57,14.7,26.89,29.06,24.99,84.19,89.84,71.96,85.91-12.22-3.93-27.42-9.89-41.61-9.15-14.93-1.41-29.48-1.48-43.68.68-21.23,3.31-38.63,18.91-59.07,22.39-8.57,7.64-7.11,17.19-24.21,26.88-31.83,18.04-53.09-9.04-83.81,21.94,19.13-43.73,78.38,4.51,98.44-51.1,1.52-3.03-1.46-3.15-3.9-4.43s-2.53-1.73-4.64-4.39c-6.54-8.23-10.78-17.4-17.94-26.78C43.45,72.78-41.84,93.25,24.26,63.63Z"/>
        <path class="cls-1" d="m131.45,50.88c-5.23,24.45-17.7,88.15-13.04,88.63,2.42.25,2.44-15.57,6.98-37.37,5.68-27.28,6.6-31.13,11.02-52.45.42-2.02,1.63-7.71.7-8.03-1.1-.38-5.12,6.71-5.66,9.22Z"/>
        <path class="cls-1" d="m168.52,60.19c-7.3,23.91-27.36,85.64-31.66,83.81-2.24-.96,5.43-14.79,12.06-36.05,8.29-26.6,9.35-30.42,15.85-51.2.62-1.97,2.32-7.53,3.29-7.36,1.14.2,1.21,8.35.46,10.81Z"/>
      </g>
      <g id="ray_1" data-name="ray 1">
        <path class="cls-2" d="m78.21,276.91c35.07-1.44,66.99,13.61,100.89,15.63,3.54-.69,7.43-.36,9.51-4.02,5.87-5.83,14.35-7.43,19.74-15.15,10.52-9.23,14.73,4.73,3.62,9.01-16.61,5.34,2.34,24.72,12.51,24.87,7.54-3.11,3.91-13.87,10.93-17.98,9.14-1.72,4.5,12.32-.08,15.7-2.71,5.5.4,12.21-5.7,16.34-3.64,9.75-.19,21.47,2.07,30.58,15.91,34.87,38.77,116.85,29.32,108.17s-20.75-20.47-33.94-25.75c-12.96-7.54-26.15-13.7-39.94-17.7-20.66-5.9-43,.97-63.02-4.44-10.99,3.34-13.66,12.62-33.25,14.25-36.46,3.03-44.41-30.46-85.29-15.22,35.7-31.68,69.27,36.96,110.79-5.12,2.65-2.11,0-3.47-1.68-5.66s-1.57-2.63-2.37-5.93c-2.49-10.22-2.5-20.31-5.06-31.83-15.45-69.4-101.47-86.57-29.05-85.75Z"/>
        <path class="cls-1" d="m180.88,310.28c-15,20-53.02,72.61-49,75,2.09,1.25,8.74-13.11,22-31,16.6-22.38,19.05-25.49,32-43,1.23-1.66,4.71-6.32,4-7-.83-.81-7.46,3.95-9,6Z"/>
        <path class="cls-1" d="m210.64,334.27c-16.65,18.64-60.74,66.28-63.88,62.81-1.63-1.81,11.13-11.15,26.06-27.67,18.68-20.68,21.24-23.69,35.86-39.84,1.39-1.53,5.27-5.86,6.08-5.3.95.66-2.4,8.09-4.11,10.01Z"/>
      </g>
    </g>
  </g>
</svg>