<?xml version="1.0" encoding="UTF-8"?>
<svg id="Layer_2" data-name="Layer 2" xmlns="http://www.w3.org/2000/svg" viewBox="0 0 342.34 446.21">
  <defs>
    <style>
      .cls-1 {
        fill: #bdccd4;
      }

      .cls-2 {
        fill: #374d65;
      }

      .cls-3 {
        fill: #1a1a1a;
      }
    </style>
  </defs>
  <g id="UNIQUE_WILDLIFE" data-name="UNIQUE WILDLIFE">
    <g id="Mola_Mola">
      <path id="body" class="cls-2" d="m131.7,5.09c3.35,3,5.22,6.69,7.02,10.8,5.56,12.69,10.37,25.63,16.81,38.06,5.82,11.21,12.8,21.72,19.04,32.65,1.45,2.54,3.86,4.65,6,6.78,1.75,1.75,3.8,2.98,5.03,5.45.75,1.51,3.1,2.94,5.36,2.79,6.12-.42,12.12,1.51,18.17,2.3,13.99,1.81,27.12,6.95,39.89,13.47,9.94,5.08,19.23,11.35,28.22,17.88,5.69,4.14,11.35,8.51,16.98,12.79,10.13,7.71,19.26,16.62,29.54,24.13,8.21,6,15.27,13.04,17.76,23.22,1.7,6.93.88,13.36-3.56,18.61-2.72,3.22-5.56,6.28-7.31,10.22-1.57,3.55-.68,6.01,3.1,7.83,7.54,3.65,8.92,8.37,3.84,14.08-2.03,2.28-2.69,4.88-2.78,7.82-.34,10.58-4.97,19.06-11.07,26.99-11.99,15.61-28.73,25.22-45.37,35.05-7.49,4.43-14.28,9.96-22.52,13.21-18.77,7.42-38.59,11.31-59.04,13.17-7.62.69-15.03,2.43-22.82,2.4-4.25-.02-6.42,2.8-8.15,6.72-2,4.52-4.35,8.97-6.82,13.25-10.37,18.02-17.35,37.49-22.47,57.84-1.21,4.82-2.92,9.5-4.75,14.08-2.26,5.64-13.91,12.86-20.12,7.8-2.56-2.09-4.58-4.42-5.98-7.27-5.4-11.03-8.36-22.58-10-34.44-1.81-13.09-2.65-26.24-4.71-39.28-.94-5.94.89-11.33-.19-17.15-.74-3.97-2.18-5.81-6.32-6.63-11.63-2.29-23.13-5.84-33.86-11.16-7.55-3.74-14.79-8.77-19.39-16.62-1.4-2.39-3.71-4.45-5.94-6.21-8.11-6.42-10.03-15.43-11.95-24.36-1.31-6.08-2.99-12.02-5.47-17.8-2.6-6.05-5.31-12.03-6.79-18.44-1.34-5.78,1.2-10.8,1.28-16.3.09-5.41-.34-10.62-1.63-16.04-1.68-7.07-.43-13.7,3.25-19.84,5.42-9.05,10.36-18.48,8.73-30.06-1.65-11.77,8.47-26.11,20.96-29.94,16.22-4.98,33-8.38,48.94-14.15,2.86-1.03,3.81-2.74,3.59-5.41-.94-11.44,1.25-22.5,2.27-33.61,1.42-15.42,5.48-30.31,10.78-44.76,3.46-9.43,8.13-18.23,11.51-27.7,3.18-8.93,12.97-9.7,20.95-2.23Z"/>
      <circle id="eye" class="cls-3" cx="267.42" cy="174.45" r="10.84"/>
      <path id="belly" class="cls-1" d="m173.13,201.55c-48.73,2.37-112.5,26.55-119.21,63.94-4.5,25.07.94,59.3,42.27,66.11,36.81,6.07,57.61,12.41,69.96,19.29,1.69-3.58,3.84-6.1,7.86-6.08,7.79.03,15.2-1.71,22.82-2.4,20.45-1.86,40.27-5.75,59.04-13.17,8.24-3.26,15.02-8.79,22.52-13.21,16.64-9.83,33.38-19.44,45.37-35.05,1.65-2.15,3.2-4.35,4.58-6.61-21.78-50.96-98.71-75.55-155.19-72.81Z"/>
      <path id="fin" class="cls-2" d="m136.06,272.78c23.41-15.1,36.83-32.48,43.55-68.95,3.13-16.97-48.38-17.98-59.76,1.94-21.72,38.01-22.37,52.15-21.28,57.1,1.18,5.36,2.94,12.71,10.26,15.46,12.29,4.62,22.86-2.73,27.24-5.55Z"/>
    </g>
  </g>
</svg>