<?xml version="1.0" encoding="UTF-8"?>
<svg id="Layer_2" data-name="Layer 2" xmlns="http://www.w3.org/2000/svg" viewBox="0 0 500.02 229.32">
  <defs>
    <style>
      .cls-1 {
        fill: #e6e6e6;
      }

      .cls-2 {
        fill: #1a1a1a;
      }

      .cls-3 {
        fill: gray;
      }
    </style>
  </defs>
  <g id="SHARKS">
    <g id="Oceanic_Whitetip_Shark">
      <path class="cls-3" d="m21.73,117.56c11.28.95,14.3,1.54,14.28,1.95-.01.34-2.28.32-6.72,1.94-.37.13-.72.25-1.06.36,1.39,1.45,2.92.93,4.77,1.7,11.04,4.6,21.82,7.42,33.43,10.31,6.14,1.53,12.26,3.07,18.54,3.99,2.97.44,6.11,1.09,9.04,1.7,4.32.9,7.65,1.04,12,1,2.53-.02,7.03.91,9.58.83,1.5-.05,2.34.56,2.94,2.03,5.56,13.72,10.8,27.57,18.31,40.43,3.62,6.21,7.7,17.47,17.45,28.85,4.88,5.7,9.81,10.39,12.97,12.61,3.16,2.22,4.96,2.96,8.04,3.79,1.17.22,5.8.97,10.09-1.85,3.52-2.31,5.14-5.62,5.29-7.08.58-5.64-.33-11.18-1.62-16.66-1.35-5.71-4.64-10.68-6.24-16.32-1.29-4.55-3.24-8.92-4.6-13.45-1.58-5.28-3.48-10.49-4.09-16.04-.67-6.05-1.12-12.02,1.87-17.72.9-1.71,2-2.17,3.8-2.15,8.7.07,17.39.04,26.09.02,1.16,0,2.33-.15,3.49-.24,6.17-.5,12.33-1.1,18.5-1.46,3.5-.21,6.97-.75,10.41-1.19,2.58-.33,5.26-.16,7.77-.92,2.52-.76,5.15-.81,7.71-1.33,3.41-.69,6.92-.93,10.36-1.62,1.85-.37,3.86-.77,5.45.65,2.66,2.37,5.42,4.6,7.67,7.45,3.84,4.87,7.88,9.6,13.84,12.12,4.15,1.75,8.8-1.13,8.88-5.62.05-2.54-.69-4.87-1.85-7.1-1.29-2.51-1.94-5.18-1.59-8.03.14-1.15.98-2.15.78-3.38-.28-1.71.84-2.12,2.16-2.39,5.97-1.2,12.05-1.65,18.07-2.56,5.52-.83,11.14-1.1,16.69-1.81,1.07-.14,2.19-.01,3.27.1,5.26.56,9.93,2.82,14.47,5.31,3.22,1.77,6.57,2.4,10.25,2.51,3.97.12,5.91-3.91,4.11-7.04-.69-1.2-1.44-2.38-2.28-3.48-1.08-1.43-.7-2.61.51-3.63,1.01-.85,2.21-1.44,3.52-1.69,2.92-.56,5.83-1.2,8.78-1.59,4.55-.59,8.94-.45,13.01,2.32,2.94,1.99,5.07,4.6,7.05,7.4,4.55,6.47,7.56,13.83,11.75,20.51,3.31,5.29,6.94,10.29,11.42,14.63,1.33,1.29,2.94,2.09,4.86,2.28,4.32.42,7.11-2.9,8.12-7.11,1.24-5.19,1.35-10.62-.04-15.79-1.59-5.93-2.46-11.96-3.52-17.97-.74-4.16-1.14-8.38-.09-12.59,1.93-7.72,6.15-14.31,10.44-20.83,5.01-7.62,10.52-14.88,16.11-22.1,6.61-8.54,12.93-17.31,19.42-25.95,2.54-3.38,5.93-5.88,9.46-8.02,1.94-1.17,3.6-2.38,4.84-4.24,3.24-4.86,5.6-10.25,9.08-14.96,1.05-1.42,1.82-3.01.57-4.61-1.25-1.61-3.05-2.26-5.09-1.8-1.28.29-2.53.71-3.76,1.17-8.04,3.07-14.68,8.38-21.37,13.55-5.94,4.59-11.54,9.61-17.39,14.31-7.46,5.99-14.69,12.23-21.38,19.09-1.83,1.88-3.82,3.61-5.73,5.42-3.55,3.37-7.42,6.46-10.56,10.17-5.02,5.93-10.71,11.19-16.04,16.79-2.39,2.52-5.29,4.18-8.56,5.03-2.49.64-4.98,1.56-7.72.96-4.32-.95-8.67-1.83-13.05-2.45-5.74-.81-6.57-2.34-3.6-7.4,1.6-2.72,1.18-4.13-1.5-5.79-1.63-1.01-3.36-1.07-5.07-.7-4.3.94-8.23,2.72-12.04,4.99-4.58,2.73-9.63,3.55-14.94,2.18-4.15-1.07-8.33-2-12.52-2.91-3.76-.82-7.55-1.49-11.35-2.12-4.36-.73-8.74-1.39-13.09-2.18-6.29-1.14-12.67-1.83-19.03-2.53-2.89-.32-5.77-.71-8.65-1.01-6.74-.71-13.47-1.61-20.09-2.99-5.99-1.25-12.02-2.42-18.06-3.03-7.1-.72-14.05-2.38-21.16-2.87-.35-.02-.75-.11-1.03-.31-2.77-1.96-4.62-4.66-5.58-7.84-1.44-4.75-2.46-9.6-1.92-13.55.18-8.77-.84-16.3-2.63-23.78-2.29-9.53-10.4-15.34-19.98-14.06-.36.05-.73.14-1.04.3-4.5,2.27-8.52,5.17-11.24,9.5-4.87,7.75-8.4,16.14-11.6,24.68-2.79,7.46-5.59,14.9-10.37,21.4-1.82,2.47-3.98,4.67-7.03,5.29-3.85.78-7.58,1.99-11.41,2.83-4.13.91-8.33,1.33-12.5,1.94-6.61.96-13.2,2.06-19.74,3.42-2.22.46-4.51.41-6.65,1.04-4.68,1.38-9.47,2.17-14.23,3.18-4.69.99-9.52,1.57-14.05,3.05-5.47,1.79-11.12,2.98-16.53,4.92-10.85,3.89-21.72,7.75-31.69,13.69-2.25,1.34-4.69,2.36-6.69,4.13-1.05.92-1.61,1.75-1.7,2.64-.11,1.1.48,2.02,1.07,2.82,2.46,3.29,5.25,4.89,5.25,4.89,6.35,3.65,9.68,5.63,15.39,7.68Z"/>
      <path id="dorsal_fin_lower_tip" data-name="dorsal fin lower tip" class="cls-1" d="m433.05,135.11c-.09-.35-.18-.7-.27-1.05-2.93-.58-6.01-.34-7.76,1.45-1.79,1.84-.48,3.54-2,6-2.38,3.84-7.57,2.9-11.28,4.2,2.5,3.58,5.22,6.96,8.38,10.02,1.33,1.29,2.94,2.09,4.86,2.28,4.32.42,7.11-2.9,8.12-7.11,1.24-5.19,1.35-10.62-.04-15.79Z"/>
      <path id="dorsal_fin_top_tip" data-name="dorsal fin top tip" class="cls-1" d="m494.29,2.03c-1.28.29-2.53.71-3.76,1.17-2.43.93-4.73,2.08-6.95,3.35.42,2.23,1.59,4.43,3.43,5.96,2.36,1.95,5.28,2.35,7.97,1.91,1.18-2.05,2.4-4.07,3.81-5.98,1.05-1.42,1.82-3.01.57-4.61-1.25-1.61-3.05-2.26-5.09-1.8Z"/>
      <path id="fin_tip" data-name="fin tip" class="cls-1" d="m185.39,227.21c3.52-2.31,5.14-5.62,5.29-7.08.58-5.64-.33-11.18-1.62-16.66-1.35-5.71-4.64-10.68-6.24-16.32-.51-1.8-1.13-3.58-1.77-5.35-4.09,1.49-8.8,6.51-11.03,11.7-1.31,3.05-1.57,5.72-4,7-2.92,1.54-5.25-.91-8,0-1.54.51-3.78,2.26-5.15,10.42.46.57.93,1.14,1.42,1.72,4.88,5.7,9.81,10.39,12.97,12.61,3.16,2.22,4.96,2.96,8.04,3.79,1.17.22,5.8.97,10.09-1.85Z"/>
      <path id="top_tip" data-name="top tip" class="cls-1" d="m196.45,14.23c-2.29-9.53-10.4-15.34-19.98-14.06-.36.05-.73.14-1.04.3-3.9,1.97-7.43,4.41-10.07,7.83.52,3.6,1.76,7.81,4.66,10.2,3.26,2.69,4.89.01,12,3,3.77,1.58,3.91,2.59,9,5,3.63,1.72,5.98,2.83,7.85,3.11-.38-5.38-1.22-10.4-2.42-15.39Z"/>
      <path id="belly" class="cls-1" d="m117.02,141.58s0-.04,0-.06c-11.3-4.6-23.99-9.08-38-13-11-3-24-6-43-9-2.79.58-5.38,1.37-7.77,2.3.77,1.7,1.77,1.7,5.19,2.88,1.88.65,4.03,1.7,7.72,3.15,5.42,2.12,15.23,5.23,26.29,7.97,7.45,1.85,11.94,2.96,18.54,3.99,7.85,1.22,15.04,1.7,21.96,1.79"/>
      <g id="gills">
        <path class="cls-2" d="m102.14,125.18c-3.24-8.24-1.56-17.81,2.31-25.55-1.17,8.55-2.78,16.88-2.31,25.55h0Z"/>
        <path class="cls-2" d="m107.62,126.3c-3.24-8.24-1.56-17.81,2.31-25.55-1.17,8.55-2.78,16.88-2.31,25.55h0Z"/>
        <path class="cls-2" d="m114.22,127.4c-3.24-8.24-1.56-17.81,2.31-25.55-1.17,8.55-2.78,16.88-2.31,25.55h0Z"/>
        <path class="cls-2" d="m119.7,128.52c-3.24-8.24-1.56-17.81,2.31-25.55-1.17,8.55-2.78,16.88-2.31,25.55h0Z"/>
        <path class="cls-2" d="m96.85,122.81c-3.02-6.73-1.72-14.82,1.63-21.19-.64,7.13-1.88,14-1.63,21.19h0Z"/>
      </g>
      <circle id="eye" class="cls-2" cx="33.52" cy="99.02" r="3.5"/>
    </g>
  </g>
</svg>