<?xml version="1.0" encoding="UTF-8"?>
<svg id="Layer_2" data-name="Layer 2" xmlns="http://www.w3.org/2000/svg" viewBox="0 0 462.33 290.63">
  <defs>
    <style>
      .cls-1 {
        fill: #fff;
      }

      .cls-2 {
        fill: #1d1d1b;
      }
    </style>
  </defs>
  <g id="WHALES">
    <g id="Orca">
      <path class="cls-2" d="m459.07,269.64c-1.49-5.68-3.65-10.22-6.5-15.27-.98-1.72-1.59-3.44-2.05-5.17-.86-3.04-1.25-6.13-2.45-9.39-1.48-4.12-4.02-6.82-7.1-8.74-7.41-4.67-18.16-4.82-26.11-9.18-13.73-7.55-21.03-22.4-30.22-34.25-13.91-17.89-27.28-36.87-44.17-52.4-19.44-17.91-42.87-35.89-68.26-45.21-1.06-.39-2.06-.8-3.05-1.22-.31-.13-.62-.27-.92-.4-.69-.31-1.36-.63-2.02-.96-.54-.27-1.06-.55-1.58-.83-.5-.27-.99-.55-1.47-.84-.37-.22-.74-.45-1.1-.69-.75-.49-1.48-.98-2.16-1.52-5.66-4.43-9.11-10.4-10.42-19.11-1.8-12.04.14-24.51,2.55-36.3,1.42-6.99,5.17-14.89,3.98-22.13-.07-.45-.16-.86-.28-1.25-.43-1.69-1.08-2.87-1.92-3.62-5.02-4.61-16.33,5.68-20.86,9.15-21.15,16.34-29.63,43.33-50.18,59.99-15.16,12.27-39.11,15.79-57.7,21.16-36.93,10.67-79.42,18.66-106.84,47.09-4.76,4.95-7.85,6.63-12.1,14.22-1.08,2.66-2.21,5.07-3.23,7.38-1.69,3.92-2.99,7.49-2.9,11.17,0,.42.04.84.08,1.26.01.1.03.2.04.3.04.34.1.68.17,1.02.02.09.04.18.06.27.08.35.17.7.28,1.05.03.1.06.2.1.3.05.15.09.3.15.46.05.14.12.28.18.42.1.25.2.49.32.74.11.25.23.51.36.77.14.28.3.56.46.84.13.23.26.46.41.7.22.35.46.7.7,1.05.13.18.24.36.37.54.4.55.83,1.1,1.31,1.67,6.37,7.53,17.39,12.08,26.62,15.59,28.9,11.04,60,11.81,90.33,9.61,5.74,6.52,11.01,13.65,16.35,19.72,12.18,13.88,25.02,26.28,42.71,33.41,6.22,2.48,20.64,8.3,26.18,1.26.24-.29.46-.6.66-.94.2-.32.37-.66.52-1.01,1.12-2.56.69-6.12-.44-9.88-1.89-6.26-5.75-13.05-7.74-16.61-.5-.89-1.02-1.78-1.55-2.68-.36-.6-.73-1.2-1.09-1.8-.16-.25-.31-.51-.47-.76-.45-.72-.92-1.44-1.39-2.16-.06-.1-.13-.19-.19-.29-2.57-3.9-5.39-7.65-8.46-11.2-.31-.36-.62-.72-.93-1.07-.35-.39-.7-.77-1.05-1.16-.44-.48-.88-.95-1.32-1.41-.16-.16-.31-.33-.46-.5-.15-.16-.32-.31-.47-.47-.49-.5-.99-1-1.5-1.49-.31-.3-.62-.6-.94-.9-.54-.51-1.1-1.01-1.66-1.51-.29-.26-.57-.51-.86-.77-.84-.73-1.69-1.44-2.56-2.13-.13-.1-.26-.19-.39-.29-.76-.59-1.53-1.17-2.31-1.74-.08-.06-.16-.12-.25-.18-1.09-.78-2.28-1.72-3.52-2.63,7.36-1.68,14.78-3.27,22.26-4.64,14.75-2.7,29.71-4.52,44.65-4.49,17.07.05,33.69,1.73,49.54,8.19,14.43,5.88,28.94,11.69,43.27,17.72,1.87.78,3.73,1.55,5.58,2.34,28.19,12.03,58.42,22.51,80.4,44.21,10.63,10.47,23.47,21.87,37.83,27.35,15.45,5.89,8.98-11.36,6.74-19.79Z"/>
      <path class="cls-1" d="m316.86,184.6c.84-14.5,5.1-42.59-19.67-36.52-13.53,3.32-22.46,11.69-33.16,19.43-11.24,8.1-24.44,9.12-38.06,8.91-10.6-.19-29.3.02-33.85,12.14-.72,1.94-1.06,3.78-1.05,5.54,14.75-2.7,29.71-4.52,44.65-4.49,17.07.05,33.69,1.73,49.54,8.19,14.43,5.88,28.94,11.69,43.27,17.72-8.69-8.94-12.37-18.59-11.66-30.92Z"/>
      <path class="cls-1" d="m123.53,202.27c-.74-7.92-10.74-13.85-15.83-16.87h0c-13.37-8.01-19.97-12.64-30.57-13.95-19.65-2.43-41.68,2.13-61.58,2.86-3.79.14-7.07-.58-10.22-1.46-1.8-.5-3.55-1.05-5.33-1.53,0,.42.04.84.08,1.26.01.1.03.2.04.3.04.34.1.68.17,1.02.02.09.04.18.06.27.08.35.17.7.28,1.05.03.1.06.2.1.3.05.15.11.3.16.44.05.14.1.29.16.44.1.25.2.49.32.74.11.25.23.51.36.77.14.28.3.56.46.84.13.23.26.46.41.7.22.35.46.7.7,1.05.13.18.24.36.37.54.4.55.83,1.1,1.31,1.67,6.37,7.53,17.39,12.08,26.62,15.59,42.98,16.31,71,9.68,84.35,10.19,5.66.44,5.66-.51,5.98-.57,1.95-1.65,1.64-4.97,1.58-5.65Z"/>
      <path class="cls-1" d="m62.74,142.15c-1.07.5-2.24,1.11-3.41,1.78-2.89,1.67-5.79,3.83-7.28,6.43-5.49,9.54,15.69,10.28,20.66,11.14,7.06,1.22,18.36,4.11,23.68-2.35,5.6-6.82-.08-14.21-6.69-17.75-.87-.46-1.75-.86-2.63-1.18-1.92-.7-3.92-1.15-5.95-1.37-6.26-.69-12.86.71-18.37,3.3Z"/>
    </g>
  </g>
</svg>