<?xml version="1.0" encoding="UTF-8"?>
<svg id="Layer_2" data-name="Layer 2" xmlns="http://www.w3.org/2000/svg" viewBox="0 0 421.07 432.75">
  <defs>
    <style>
      .cls-1 {
        fill: #17152a;
      }

      .cls-2 {
        fill: #374d65;
      }
    </style>
  </defs>
  <g id="RAYS">
    <g id="RAYS-2" data-name="RAYS">
      <path id="ray" class="cls-1" d="m196.56,432.75c7.96-2.19,15.85-4.29,23.58-6.91,18.08-6.11,35.8-13.17,53.22-20.97,3.13-1.4,6.04-3.19,8.38-5.78,2.1-2.33,2.39-4.49,1.1-7.33-2.4-5.3-6.88-8.54-11.64-11.29-8.24-4.75-17.26-7.23-26.61-8.9-12.62-2.24-25.34-2.09-38.06-2.49-11.97-.38-23.99.09-35.93-1.34-3.48-.42-6.9-1.13-10.23-2.26-10.85-3.71-16.86-11.6-17.47-23.09-.49-9.21,2.22-17.73,5.64-26.13,5.89-14.47,14.41-27.38,23.48-39.98,7.64-10.61,15.72-20.92,22.56-32.08,5.78-9.42,10.64-19.25,12.55-30.29.42-2.45.55-4.85-.95-6.98-5.34-7.62-9.91-15.82-16.74-22.33-8.02-7.66-17.04-13.71-27.2-18.29-12.17-5.48-24.75-9.43-37.94-11.24-30.21-4.14-59.32-.64-86.75,13.33-12.77,6.5-23.42,15.54-31.4,27.55-1.1,1.66-1.91,3.51-2.86,5.26-.39.72-.69,1.65-1.78,1.41-.94-.21-1.25-1.06-1.44-1.88-.11-.47-.07-.99-.02-1.48,1.56-15.78,5.82-30.89,11.34-45.68,6.61-17.71,14.72-34.66,26.39-49.65,14.6-18.77,32.97-32.63,55.32-40.92,10.4-3.86,21.33-5.93,32.06-8.68,10.92-2.8,21.7-5.94,30.58-13.47,7-5.93,12.12-13.24,16.19-21.35,2.66-5.3,5.39-10.53,9.25-15.09,1.25-1.48,2.75-2.65,4.32-3.76,1.37-.97,2.4-.77,3.35.63,1.41,2.08,2.67,4.21,3.45,6.62,1.49,4.59,3.01,9.18,4.57,13.75,1.46,4.26,4.45,7.42,7.89,10.11,3.73,2.93,8.68,2.45,12.42-.65,4.7-3.9,7.28-8.99,8.92-14.71.8-2.8,1.77-5.56,2.62-8.35.69-2.26,1.81-4.3,3.09-6.25,1.43-2.18,2.29-2.33,4.45-.73,4.85,3.57,7.68,8.69,10.51,13.8,1.78,3.2,3.38,6.51,5.16,9.71,7.82,14.08,19.7,22.89,35.1,27.29,10.1,2.89,20.35,5.12,30.49,7.84,23.07,6.2,42.53,18.39,58.7,35.84,8.24,8.9,15.01,18.88,20.77,29.57,9.78,18.17,16.55,37.44,21.45,57.41,1.38,5.6,1.51,11.38,2.57,17.03.22,1.17-.04,2.45-1.31,2.97-1.19.49-1.57-.61-1.97-1.41-6.8-13.37-17.36-23.06-30.13-30.48-16.64-9.66-34.74-14.7-53.81-16.45-23.48-2.16-46.33.49-68.37,9.11-13.42,5.25-25.49,12.6-35.56,23.07-5.59,5.81-9.39,12.92-14.24,19.26-.47.61-.67,1.55-.71,2.35-1.12,19.04-9.73,35.09-20.15,50.41-8.15,11.98-17.26,23.29-25.2,35.42-7.74,11.83-14.27,24.24-18.2,37.91-1.07,3.74-1.4,7.54-1.02,11.38.66,6.73,4.35,11.14,10.59,13.58,6.22,2.43,12.77,3.08,19.33,3.54,14.96,1.04,29.96.69,44.93,1.3,14.36.59,28.54,2.59,41.87,8.41,7.07,3.09,13.44,7.16,18.52,13.22,6.76,8.08,5.66,18.51-2.85,24.65-6.19,4.47-13.27,6.96-20.37,9.32-20.68,6.84-41.79,11.95-63.3,15.43-.81.13-1.64.14-2.47.2Z"/>
      <path id="inner" class="cls-2" d="m29.01,154.56c28-68,68-80,123-93,11.32-2.68,32.06-3.23,62-3,18.9.14,65.27,9.16,104,20,50,14,89.93,78.76,85,85-3.38,4.28-25.3-16.9-60-24-48.77-9.98-109,2-131,43-84-86-176-23-183-28Z"/>
    </g>
  </g>
</svg>