<?xml version="1.0" encoding="UTF-8"?>
<svg id="Layer_2" data-name="Layer 2" xmlns="http://www.w3.org/2000/svg" viewBox="0 0 498.95 238.64">
  <defs>
    <style>
      .cls-1 {
        fill: #374d65;
      }

      .cls-2 {
        fill: #1a1a1a;
      }
    </style>
  </defs>
  <g id="SHARKS">
    <g id="Salmon_Shark">
      <path id="body" class="cls-1" d="m34.98,94.78s29-15,71.94-21.85c18.23-2.91,32.05-2.42,32.05-2.42,4.72,0,9.41-.44,14.1-1.08,7.76-1.06,15.56-1.86,23.31-2.95,6.35-.99,11.49-2.7,14.69-8.69,5.02-7.92,9.25-16.25,12.96-24.86,2.16-5,5.35-9.37,8.61-13.63,4.58-5.98,9.46-11.75,15.12-16.77,2.65-2.35,6.08-2.78,9.44-2.43,2.66.28,3.5,3.2,1.75,5.33,2.4.25,3.09,1.31,2.8,4.53-.08.9-.47,1.73.83,2.12.6.18.85.95.83,1.54-.14,4.14,1.45,8.18.7,12.34-.52,2.87.02,5.85-1.41,8.69-.39.77.17,2.58-.16,3.89-.24.95-.6,1.88-1.03,2.75-.32.65-2.33,1.07-.15,1.91.08.03.16.34.11.39-1.89,1.85-.78,4.42-1.3,6.59-.79,3.32-1.15,7.27,1.09,10.57,1,1.47,1.69,3.04,2.19,4.74,1.31,4.43,3.68,6.97,6.24,8.83,3.16,2.3,6.79,2.23,8.29,2.25,16.34.25,99.56,16.35,112.02,15.98,1.66-.05,2.67-.22,2.67-.22,3.08-.5,4.43-1.45,8.26-2.53,2.95-.83,3.99-.14,4.8,2.85.88,3.26,3.55,5.54,6.85,6.01,7.53,1.07,15.05,2.19,22.57,3.32.78.12,1.34.17,2.05-.44,8.03-6.9,15.47-14.43,23.21-21.63,8.05-7.5,16.81-14.03,26.29-19.63,9.38-5.5,18.33-11.74,27.99-16.76,1.16-.64,2.52-1.29,3.6-.27,1.28,1.2.43,2.7-.41,3.71-4.43,5.36-7.73,11.49-11.85,17.05-11.3,14.74-19.86,30.91-26.18,48.39-2.53,5.44-1.48,11.08-.75,16.63.96,7.33,2.61,14.55,4.8,21.61,1.69,5.45,5.25,9.91,8.46,14.52,1.01,1.53,3.1,3.38,1.62,5.21-1.06,1.16-2.57,1.39-4,.75-2.28-1.02-4.57-2-6.52-3.69-5.05-4.38-10.79-7.94-15.09-13.2-7.17-8.5-12.87-18.13-20.69-26.09-5.06-5.6-8.37-10.85-16.69-11.01-3.97-.17-7.86.11-11.67,1.57-2.32.89-4.84,1.39-7.31,1.7-5.27.66-8.33,3.27-9.27,8.68-.72,4.13-3.29,5.04-7.04,3.3-2.09-.97-4.22-1.25-6.72-.55-7.73,2.16-15.24,5.06-23.17,6.54-4.17.52-7.94,4.46-12.32,3.03-2.49-.89-4.91.56-5.53,3.16-.65,4.18-1.45,7.76-6.49,7.14-3.78-.3-7.55-.93-11.27-1.68-.44-.09-1.64-.37-3.09-.07-.84.18-1.43.47-1.52.52-1.49.71-47.25,18.25-105.72,26.68h0c-14.6,2.31-44.97,6.9-79.43,2.47-31.1-3.99-57.01-14.24-75.91-23.96-5.53-2.93-8.45-7.36-9.79-8.52-.26-.22-.9-.78-.81-1.36.05-.34.42-.67,1.28-1.04,1.69-.72,3.17-1.69,5.15-1.69,1.03,0,1.71-1.28,1.64-2.19-.08-1.14-1.27-.81-2.05-.71-.98.12-1.98.28-2.89.62-5.14,1.95-9.75.73-13.96-2.41-1.8-1.34-2.37-1.48-5.6-3.53-1.54-.98-2.62-1.63-3.45-2.12-2.05-1.21-3.48-2.08-3.76-2.25-2.54-1.51-9.1-6.41-10.13-9.44-1.79-5.26,16.59-16.46,34.86-26.29Z"/>
      <g id="Layer_81" data-name="Layer 81">
        <circle class="cls-1" cx="85.98" cy="145.78" r="3"/>
        <circle class="cls-1" cx="64.98" cy="141.78" r="2"/>
        <circle class="cls-1" cx="92.98" cy="132.78" r="2"/>
        <circle class="cls-1" cx="209.98" cy="150.78" r="2"/>
        <circle class="cls-1" cx="240.98" cy="151.78" r="2"/>
        <circle class="cls-1" cx="252.98" cy="159.78" r="2"/>
        <circle class="cls-1" cx="97.86" cy="159.78" r="2.21"/>
        <circle class="cls-1" cx="152.86" cy="149.78" r="2.21"/>
        <circle class="cls-1" cx="125.86" cy="143.78" r="2.21"/>
        <circle class="cls-1" cx="273.86" cy="148.78" r="2.21"/>
        <circle class="cls-1" cx="165.86" cy="142.78" r="2.91"/>
        <circle class="cls-1" cx="225.86" cy="162.78" r="2.91"/>
      </g>
      <path id="fin" class="cls-1" d="m152.18,157.76c-17.3,10.27,21.64,45.43,30.13,53.22,0,0,20.54,18.84,52.54,26.36,10.11,2.38,11.97.92,12.47.2,1.6-2.33-3.68-7.57-6.79-10.71-8.69-8.77-23.04-23.25-29.02-32-13.04-19.07,3.43-37.9-11.97-40.72-21.28-3.89-36.76-2.65-47.37,3.65Z"/>
      <g id="gills">
        <path class="cls-2" d="m114.62,167.22c-5.06-18.35-3.34-38.03,1.21-56.32-1.8,18.51-3.52,37.82-1.21,56.32h0Z"/>
        <path class="cls-2" d="m123.28,168.85c-5.06-18.35-3.34-38.03,1.21-56.32-1.8,18.51-3.52,37.82-1.21,56.32h0Z"/>
        <path class="cls-2" d="m133.67,170.26c-5.06-18.35-3.34-38.03,1.21-56.32-1.8,18.51-3.52,37.82-1.21,56.32h0Z"/>
        <path class="cls-2" d="m142.34,171.89c-5.06-18.35-3.34-38.03,1.21-56.32-1.8,18.51-3.52,37.82-1.21,56.32h0Z"/>
        <path class="cls-2" d="m106.13,162.82c-4.59-15.12-3.3-31.54.56-46.67-1.1,15.57-2.41,31.1-.56,46.67h0Z"/>
      </g>
      <circle id="eye" class="cls-2" cx="33.98" cy="114.78" r="6"/>
    </g>
  </g>
</svg>