<?xml version="1.0" encoding="UTF-8"?>
<svg id="Layer_2" data-name="Layer 2" xmlns="http://www.w3.org/2000/svg" viewBox="0 0 484.76 322.58">
  <defs>
    <style>
      .cls-1 {
        fill: #8c6239;
      }

      .cls-2 {
        fill: #2e1707;
      }

      .cls-3 {
        fill: #603813;
      }
    </style>
  </defs>
  <g id="UNIQUE_WILDLIFE" data-name="UNIQUE WILDLIFE">
    <g id="Sealion">
      <path id="body" class="cls-3" d="m335.26,84.95c26.65-45.43,50.05-75.99,107.18-76.86,13.28.68,36.58-19.12,41.89.84,5.9,43.37-51.46,52.18-59.88,89.62-6.47,29.71-12.75,59.46-21.06,88.74-8.24,25.31-35.75,49.64,8.25,72.64,5.67,2.97,1.58,13.05-1,15-16.51,10.98-38.97,6.92-55.15-4.72-2.46-1.85-4.92-3.73-6.58-6.4-4.98-3.87-12.25,4.46-16.06,7.81-10.64,12.48-16.69,29.19-32.82,35.92-8.55,4.19-56.95,23.02-58.3,11.15,8.21-13.72,27.12-29.86,26.61-44.96-34.61-4.63-69.25-11.46-104.31-9.96-37.19-1.73-61.36,29.58-93.86,41.28-19.15,9.56-96.02,10.72-47.63-19.32-8.05-.05-16.45.56-22.37-7.01-2.12-7.57,16.21-13.52,22.36-15.49,23.12-7.38,53.71,3.18,70.49-18.63,65.23-116.33,186.09-44.09,242.27-159.68l-.02.02Z"/>
      <path id="belly" class="cls-1" d="m395.79,280.76c-1.46-5.78-4.56-11.01-7.57-16.08-1.04-1.76-17.78-29-44.64-26.72-4.56.39-19.71,1.67-29.76,16.26-9.16,13.29-11.06,33.23-7.45,49.86,11.61-7.97,17.36-21.76,26.48-32.45,3.81-3.35,11.08-11.67,16.06-7.81,1.66,2.67,4.12,4.55,6.58,6.4,11.7,8.41,26.67,12.86,40.3,10.54Z"/>
      <path id="nose" class="cls-1" d="m475.91,14.84c2.24-.17,5.35-.97,7.86-2.49.28-.85.5-1.73.66-2.64-.03-.26-.05-.52-.09-.78C482.51,2.08,478.57-.08,473.64,0c-3.53,4.18-5.2,11.36-3.03,13.82,1.17,1.33,3.34,1.16,5.29,1.02Z"/>
      <g id="beard">
        <path class="cls-2" d="m472.77,14.5c-1.03,3.02-2.38,5.72-3.76,8.55-3.08,6.98-3.99,14.94-2.06,22.35.08,1.55.28,3.11.5,4.72-.96-1.31-1.74-2.73-2.44-4.22-2.04-7.83-1.08-16.28,2.17-23.65,1.2-3.03,2.97-5.77,5.59-7.75h0Z"/>
        <path class="cls-2" d="m471.55,14.01c-1.68,2.71-3.6,5.04-5.57,7.49-4.56,6.12-7.24,13.67-7.01,21.33-.27,1.53-.42,3.1-.57,4.71-.64-1.49-1.09-3.05-1.43-4.66-.24-8.09,2.59-16.11,7.4-22.56,1.85-2.69,4.18-4.96,7.18-6.3h0Z"/>
        <path class="cls-2" d="m469.93,13.34c-2.25,2.26-4.64,4.1-7.12,6.04-5.82,4.93-10.13,11.68-11.64,19.19-.61,1.43-1.11,2.92-1.62,4.46-.29-1.59-.37-3.22-.34-4.86,1.59-7.94,6.16-15.11,12.3-20.31,2.4-2.2,5.19-3.88,8.42-4.52h0Z"/>
        <path class="cls-2" d="m469.99,11.81c-2.75,1.62-5.53,2.79-8.42,4.04-6.88,3.29-12.77,8.73-16.13,15.61-.95,1.23-1.81,2.54-2.7,3.9.12-1.62.46-3.21.9-4.79,3.55-7.27,9.79-13.06,17.05-16.52,2.89-1.52,6.01-2.44,9.29-2.24h0Z"/>
      </g>
      <path id="eye" class="cls-2" d="m418.85,22.09c-3.7,1.1-7.89,4.35-7.35,6.82.58,2.62,6.51,4.4,10.91,2.58,3.56-1.48,6.7-5.56,5.72-7.91-.99-2.39-6.01-2.47-9.28-1.49Z"/>
    </g>
  </g>
</svg>