<?xml version="1.0" encoding="UTF-8"?>
<svg id="Layer_2" data-name="Layer 2" xmlns="http://www.w3.org/2000/svg" viewBox="0 0 323.34 435.32">
  <defs>
    <style>
      .cls-1 {
        fill: #17152a;
      }

      .cls-2 {
        fill: #374d65;
      }
    </style>
  </defs>
  <g id="SHARKS">
    <g id="SHARKS-2" data-name="SHARKS">
      <path id="tooth" class="cls-2" d="m319.43,53.24c-.49,22.53-10.56,46.1.78,67.32,17.94,19.33-46.51,41.15-56.63,115.88-18.53,66.26-37.27,135.41-74.08,194.08-19.86,28.58-79.36-78.48-86.24-102.78-20.51-58.83-21.45-131.74-72.46-173.52-39.85-30.84-12.99-20.62-29.61-54.65-5.64-11.54,10.78-25.37,10.9-39.53-1.29-5.41-5.77-12.31-.2-17.11,7.19-8.99,4.66-22.15,10.02-32.04,6.9-20.45,26.44-5.57,42.05-6.78,15.61-1.21,28.89,3.83,45.01,11.12,13.02,5.9,26.07,11.5,36.92,20.74,9.2,9.43,18.32-2.17,28.36.36,50.05,4.53,42.42-12.93,79.18-26.21,8.73-3.93,17.45,2.18,22.19,5.93,3.98,3.16-.43,5.64,17.05,3.12,17.48-2.52,27.34,16.54,26.77,34.07Z"/>
      <path class="cls-1" d="m319.43,53.24c.57-17.53-9.29-36.58-26.77-34.07-17.48,2.52-13.07.03-17.05-3.12-4.74-3.76-13.47-9.86-22.19-5.93-36.76,13.28-29.12,30.74-79.18,26.21-10.04-2.53-19.16,9.07-28.36-.36-10.85-9.25-23.9-14.84-36.92-20.74-16.11-7.3-29.39-12.33-45.01-11.12-15.61,1.21-35.15-13.67-42.05,6.78-5.36,9.89-2.83,23.04-10.02,32.04-5.58,4.8-1.09,11.7.2,17.11-.12,14.16-16.54,27.99-10.9,39.53,14.92,30.54-5.17,25.44,19.35,46.37,10.04,1.61,19.92-1.86,40.02,5.07,13.13,4.53,12.33,7.19,21,9,15.77,3.3,25.98-3.92,56-16,23.12-9.31,34.69-13.96,44-15,29.1-3.25,55.99,7.19,58,8,12.48,4.99,13.24,7.84,22,9,13.25,1.75,19.99-3.65,43-11,7.04-2.25,12.99-4.14,18.67-5.64.48-3.09-.37-5.98-3-8.81-11.34-21.22-1.27-44.78-.78-67.32Z"/>
    </g>
  </g>
</svg>