<?xml version="1.0" encoding="UTF-8"?>
<svg id="Layer_2" data-name="Layer 2" xmlns="http://www.w3.org/2000/svg" viewBox="0 0 500 165.18">
  <defs>
    <style>
      .cls-1 {
        fill: #f2f2f2;
      }

      .cls-2 {
        fill: #ebdcc5;
      }

      .cls-3 {
        fill: gray;
      }

      .cls-4 {
        fill: #4d4d4d;
      }
    </style>
  </defs>
  <g id="WHALES">
    <g id="Southern_Right_Whale">
      <g id="body">
        <path class="cls-4" d="m226.78,4.18c61.91-12.87,126.51,5.61,181.88,33.4,17.79,5.61,28.63,21.94,43.05,30.98,8.62.84,16.96,2.9,25.05,5.73,2.35.64,3.7,1.54,2.46,4.93-5.01,13.74,10.34,25.1,19.11,33.55,10.62,16.17-32.61-10.05-35.77-13.11-53.05-39.9-122.12-7.51-180.38,3.27-26.76,5.11-53.94,8.23-81.08,9.74-3.36-.15-1.95,2.13-1.46,3.78,5.11,14.62,0,29-9.7,40.45-2.57,3.86-4.37,11.07-10.28,7.16-13.23-12.68-25.32-27.52-30.84-45.21-2.41-8.28-7.22-10.2-14.27-11.08-39.7-6.6-76.03-25.09-113.98-37.72C12.9,66.73-2.07,61.93.24,52.1c5.18-6.33.8-16.65,9.86-20.46,15.37-9.05,33.95-6.95,49.83-13.09,10.52.99,18.03-9.82,29.15-6.17,3.51.76,7.2.36,10.77-.92,8.67-3.54,17.45.89,26.29.36,30.27-.19,60.78-3.73,90.72-6.19"/>
      </g>
      <g id="eye">
        <ellipse class="cls-3" cx="95.5" cy="66.19" rx="3.5" ry="3"/>
      </g>
      <path id="belly" class="cls-1" d="m334,71.19c-3.49,4.11-1.94,8.8-5,10-1.75.68-3.13-.5-12-6-7.79-4.83-8.69-5.13-10-7-3.34-4.77-1.38-8.28-4-10-3.92-2.58-14.07,1.52-16,8-2.21,7.41,7.73,13.16,5,19-1.99,4.26-9.66,6.32-14,4-3.56-1.91-2.84-5.69-6-7-4.77-1.97-13.75,3.61-14,9-.31,6.6,12.53,11.64,16,13,0,0,.13.05.4.14,2.6-.46,5.19-.92,7.78-1.41,20.46-3.79,42.26-10.24,64.23-15.29.2-.15.39-.29.59-.44,1.51-1.16,4.07-3.43,6-7,.96-1.77,4.12-7.63,2-11-2.94-4.67-15.78-4.16-21,2Z"/>
      <g id="chin">
        <path class="cls-3" d="m97.82,98.53c-1.32-4.71-3.73-9.87-5.82-14.34-10.07-21.52-33.12-40.44-61-40-1.65.03-21,.49-29.84,6.57-.27.46-.57.91-.93,1.34-2.31,9.83,12.66,14.64,20.34,17.95,25.98,8.65,51.19,20.04,77.25,28.48Z"/>
      </g>
      <g id="barnacle_3" data-name="barnacle 3">
        <path class="cls-2" d="m23.67,48.93c1.32,3.47-1.71,9.52-6.63,11.04-4.88,1.51-10.89-1.66-11.04-4.42-.1-1.78,2.24-3.77,4.42-4.42,2.93-.87,2.09-3.36,4.42-4.42,2.62-1.18,4.98-.05,6.63,0,1.02.03,1.87,1.31,2.21,2.21Z"/>
      </g>
      <g id="barnacle_2" data-name="barnacle 2">
        <path class="cls-2" d="m54.41,20.99c-.79-1.93,8.31-5.88,8.74-6.06,8.98-3.84,20.41-4.69,21.37-2.67.75,1.58-4.99,4.73-7.4,5.89-9.39,4.54-21.85,4.93-22.71,2.83Z"/>
      </g>
      <g id="barnacle_1" data-name="barnacle 1">
        <path class="cls-2" d="m15,29.19c-.5-1.36,2.96-3.87,5-5,.32-.18,6.44-3.44,13-1,1.35.5,2.97,1.11,3,2,.06,2.11-8.89,3.79-10,4-1.98.37-10.29,1.93-11,0Z"/>
      </g>
    </g>
  </g>
</svg>