<?xml version="1.0" encoding="UTF-8"?>
<svg id="Layer_2" data-name="Layer 2" xmlns="http://www.w3.org/2000/svg" viewBox="0 0 499.44 261.73">
  <defs>
    <style>
      .cls-1 {
        fill: #666;
      }

      .cls-2 {
        fill: #333;
      }

      .cls-3 {
        fill: #4d4d4d;
      }
    </style>
  </defs>
  <g id="WHALES">
    <g id="Sperm_Whale">
      <path class="cls-3" d="m499.15,59.74c-.02-.09-.03-.18-.05-.26-4.95,1.32-9.12,4.03-14.86,4.97-.12.02-.23.05-.35.07-4.4.65-7.71,1.01-11.26.45-.51-.08-1.02-.18-1.54-.3-1.39-.32-2.85-.78-4.44-1.42-.68-.27-1.3-.59-1.93-.91-3.58-1.82-6.5-4.32-9.53-6.75-2.14-1.71-4.34-3.38-6.88-4.73-5.61-2.98-11.25-2.58-17.23-3.05-1.94-4.42-4.99-7.44-8.57-9.79-8.64-5.68-22.16-3.57-27.3-14.93,0,0,0,0,0,0-.22-.24-.43-.51-.64-.76-.15-.18-.3-.34-.44-.53-.1-.12-.18-.26-.28-.39-.24-.33-.49-.66-.71-1.01-.03-.04-.05-.09-.08-.13-1.21-1.92-2.17-4.15-2.78-6.8,0-.02,0-.04-.01-.06-.07-.32-.12-.65-.17-.97-.22-1.52-.36-3.61-.68-5.65-.01-.08-.02-.16-.03-.24-.04-.24-.09-.47-.13-.7-.01-.07-.03-.14-.04-.21-.08-.4-.17-.77-.26-1.1-.14-.52-.29-1.02-.48-1.49-.57-1.38-1.38-2.44-2.58-2.83-5.43-1.77-8.61,8.51-9.39,12.28-2.99,14.41.87,30.45,10.52,41.57,5.86,6.78,21.21,11.83,21.77,19.13.56,7.25-7.19,13.28-10.92,18.87-4.63,6.95-9.01,14.02-15.59,19.34-19.7,15.94-42.29,24.44-66.48,27-2.79.3-5.62.53-8.46.66-11.11.55-22.04.75-32.92.6-17-.24-33.88-1.36-51.13-3.55-16.41-2.07-32.53-3.88-49.01-5.17-1.4-.11-2.78-.24-4.18-.34-2.36-.17-4.72-.41-7.06-.69-16.43-2-32.56-6.39-49.13-7.89-22.26-1.99-44.25-5.39-66.6-7.16-.99-.08-1.98-.15-2.97-.22-5.07-.36-10.08-.47-14.94.96-.26.08-.52.13-.78.22-4.79,1.6-9.02,5.51-12.63,10.1-3.56,4.5-6.52,9.65-8.87,13.79-2.05,3.64-3.65,7.86-4.83,12.39-.94,3.61-1.59,7.4-1.95,11.3-.2,2.24-.33,4.51-.34,6.78,0,0,0,0,0,0,0,0,0,0,0,0-.01,1.24.02,2.48.07,3.72,0,0,0,0,0,0,.48,10.35,3.11,20.52,8.14,28.26.72,1.11,1.49,2.17,2.3,3.17,11.16,13.71,27.39,18.9,44.42,19.94,14.5.88,29.12-.92,43.52.84,3.5.43,6.89.99,10.33,1.81,4.8,1.13,8.43,2.75,12.58,5.27-.66.92-2.27,1.39-3.32,1.91-.79.39-1.64.74-2.51,1.05-.28.1-.56.19-.85.28-.7.24-1.41.47-2.13.67,0,0,0,0,.01,0,0,0,0,0,0,0-1.46.41-2.92.76-4.32,1.07-4.63,1.03-9.34,1.89-14.08,2.63-.43.07-.85.14-1.28.21-4.98.75-9.98,1.36-14.93,1.86-5.02.5-9.99,1-14.99,1.66-.95.12-1.92.21-2.88.34-.03,0-.07,0-.1.01-.94.12-1.88.27-2.8.51-.07.02-.17.04-.29.06-.07.01-.15.03-.22.04-.89.16-2.41.4-2.84.79-.76.72-1.19,1.39-1.38,2.04-.02.06-.04.11-.06.17-.78,3.25,4.7,5.53,7.63,6.35,6.56,1.85,13.74.7,20.27-.63,7.54-1.54,15.14-2.58,22.65-4.19,5.12-1.09,10.38-1.67,15.59-2.19,3.41-.34,6.82-.86,10.26-.9,2.96-.03,5.28-.8,8.17-1.16,7.02-.86,13.93,1.5,20.95,1.39,7.38-.1,14.53.84,21.9,1.22,8.17.42,16.36.21,24.55-.3,1.06-.07,2.12-.15,3.18-.23,7.1,6.48,16.66,10.54,25.95,12.01,6.03.96,11.83,1.96,17.98,1.88,5.08-.06,10.2-.47,15.29-.97,2.6-.25,5.2-.52,7.79-.78,4.17-.42,8.02-.67,12.02-1.95,2.36-.76,5.39-1.27,7.41-2.62,2.11-1.41.74-4.11-.79-5.51-1.25-1.13-2.98-1.45-4.62-1.9-2.57-.72-4.9-1.55-7.34-2.56,0,0,0,0,0,0,0,0,0,0,0,0-.31-.13-.64-.26-.96-.4-4.12-1.74-8.33-3.3-12.06-5.79,2.55-.4,5.11-.76,7.7-1.02,6.15-1.65,8.69-3.12,12.41-5.04,5.42-2.8,10.67-5.31,16.18-8.26,1.11-.59,2.21-1.17,3.34-1.81,1.19-.67,2.35-1.33,3.5-2,1.51-.87,3-1.74,4.47-2.63.28-.17.56-.33.83-.49,2.33-1.42,4.6-2.87,6.84-4.36.73-.49,1.45-.98,2.17-1.48,5.04-3.49,9.89-7.3,14.73-11.8.93-.87,1.85-1.75,2.77-2.64,4.1-3.93,8.12-7.96,12.16-11.94,1.11-1.1,2.23-2.2,3.35-3.28,1.81-1.75,4.59-3.93,6.87-5.93.48-.42.92-.83,1.35-1.23.24-.23.49-.47.71-.69,8.86-9.08,12.5-13.39,16.3-18.25.02-.03.04-.05.06-.08,1.72-2.2,3.47-4.51,5.77-7.44,4.18-5.33,7.05-12.14,9.89-18.4.35-.78.71-1.55,1.06-2.31,5.1-10.87,10.67-20.98,13.74-32.64.72-2.72.65-1.19,2.3-8.13,2.65-7.95,1.09-9,2.37-10.47s1.99-.72,3.27-.65c4.03.24,9.39,3.22,11.85,3.84,21.15,5.34,39.89,11.11,55.49-1.43,2.05-1.65,4.38-4.07,6.25-6.84.32-.47.62-.94.9-1.43,2-3.39,3.18-7.18,2.32-10.67Z"/>
      <path class="cls-1" d="m204.37,248.05c1.01-.06,2.03-.14,3.04-.22-10.53-8.51-29.01-19.45-61.42-31.36-72.59-26.68-128.71-5.79-129.86-5.35,10.66,9.4,24.44,13.25,38.81,14.13,14.5.88,29.12-.92,43.52.84,3.5.43,6.89.99,10.33,1.81,4.8,1.13,8.43,2.75,12.58,5.27-.66.92-2.27,1.39-3.32,1.91-.79.39-1.64.74-2.51,1.05-.28.1-.56.19-.85.28-.7.24-1.41.47-2.13.67,0,0,0,0,.01,0,0,0,0,0,0,0-1.46.41-2.92.76-4.32,1.07-4.63,1.03-9.34,1.89-14.08,2.63-.43.07-.85.14-1.28.21-4.98.75-9.98,1.36-14.93,1.86-5.02.5-9.99,1-14.99,1.66-.95.12-1.92.21-2.88.34-.03,0-.07,0-.1.01-.94.12-1.88.27-2.8.51-.07.02-.17.04-.29.06-.07.01-.15.03-.22.04-.89.16-2.41.4-2.84.79-.76.72-1.19,1.39-1.38,2.04-.02.06-.04.11-.06.17-.78,3.25,4.7,5.53,7.63,6.35,6.56,1.85,13.74.7,20.27-.63,7.54-1.54,15.14-2.58,22.65-4.19,5.12-1.09,10.38-1.67,15.59-2.19,3.41-.34,6.82-.86,10.26-.9,2.96-.03,5.28-.8,8.17-1.16,7.02-.86,13.93,1.5,20.95,1.39,7.38-.1,14.53.84,21.9,1.22,8.17.42,16.36.21,24.55-.3Z"/>
      <path class="cls-2" d="m145.73,202.86c-1.07,2.56-3.07,3.66-4.73,4.46-1.57.75-3.41,1.33-4.95-.87-.54-.77-.69-2.43-.33-3.29.94-2.23,2.79-3.24,4.18-4.26,1.64-1.2,3.12-2.47,5.01-.95.98.79,1.39,3.53.82,4.91Z"/>
    </g>
  </g>
</svg>