<?xml version="1.0" encoding="UTF-8"?>
<svg id="Layer_2" data-name="Layer 2" xmlns="http://www.w3.org/2000/svg" viewBox="0 0 392.73 438">
  <defs>
    <style>
      .cls-1 {
        fill: #666;
      }

      .cls-2 {
        fill: #333;
      }
    </style>
  </defs>
  <g id="RAYS">
    <g id="Stingray">
      <path id="body" class="cls-1" d="m265.18,250.66c-.02.09,1.17.38,3.22,1.33.89.41,1.3.65,1.61,1.11.5.73.46,1.62.34,2.35-.97,5.86-4.79,10.81-4.79,10.81-3.31,4.27-6.65,6.83-7.65,7.57-5.27,3.92-10.16,5.49-11.81,5.98-2.72.8-10.18,3.01-13.91.38-.29-.2-.76-.58-1.54-.82-3.11-.95-6.44,1.84-6.58,1.96-.3.25-.49.45-.56.52-3.7,3.76-11.2,5.58-11.2,5.58-11.2,4.51-22.42,7.91-35.52,11.01-8.15,1.93-14.51,3.14-18.52,3.9-9.59,1.82-17.28,2.96-21.28,3.55-2.38.35-5.18.76-8.94,1.24,0,0-8.1,1.03-16.14,1.71-22.65,1.91-39.69,1.24-39.69,1.24-13.17-.52-20.06-1.79-32.27-4.04-5.95-1.09-12.14-2.44-17.95-7.25-.98-.81-4.37-3.72-7.63-9.41-2.37-4.14-4.24-8.99-6.34-25.7,0,0-2.02-16.07-2.62-34.29-.18-5.5-.25-11.34-.25-11.34-.02-1.99-.03-3.44-.03-4.45-.05-10.76-.09-18.9-.24-27.2-.04-2.22-.1-4.61-.21-9.39-.35-14.49-.56-22.91-1.04-33.56-.44-9.91-.67-14.87-.97-16.74-1.04-6.38-.61-13.02-2.38-19.24-.14-.51-.62-2.08.05-3.63.62-1.42,1.91-2.12,2.28-2.33,8.03-4.49,14.56-11.46,22.83-15.5,1.29-.63,10.72-7.5,29.56-21.24,9.85-7.18,12.72-9.38,28.97-21.22,8.75-6.38,13.12-9.57,16.01-11.61,10.58-7.47,18.03-12.09,32.92-21.33,0,0,10.57-6.56,22.35-9.7,1.44-.38,3.64-.91,6.51-.92,4.82-.02,8.9,1.42,12.44,3.21,15.03,7.61,27.31,20.96,27.31,20.96,9.06,9.85,17.37,18.89,28.42,34.25,3.09,4.3,12.67,17.82,23.26,36.78,6.45,11.55,10.37,20.26,18.23,37.67,0,0,3.4,7.55,7.8,24.16.78,2.95,2.09,8.27,1,14.85-.3,1.8-.49,2.4-.49,2.4,0,0,16.79,5.91,14.49,21.49-5.25,35.6-22.61,26.77-22.61,26.77,0,0,5.38,4.92,36.72,22.48,0,0,12.3,6.89,27.11,17.14,1.46,1.01,4.07,2.85,7.23,5.43,1.37,1.12,4.17,3.46,7.47,6.68,6.17,6.02,10.22,11.33,11.07,12.45,5.3,7.01,8.84,14.4,15.94,29.17,1.73,3.61,2.31,4.94,2.86,6.32,2.75,6.94,3.84,12.77,4.99,19.1.81,4.48,1.24,7.79,1.63,10.83.86,6.66,1.28,12,1.77,18.15.33,4.12.5,6.33.68,9.6.41,7.52.32,10.92.86,17.64.27,3.39.59,6.15.66,6.74.29,2.48.47,3.67.68,5.29.57,4.49.34,4.82.86,10.35.28,2.99.86,8.32.44,12.25-.06.6-.26,2.19-1.33,3.73-.35.51-.87,1.26-1.77,1.71-1.74.87-3.71.03-4.31-.23-3.59-1.53-4.9-5.93-5.36-7.53-1.15-4.08-.54-7.15.18-12.04.73-4.92,1.11-9.9,1.74-14.83,1.24-9.71,1-17.23.77-24.42-.17-5.38-.45-13.05-2.12-22.47-1.27-7.15-3.82-20.85-12.26-36.51-7.22-13.39-15.4-22-17.9-24.54-3.03-3.08-6.31-5.99-7.47-7.02-2.21-1.95-8.34-7.34-15.8-12.4-8.37-5.67-15.13-8.7-24.68-12.97-4.2-1.88-7.11-3.04-9.48-3.91-3.63-1.33-4.84-1.52-8.9-3.06-4.75-1.8-4.5-2.03-7.35-2.97-6.2-2.05-11.34-2.24-11.37-2.06Z"/>
      <g id="eyes">
        <path class="cls-2" d="m53.35,151.26c.44,4.27,1.48,8.57,5.06,11.74,1.7,1.5,3.77,2.44,6.07,2.47,3.73.04,7.06-1.23,10.02-3.47.56-.42,1.48-.84,1.27-1.58-.28-.97-1.33-.59-2.06-.54-4.73.27-9.1-.65-12.93-3.62-2.15-1.67-3.51-4.06-5.47-5.91-.37-.35-.64-.99-1.22-.84-.73.18-.53.95-.74,1.76Z"/>
        <path class="cls-2" d="m94.73,120.22c-.25-4.29-1.09-8.62-4.53-11.95-1.63-1.58-3.66-2.61-5.95-2.74-3.72-.21-7.11.91-10.17,3.02-.57.4-1.52.77-1.34,1.52.24.98,1.3.64,2.04.64,4.74-.06,9.06,1.06,12.75,4.2,2.08,1.77,3.33,4.22,5.2,6.15.36.37.59,1.01,1.18.9.74-.15.57-.93.82-1.73Z"/>
      </g>
      <g id="back">
        <path class="cls-2" d="m116.78,150c4.36-6.26,69.04,38.14,74,41,26,15,66.97,35.63,65,40-2.16,4.79-42.82-17-74-36-25.93-15.8-67.9-40.84-65-45Z"/>
      </g>
      <g id="left_wing" data-name="left wing">
        <path class="cls-2" d="m158.78,291c-98.32,9.89-126,7.45-137-9-1.71-2.56-2.37-4.48-5-20-9.68-57.05-9.36-81.38-12.2-89.61.04,1.48.07,3.02.11,4.64.12,4.78.17,7.17.21,9.39.15,8.3.19,16.45.24,27.2,0,1.01.01,2.46.03,4.45,0,0,.07,5.84.25,11.34.6,18.21,2.62,34.29,2.62,34.29,2.1,16.71,3.97,21.56,6.34,25.7,3.26,5.69,6.65,8.6,7.63,9.41,5.81,4.8,12,6.15,17.95,7.25,12.21,2.25,19.09,3.51,32.27,4.04,0,0,17.04.68,39.69-1.24,8.04-.68,16.14-1.71,16.14-1.71,3.76-.48,6.56-.89,8.94-1.24,4.01-.59,11.69-1.73,21.28-3.55,4.02-.76,10.37-1.97,18.52-3.9,13.1-3.1,24.31-6.5,35.52-11.01,0,0,3.87-.94,7.43-2.87-11.2.9-29.88,3.3-60.98,6.43Z"/>
      </g>
      <path id="right_wing" data-name="right wing" class="cls-2" d="m276.45,147.25c-2.97-9.8-5.03-14.38-5.03-14.38-7.85-17.42-11.78-26.13-18.23-37.67-10.59-18.96-20.17-32.48-23.26-36.78-11.05-15.37-19.36-24.4-28.42-34.25,0,0-12.28-13.35-27.31-20.96C170.67,1.42,166.59-.02,161.77,0c-2.86.01-5.07.54-6.51.92-11.78,3.14-22.35,9.7-22.35,9.7-14.89,9.24-22.33,13.86-32.92,21.33-2.89,2.04-7.26,5.23-16.01,11.61-12.52,9.13-17.1,12.53-23.05,16.9,13.3-.38,45.94-16.52,67.84-30.46,12.96-8.25,19.72-14.18,31-14,7.95.13,18.47,3.29,40,26,17.17,18.11,26.52,33.04,50,68,14.6,21.74,22.17,32.62,26.68,37.25Z"/>
    </g>
  </g>
</svg>