<?xml version="1.0" encoding="UTF-8"?>
<svg id="Layer_2" data-name="Layer 2" xmlns="http://www.w3.org/2000/svg" viewBox="0 0 481.6 226.55">
  <defs>
    <style>
      .cls-1 {
        fill: #a67c52;
      }

      .cls-2 {
        fill: #dd9c67;
      }

      .cls-3 {
        fill: #42210b;
      }

      .cls-4 {
        fill: #2e1707;
      }
    </style>
  </defs>
  <g id="UNIQUE_WILDLIFE" data-name="UNIQUE WILDLIFE">
    <g id="Swimming_Pig">
      <path id="body" class="cls-2" d="m472.44,99c6,0,4,12-8,10-35-7-57.04,12.39-74.66,19.49-12.25,7.95-30.14,17-46.94,19.12-9.11,19.23-5.68,46.78,5.08,66.49,19.68,15.43-24.1,16.3-25.02,3.19,1.81-7.85-3.39-2.69-7.28-6.25-3.79-15.59-2.98-32.41-10.17-47.77-5.86-18.54-9.8,16.01-12.72,23.41-5.93,14.53,7.55,25.11,11.05,37.79-20.7,6.63-27.7-3.7-38.92-15.16-3.94-15.8,10.75-50.34-6.28-56.62-28.77,13.59-80.16,17.76-114.26,2.24-3.68.89-13.69-5.63-13.57-.71-3.29,16.37-12.61,36.91.47,52.76,16.7,21.5,6.52,18.46-14.63,18.91-14.09-16.25-16.71-30.5-18.64-52.75-13.08-36.33-12.03-37.05-30.73-.77-6.9,18.34,21.7,39.71,18.23,52.7-35.17,5.85-19.05-9.23-37.81-14.29-9.26-4.39-1.32-18.54-4.94-26.32-3.86-5.43-5.56-11.38-8.58-17.25,4.26-14.51,15.37-26.23,4.51-41.44-7.35-19.72-10.47-43.78-5.14-64.73-11.36.25-36.34-.05-33.23-20.16-4.43-36.69,64.93-10.86,26.87-7.68-20.79-3.08-10.53,21.08,5.48,9.46,14.53-10.73,26.52-25.84,44.71-31.69C114.21-4.32,154.73.42,194.84,1.71c64.6,4.21,129.2,13.29,192.02,26.86,9.57-.96,21.49-33.38,30.19-15.93,14.59-3.51,17.93,14.46,14.99,27.45-2.49,6.64-5.6,14.91-.6,18.91s8,18,48,24c4.67.56,1,15-4,15"/>
      <path id="nose" class="cls-1" d="m476.04,96.23c-1.01,4.15,1.52,2.82,2.75,1.29,1.23-1.53,3.85-11.72,2.22-14.3-.6-.95-1.71-1.77-2.75-1.29-1.01,4.15-1.21,10.15-2.22,14.3Z"/>
      <g id="dots">
        <circle class="cls-4" cx="418.44" cy="72" r="5"/>
        <path class="cls-3" d="m149.44,28c7,12,31.6-2,17.3-21-1.96-2.61-4.26-4.82-6.77-6.7-14.21-.47-28.33-.51-42.16.92-3.21,8.86-13.69,15.62-5.37,25.79,9,11,19.13,12,23,5,3.87-7,7-16,14-4Z"/>
        <path class="cls-3" d="m234.2,15.36c8.1-6.8,22.48-7.37,27-.36,2.73,4.23,1.5,10.63-1.46,14.6-7.58,10.15-28.87,7.53-32.11,0-1.99-4.63,2.84-11.11,6.57-14.23Z"/>
        <path class="cls-3" d="m155.2,55.36c8.1-6.8,22.48-7.37,27-.36,2.73,4.23,1.5,10.63-1.46,14.6-7.58,10.15-28.87,7.53-32.11,0-1.99-4.63,2.84-11.11,6.57-14.23Z"/>
        <path class="cls-3" d="m267.05,53.68c5.31-4.66,14.72-5.05,17.68-.25,1.79,2.9.98,7.29-.96,10.01-4.96,6.95-18.91,5.16-21.03,0-1.3-3.17,1.86-7.61,4.3-9.76Z"/>
        <path class="cls-3" d="m364.05,44.68c5.31-4.66,14.72-5.05,17.68-.25,1.79,2.9.98,7.29-.96,10.01-4.96,6.95-18.91,5.16-21.03,0-1.3-3.17,1.86-7.61,4.3-9.76Z"/>
        <path class="cls-3" d="m80.75,15.43c2.12,5.16,16.07,6.95,21.03,0,1.94-2.72,2.74-7.11.96-10.01-.41-.66-.95-1.22-1.58-1.68-6.43,1.32-12.78,3.08-19.03,5.36-1.32,2.05-2.16,4.42-1.38,6.33Z"/>
        <path class="cls-3" d="m91.77,47.77c-.52,9.43-8.93,17.29-16.27,14.21-4.43-1.86-7.85-7.44-8.62-12.03-1.98-11.75,12.74-20.71,19.63-16.56,4.23,2.55,5.5,10.05,5.26,14.38Z"/>
        <path class="cls-3" d="m194.84,1.71c-1.71-.06-3.43-.12-5.14-.18-.02.79.03,1.6.17,2.42.77,4.59,4.2,10.17,8.62,12.03,6.97,2.93,14.9-4.02,16.13-12.81-6.59-.53-13.19-1.02-19.78-1.45Z"/>
        <path class="cls-3" d="m348.19,49.41c6.04-4.3,4.59-20.06-2.86-28.39-.26-.29-.53-.57-.81-.85-14.44-2.63-28.95-5.02-43.52-7.17-9.33,2.88-16.01,8.58-15.2,16.84,1.17,11.89,17.97,30.29,26.27,30.99,6.21.52,3.59-9.22,12.14-12.53,9.13-3.54,18.23,5.19,23.98,1.11Z"/>
      </g>
    </g>
  </g>
</svg>