<?xml version="1.0" encoding="UTF-8"?>
<svg id="Layer_2" data-name="Layer 2" xmlns="http://www.w3.org/2000/svg" viewBox="0 0 496.18 156.47">
  <defs>
    <style>
      .cls-1 {
        fill: #e6e6e6;
      }

      .cls-2 {
        fill: #1a1a1a;
      }

      .cls-3 {
        fill: #464d52;
      }
    </style>
  </defs>
  <g id="SHARKS">
    <g id="Thresher_Shark">
      <path id="body" class="cls-3" d="m202.18,112.28s31-4,52-4c3.89,0,7.4-.28,7.4-.28,1.26-.02,2.62,0,4.08.07,4.7.22,8.58.88,11.29,1.47,7.71,9.95,10.37,24.02,19.95,32.5,11.12,5.91-.94-33.32,5.77-39.52,5.46-8.66,12.57-16.2,20.03-23.01,39.73-33.89,89.42-54.69,139.22-68.83,4.28-.25,17.36-5.85,18.04-2.68.29,1.19-.14,5.47,2.03,3.3,3.05-3.41,6.84-6.71,11.46-6.96.99-.28,2.47-.16,2.71-1.45-4.45-5.79-23.5-1.18-30.32-.7-67.63,10.84-134.73,37.92-185.93,84.23-16.45,3.69-33.95-4.29-50.19-7.61-2.75-.73-2.43-4.05-3.33-6.21-1.48-3.28-5.26,1.96-7.03,3.11-8.61.69-18.58-4.1-27.5-5.79-10.02-2.95-21.64-1.24-27.92-11.61-7.71-7.66-.15-47.09-16.53-22.12-12.36,18.63-6.26,25.1-31.06,26.8-28.67,1.96-41.1,1.78-50.19,3.3-18,3-33,7-46,13-10.59,4.89-18,11-20,15s12.86,12.47,21.4,15.29c3.6-.29-.4,2.71,1.05,5.34,25.39,6.45,46.99,7.27,63.54,9.37,36.04,4.58,42,0,82-4,3.51-.35,16.49-3.06,34-8Z"/>
      <path class="cls-1" d="m255.5,108.27s.04,0,.06,0c.41,0,.82-.02,1.21-.03.03,0,.06,0,.09,0,.39-.01.77-.02,1.13-.04.02,0,.04,0,.06,0,.37-.01.72-.03,1.05-.05-5.66-.42-12.39-.77-19.92-.87-59.37-.78-93.88,15.15-143,12-13.38-.86-24.88-1.59-39-7-10.33-3.96-15.39-7.86-27-11-11.4-3.09-21.42-3.36-28.42-3.03,3.93,4.15,13.57,9.25,19.83,11.31.6,1.71-.4,2.71,1.05,5.34,25.39,6.45,47.21,10.03,63.77,12.13,36.04,4.58,50.79.38,86.77-4.76,14-2,12.49-2.06,30-7,0,0,30-7,51-7,.44,0,.87,0,1.3-.01,0,0,.01,0,.02,0Z"/>
      <path id="fin" class="cls-3" d="m69.62,126.97c5.72,9.93,6.78,11.21,7.02,11.54,0,0,6.45,10.43,17.78,16.5,1.36.73,2.78,1.12,4.2,1.39,1.09.21,2.05-.02,2.55-1.19.48-1.13-.06-2.17-.7-3.17-3.71-5.83-6.75-12.05-8.87-18.76-1.22-3.88-1.89-7.08-2.45-10.64-.34-2.17-.91-5.9-.93-10.74-.04-7.19,1.6-8.59.11-9.25-7.44-3.29-18.87.5-25.47,6.14-1.2,1.02.15,3.26,1.11,6.54,1.27,4.34,3.11,7.22,5.66,11.63Z"/>
      <g id="gills">
        <path class="cls-2" d="m50.18,112.72c-1.32-2.91-1.49-6.23-1.09-9.37.45-3.14,1.44-6.18,3.14-8.87-.08,1.6-.3,3.13-.52,4.64-.66,4.19-1.28,9.35-1.54,13.59h0Z"/>
        <path class="cls-2" d="m53.9,113.77c-1.32-2.91-1.49-6.23-1.09-9.37.45-3.14,1.44-6.18,3.14-8.87-.08,1.6-.3,3.13-.52,4.64-.66,4.19-1.28,9.35-1.54,13.59h0Z"/>
        <path class="cls-2" d="m58.38,114.85c-1.32-2.91-1.49-6.23-1.09-9.37.45-3.14,1.44-6.18,3.14-8.87-.08,1.6-.3,3.13-.52,4.64-.66,4.19-1.28,9.35-1.54,13.59h0Z"/>
        <path class="cls-2" d="m62.09,115.9c-1.32-2.91-1.49-6.23-1.09-9.37.45-3.14,1.44-6.18,3.14-8.87-.08,1.6-.3,3.13-.52,4.64-.66,4.19-1.28,9.35-1.54,13.59h0Z"/>
        <path class="cls-2" d="m46.62,110.78c-1.26-2.37-1.47-5.15-1.17-7.77.35-2.62,1.17-5.16,2.68-7.37.02,1.35-.11,2.62-.25,3.88-.47,3.67-.88,7.56-1.26,11.26h0Z"/>
      </g>
      <path id="mouth" class="cls-2" d="m21.48,109.53s.07.03.11.04c.6,1.71-.4,2.71,1.05,5.34.07.02.14.03.21.05,3.35-1.57,3.51-.74,6.34-1.68,1.02-.34-2.43-2.62-7.7-3.75Z"/>
      <circle id="eye" class="cls-2" cx="19.68" cy="92.78" r="4.5"/>
    </g>
  </g>
</svg>