<?xml version="1.0" encoding="UTF-8"?>
<svg id="Layer_2" data-name="Layer 2" xmlns="http://www.w3.org/2000/svg" viewBox="0 0 503.07 161.19">
  <defs>
    <style>
      .cls-1 {
        fill: none;
      }

      .cls-2 {
        fill: #e6e6e6;
      }

      .cls-3 {
        fill: #1a1a1a;
      }

      .cls-4 {
        fill: #464d52;
      }

      .cls-5 {
        fill: gray;
      }
    </style>
  </defs>
  <g id="SHARKS">
    <g id="Tiger_Shark">
      <path id="body" class="cls-5" d="m104.83,126.83c-10.22-1.34-10.05-1.71-17-3.3-12.24-2.81-8.96,0-34-8.81-7.73-2.72-16.01-4.52-23.25-8.61-1.89-1.07-3.75-2.21-5.29-3.9-.89-.98-.93-1.96-.6-3.2.34-1.25,1.11-1.55,2.13-1.65,1.4-.13,2.8-.35,4.21-.48.47-.04,1.08.11,1.13-.58.07-.95-.58-.44-1-.49-5.95-.77-11.75-2.22-17.31-4.7-2.16-.96-3.99-2.58-5.68-4.31-2.52-2.57-4.97-5.22-7.15-8.16-1.32-1.78-1.37-3.73-.04-5.5,1.58-2.09,3.75-3.17,5.98-4.05,4.18-1.66,8.48-2.87,12.79-4.04,5.11-1.39,10.25-2.6,15.37-3.92,6.97-1.8,14-3.27,21.01-4.82,8.29-1.84,16.63-3.34,25.03-4.46,7.58-1.02,15.16-1.98,22.77-2.62,7.9-.66,15.79-1.51,23.7-2.17,3.66-.31,7.33-.35,11-.57,6.14-.37,12.3-.6,18.42-1.25,3.44-.36,6.55-2.22,9.53-4.12,7.18-4.55,13.37-10.54,19.61-16.44,8.13-7.69,16.27-15.38,25.69-21.18,2.32-1.43,4.66-2.85,7.33-3.38,2.59-.52,3.92.86,3.39,3.73-.99,5.36-2.28,10.66-3.08,16.06-1.26,8.46-1.35,16.8,3.97,24,1.02,1.38,2.21,2.54,3.47,3.62.31.26.78.54.57,1.08-.16.42-.61.3-.95.34-1.29.14-2.58.28-3.9.7,1.19.24,2.38.53,3.57.71,7.85,1.21,15.62,2.92,23.4,4.56,9.65,2.03,19.24,4.31,28.83,6.63,12.07,2.92,24.21,5.48,36.32,8.16,5.22,1.15,10.45,2.27,15.7,3.23,3.24.59,6.35-.66,8.99-2.4,3.44-2.26,5.99-2.24,8.57,1.33,1.03,1.42,2.57,2.5,4.24,3.14.49.19,1.13.33,1.22,1,.12.97-1,.45-1.29,1.28,2.1.41,4.15.84,6.22,1.22,7.76,1.4,15.55,2.7,23.38,3.49,5.11.51,10.26,1,15.42.22,3.38-.51,6.06-2.56,8.77-4.49,11.74-8.34,23.14-17.24,34.7-25.88,10.48-7.84,20.96-15.69,31.99-22.57,7.73-4.82,15.6-9.34,24.05-12.51,1.07-.4,2.15-.71,3.27-.9,1.01-.18,2.13-.49,2.77.6.68,1.15-.2,2.14-.78,2.97-2.19,3.13-3.86,6.53-5.03,10.28-.5,1.58-1.07,3.18-1.94,4.6-.66,1.08-1.49,2.14-2.67,1.99-2.78-.35-4.58,1.43-6.37,3.21-10.16,10.11-19.77,20.8-28.73,32.21-4.78,6.09-8.89,12.61-12.53,19.62-5.56,10.72-5.53,21.39-1.25,32.45,2.25,5.81,4.38,11.69,6.52,17.55.39,1.07.93,2.3-.02,3.29-1,1.03-2.12.41-3.15-.11-7.62-3.87-14.52-9.04-21.38-14.29-7.06-5.4-13.87-11.14-20.32-17.39-1.73-1.68-3.43-3.44-4.93-5.36-3.87-4.94-8.87-6.59-14.52-6.06-6.37.61-12.69,1.63-18.98,2.91-.34.07-.66.19-.99.29,2.19.83,4.41.33,6.54.93.62.17,1.73-.27,1.71.77-.01.85-1.11.73-1.77.93-3.5,1.05-6.87,2.4-9.86,4.76-2.2,1.74-3.67,4.04-4.67,6.75-.93,2.52-1.39,2.87-3.75,1.92-4.28-1.72-8.5-3.63-12.77-5.39-3.38-1.39-6.84-2.54-10.4-3.28-2.15-.45-4.28.02-6.35.44-7.45,1.49-14.88,3.13-22.31,4.73-.16.03-.31.16-.46.61,2.37,0,4.74-.03,7.1.01,1.21.02,2.88-.43,3.4.92.5,1.31-1.19,1.87-1.96,2.66-3.38,3.49-6.18,7.55-9.24,11.34-2.22,2.76-3.1,2.96-6.2,1.69-5.07-2.07-9.64-5.28-14.55-7.72-4.58-2.27-9.05-2.83-14.1-1.49-10.98,2.93-22.07,5.43-33.2,7.62-8.61,1.7-17.31,2.85-26.07,3.38-9.4.57-18.61-.31-28.02-.57-2.2-.06-5,0-5,0s-7.45-.53-15-1.1c-6.64-.51-31.37-4.66-54-7.71Z"/>
      <path id="belly" class="cls-2" d="m274.83,123.53c-24.03-13.23-8.27-12.28-51-11.01-53.39,1.58-53.78,3.47-70,1.1-20.02-2.93-38.54-8.6-50-12.11-26.64-8.16-31.49-12.35-51-17.62-12.26-3.31-30.13-6.99-52.79-7.64.09.81.4,1.61.97,2.38,2.18,2.94,4.63,5.6,7.15,8.16,1.69,1.72,3.53,3.34,5.68,4.31,5.56,2.48,11.36,3.93,17.31,4.7.41.05,1.07-.45,1,.49-.05.7-.66.54-1.13.58-1.4.13-2.8.35-4.21.48-1.02.09-1.79.39-2.13,1.65-.33,1.24-.29,2.23.6,3.2,1.54,1.69,3.4,2.84,5.29,3.9,7.25,4.09,14.93,6.95,22.67,9.67,11.18,3.93,22.46,7.41,33.94,10.1,8.58,2,17.24,3.44,25.93,4.66,1.93.27,9.18.61,10.71,1.8,5.9,4.59,6.26,9.25,12.7,12.88,7.1,4,14.52,7.03,22.22,9.22,3.72,1.06,7.48,1.98,11.31,2.46.83.1,1.72.11,2.23-.81.52-.95,0-1.75-.45-2.52-1.21-2.05-2.87-3.64-4.45-5.3-3.13-3.28-6.45-6.34-9.03-10.2-.39-.59-1.28-1.13-.87-1.95.33-.66,1.2-.33,1.83-.3,6.44.36,12.87.91,19.32,1.08,9.41.25,18.82-.1,28.22-.67,8.76-.53,17.47-1.68,26.07-3.38,11.13-2.19,22.22-4.69,33.2-7.62,4.05-1.08,7.73-.91,11.39.36-1.06-.94-1.97-1.64-2.68-2.04Z"/>
      <path id="fin" class="cls-5" d="m115.8,124.42c11.1,13.73,12.98,15.4,13.42,15.85,0,0,12.29,14.28,30.3,20.11,2.16.7,4.31.85,6.42.81,1.63-.03,2.94-.71,3.31-2.71.36-1.93-.72-3.39-1.92-4.75-7.02-7.95-13.19-16.73-18.18-26.59-2.89-5.7-4.77-10.51-6.61-15.92-1.12-3.3-3.02-8.98-4.47-16.58-2.15-11.3-.2-14.03-2.54-14.58-11.63-2.73-26.92,6.98-34.73,18.01-1.42,2,1.16,5.08,3.5,9.92,3.09,6.4,6.56,10.33,11.5,16.44Z"/>
      <ellipse id="eye" class="cls-3" cx="39.83" cy="70.68" rx="3" ry="3.3"/>
      <g id="stripes">
        <path class="cls-4" d="m151.78,50.93c-1.08,1.14-1.81,3.02-1.56,4.73.17,1.16.75,2.1,1.06,3.18.75,2.58-.03,5.59-.04,8.43-.01,3.44,1.12,6.58,2.22,9.58.71,1.93,1.42,3.86,2.13,5.79.55,1.49,1.11,3,1.94,4.22.25.36.54.7.9.78.68.14,1.31-.67,1.63-1.52.8-2.09.48-4.53-.13-6.6s-1.49-4-1.81-6.21c-.32-2.19-.07-4.59-.74-6.61-.35-1.07-.97-2.08-.82-3.28.09-.8.51-1.47.83-2.18,1.44-3.17.91-7.12-.25-10.05s-3.33-2.44-5.37-.28Z"/>
        <path class="cls-4" d="m127.2,56.07c.9.8,1.3,2.05,1.67,3.24,1.11,3.59,2.22,7.2,2.72,10.94.23,1.75.33,3.52.49,5.29.21,2.25.52,4.5.9,6.72.92,5.43,2.25,10.81,4.48,15.78.79,1.76,1.76,3.54,3.31,4.56.14-5.92.22-12.1-2.21-17.41-.58-1.27-1.3-2.47-1.72-3.81-1.04-3.38-.02-7.07-.3-10.62-.26-3.19-1.58-6.18-1.95-9.35-.2-1.67-.13-3.36-.24-5.04-.21-3.35-1.11-6.65-2.61-9.59-1.37.06-2.74.14-4.11.25-2.73.23-5.45.48-8.18.74-.44,2,.11,4.86,1.33,5.97,1.75,1.59,4.66.75,6.43,2.32Z"/>
        <path class="cls-4" d="m168.19,56.06c-1.05.8-1.36,2.53-1.06,3.97s1.1,2.65,1.87,3.82c.58.88,1.16,1.76,1.74,2.64.51.77,1.04,1.56,1.77,2.02s1.72.48,2.3-.21c.5-.6.57-1.56.41-2.38s-.53-1.57-.78-2.37c-.62-1.96-.59-4.17-1.35-6.07-.84-2.08-3.26-2.67-4.9-1.42Z"/>
        <path class="cls-4" d="m91.84,70.25c-.74.65-.96,2.05-.74,3.21s.77,2.15,1.31,3.09c.41.71.81,1.42,1.22,2.13.36.62.73,1.27,1.24,1.63s1.21.39,1.61-.17c.35-.49.4-1.26.28-1.93s-.37-1.27-.55-1.91c-.44-1.59-.41-3.38-.94-4.91-.59-1.68-2.28-2.16-3.44-1.15Z"/>
        <path class="cls-4" d="m273.84,68.17c-.74.8-.96,2.53-.74,3.97s.77,2.65,1.31,3.82c.41.88.81,1.76,1.22,2.64.36.77.73,1.56,1.24,2.02s1.21.48,1.61-.21c.35-.6.4-1.56.28-2.38s-.37-1.57-.55-2.37c-.44-1.96-.41-4.17-.94-6.07-.59-2.08-2.28-2.67-3.44-1.42Z"/>
        <path class="cls-4" d="m180.92,55.04c1.06.96,2.3,1.79,3.13,2.91,1.35,1.82,1.43,4.15,1.47,6.34.06,3.5.13,7,.19,10.51.04,1.99.07,3.99.49,5.94.26,1.2.66,2.37.84,3.59.31,2.06-.04,4.15-.39,6.2-.72,4.25-1.44,8.5-2.16,12.76.61.49,1.59.41,2.27,0s1.12-1.06,1.51-1.71c3.09-5.01,4.97-10.63,5.49-16.34.08-.84.12-1.69-.08-2.5-.44-1.82-2.01-3.23-3-4.87-2-3.29-1.6-7.3-1.05-11.02.26-1.77.55-3.58.15-5.33-.33-1.45-1.12-2.81-1.21-4.29-.05-.8.11-1.61-.07-2.39-.58-2.51-3.2-3.7-3.49-6.44-.25-2.3-.56-4.6-3.6-5.11-8.17-1.36-3.29,9.21-.49,11.76Z"/>
        <path class="cls-4" d="m238.82,73.62c-.55.72-1.23,1.39-1.61,2.16-.62,1.24-.37,2.52-.12,3.73.41,1.93.82,3.85,1.23,5.78.23,1.09.47,2.19.45,3.34,0,.7-.11,1.42-.07,2.11.07,1.18.56,2.26,1.04,3.32,1,2.2,2,4.39,3,6.59-.32.38-.96.51-1.44.41s-.84-.38-1.18-.66c-2.59-2.19-4.51-4.92-5.56-7.95-.15-.44-.29-.9-.27-1.38.05-1.08.85-2.13,1.27-3.2.84-2.16.08-4.28-.75-6.21-.39-.92-.81-1.86-.78-2.89.02-.85.35-1.74.22-2.56-.07-.44-.27-.86-.26-1.32.05-1.47,1.55-2.59,1.38-4.15-.14-1.3-.23-2.62,1.62-3.44,4.99-2.21,3.26,4.44,1.82,6.34Z"/>
        <path class="cls-4" d="m174.98,99.48c-1-3.02-1.84-6.17-2.51-9.4-.94-4.49-1.64-9.38-3.79-12.71-.59-.92-1.56-1.7-2.22-.91-.3.35-.44.93-.53,1.49-.38,2.42-.02,4.95.36,7.37.43,2.71.88,5.44,1.74,7.89.7,1.99,1.64,3.74,2.58,5.48.83,1.53,3.4,8.04,4.69,7.91,2.41-.24.09-5.73-.32-7.11Z"/>
        <path class="cls-4" d="m205.61,87.16c.17,5.91-.35,11.84-1.54,17.61,1.94-4.6,3.45-9.4,4.95-14.19.99-3.15,1.99-6.5,1.3-9.75-.52-2.41-1.95-4.86-1.14-7.17.27-.77.77-1.41,1.16-2.12,1.25-2.28,1.11-5.28-.04-7.58-.34-.67-1.72-3.03-2.6-2.82-.84.2-1.53,3.59-1.74,4.39-1.77,7.02-.55,14.47-.35,21.62Z"/>
        <path class="cls-4" d="m223.07,58.42c-.21,2.32-1.51,4.47-1.43,6.8.05,1.5.66,2.89,1.27,4.24.73,1.64,1.46,3.28,2.2,4.92.09.21.2.44.4.53.48.23.87-.48.94-1.03.24-2-.43-4-.32-6.01.16-2.83,1.87-5.43,1.7-8.27-.09-1.48-.69-2.86-1.29-4.2-.49-1.1-1.5-3.02-2.8-2.08-1.14.82-.55,3.88-.66,5.11Z"/>
        <path class="cls-4" d="m278.07,91.45c-.21,2.32-1.51,4.47-1.43,6.8.05,1.5.66,2.89,1.27,4.24.73,1.64,1.46,3.28,2.2,4.92.09.21.2.44.4.53.48.23.87-.48.94-1.03.24-2-.43-4-.32-6.01.16-2.83,1.87-5.43,1.7-8.27-.09-1.48-.69-2.86-1.29-4.2-.49-1.1-1.5-3.02-2.8-2.08-1.14.82-.55,3.88-.66,5.11Z"/>
        <path class="cls-4" d="m330.64,87.56c-.17,1.75-1.27,3.37-1.2,5.13.04,1.13.56,2.18,1.06,3.2.61,1.24,1.23,2.47,1.84,3.71.08.16.17.33.34.4.4.17.73-.36.79-.78.2-1.51-.36-3.02-.27-4.54.13-2.14,1.57-4.1,1.42-6.24-.08-1.12-.58-2.16-1.08-3.17-.41-.83-1.26-2.28-2.35-1.57-.96.62-.46,2.93-.55,3.85Z"/>
        <path class="cls-4" d="m113.07,65.03c-.21,2.32-1.51,4.47-1.43,6.8.05,1.5.66,2.89,1.27,4.24.73,1.64,1.46,3.28,2.2,4.92.09.21.2.44.4.53.48.23.87-.48.94-1.03.24-2-.43-4-.32-6.01.16-2.83,1.87-5.43,1.7-8.27-.09-1.48-.69-2.86-1.29-4.2-.49-1.1-1.5-3.02-2.8-2.08-1.14.82-.55,3.88-.66,5.11Z"/>
        <path class="cls-4" d="m220.28,99.68c-.33,1.11-.79,2.22-.72,3.39s.93,2.38,2,2.26c.5-.06.93-.39,1.26-.8,1-1.26,1.04-3.08,1.24-4.73.43-3.44,1.81-6.66,2.36-10.08s.03-7.42-2.55-9.49c-2.22-1.79-2.69,7.21-2.72,8.44-.08,3.68.18,7.46-.87,11.02Z"/>
        <path class="cls-4" d="m145.52,55.75c.15-1.32.41-2.65.25-4s-.95-2.71-1.77-2.48c-.38.11-.69.53-.91,1.03-.67,1.55-.52,3.67-.53,5.61-.02,4.04-.8,7.91-.91,11.94s.67,8.65,2.87,10.88c1.9,1.92,1.43-8.62,1.34-10.05-.28-4.3-.83-8.69-.34-12.92Z"/>
        <path class="cls-4" d="m249.04,60.42c.15-1.18.49-2.35.4-3.54-.06-.78-.35-1.55-.77-2.18-1.15-.24-2.3-.49-3.45-.73-.13.16-.26.34-.39.57-1.42,2.65-.96,7.94-.3,10.77.59,2.5,1.77,4.77,2.59,7.19,2.1,6.16,1.78,13,.71,19.47-.1.61-.18,1.35.24,1.77.75.76,1.84-.4,2.25-1.43,2.42-6.05,2.85-13.05,1.19-19.4-1.08-4.13-3.03-8.22-2.49-12.48Z"/>
        <path class="cls-4" d="m122.43,85.36c-.22.96-.35,1.97-.15,2.93.19.94.67,1.77,1.02,2.66.85,2.17.88,4.6,1.24,6.93.12.75.28,1.51.69,2.11s1.13,1.01,1.79.81c.17-1.47.13-2.97-.12-4.42-.15-.86-.37-1.72-.39-2.6-.06-2.07.97-3.96,1.46-5.96.56-2.29.38-4.78-.48-6.95-.2-.5-.45-1.01-.87-1.3-2.01-1.42-3.87,4.43-4.19,5.8Z"/>
        <path class="cls-4" d="m301.54,87.26c-.03.99.05,2,.44,2.9.38.87,1.01,1.57,1.53,2.34,1.26,1.91,1.78,4.27,2.6,6.45.26.7.58,1.4,1.1,1.89s1.31.71,1.91.35c-.13-1.47-.47-2.93-1.01-4.28-.32-.81-.71-1.59-.91-2.44-.47-2,.16-4.1.23-6.17.08-2.37-.58-4.76-1.86-6.66-.3-.44-.65-.87-1.12-1.06-2.25-.89-2.89,5.26-2.92,6.67Z"/>
        <path class="cls-4" d="m146.32,84.46c-1.68,1.14-1.94,3.84-1.21,5.87s2.15,3.63,3.31,5.4c2.26,3.47,3.47,7.61,5.02,11.52.18.45.43.96.87,1.04.23.04.46-.05.66-.18,1.17-.76,1.24-2.57,1.11-4.06-.41-4.61-1.38-9.15-2.87-13.48-1.06-3.06-3.02-8.74-6.88-6.11Z"/>
        <path class="cls-4" d="m314.86,76.65c-1.2.98-1.37,3.29-.86,5.03s1.53,3.12,2.35,4.63c1.61,2.97,2.46,6.53,3.57,9.88.13.39.3.82.62.89.16.04.33-.04.47-.15.83-.65.88-2.21.79-3.48-.29-3.95-.98-7.85-2.04-11.56-.75-2.62-2.15-7.5-4.89-5.25Z"/>
        <path class="cls-4" d="m291.12,69.42c-1.43.84-2.1,3.44-1.95,5.55.15,2.11.89,3.91,1.4,5.83,1,3.77,1.11,8.02,1.51,12.1.05.47.13,1.01.44,1.16.16.08.34.03.51-.06.99-.55,1.37-2.31,1.55-3.8.55-4.58.68-9.19.4-13.67-.2-3.17-.58-9.05-3.85-7.12Z"/>
        <path class="cls-4" d="m99.21,62.2c.52,1.45,1.48,2.71,1.77,4.23.12.6.13,1.23.32,1.8s.64,1.11,1.2,1.12c.85,0,1.29-1.13,1.31-2.06.08-3.05-1.85-6.01-1.19-8.97.16-.73.48-1.43.53-2.19.04-.78-.22-1.53-.5-2.24-.48-1.23-1.05-2.41-1.69-3.55-.14-.25-.3-.51-.52-.68-.05-.04-.1-.07-.15-.1-1.64.16-3.28.33-4.92.51-.03.09-.06.17-.09.26-.56,2.43,1.87,5.02,2.68,6.99.63,1.54.68,3.31,1.25,4.89Z"/>
        <path class="cls-4" d="m202.14,40.84c-.49.52-1.01,1.03-1.29,1.71-.25.61-.29,1.29-.27,1.96.02.64.09,1.28.35,1.86.56,1.27,1.96,1.91,3.23,1.74s2.4-1.03,3.23-2.11c.52-.67.94-1.44,1.25-2.25.46-1.23.65-2.56.84-3.87.19-1.36.39-2.73.32-4.1-.09-1.71-.6-3.46-.16-5.1.14-.54.39-1.1.24-1.64-.19-.68-.9-1.09-1.46-1.12-.22,4.77-3.22,9.68-6.27,12.92Z"/>
        <path class="cls-4" d="m194,31.93c-1.83,2.22-3.44,4.65-4.81,7.25-.25.47-.49.96-.56,1.49-.15,1.13.54,2.24,1.44,2.81s1.98.67,3.02.67c.29,0,.62-.04.78-.3.21-.36-.05-.81-.23-1.19-.43-.92-.34-2.05.02-3.01s.96-1.77,1.56-2.57c.55-.74,1.1-1.49,1.65-2.23.39-.53.79-1.07,1.01-1.72s.23-1.41-.14-1.97c-.86-1.32-3.02-.1-3.74.77Z"/>
        <path class="cls-4" d="m260.16,76.02c-.27,3.44-2.22,6.87-1.17,10.12.53,1.65,1.77,2.92,2.42,4.52,1.6,3.98-.81,8.42-1.35,12.73-.21,1.68-.13,3.4.24,5.05.1.43.22.87.51,1.17.61.63,1.68.31,2.19-.42s.59-1.71.6-2.63c.04-2.35-.23-4.71.03-7.05.34-2.98,1.52-5.75,2.32-8.63s1.17-6.11-.07-8.79c-.42-.91-1.01-1.72-1.42-2.64-2.09-4.71,1.17-10.18.97-15.41-.03-.76-3.1.31-3.39.51-.92.64-1.13,1.19-1.49,2.22-1.07,2.98-.14,6.16-.38,9.23Z"/>
        <path class="cls-1" d="m226.77,98.68c-.27,3.44-2.22,6.87-1.17,10.12.53,1.65,1.77,2.92,2.42,4.52,1.6,3.98-.81,8.42-1.35,12.73-.21,1.68-.13,3.4.24,5.05.1.43.22.87.51,1.17.61.63,1.68.31,2.19-.42s.59-1.71.6-2.63c.04-2.35-.23-4.71.03-7.05.34-2.98,1.52-5.75,2.32-8.63s1.17-6.11-.07-8.79c-.42-.91-1.01-1.72-1.42-2.64-2.09-4.71,1.17-10.18.97-15.41-.03-.76-3.1.31-3.39.51-.92.64-1.13,1.19-1.49,2.22-1.07,2.98-.14,6.16-.38,9.23Z"/>
      </g>
      <g id="gills">
        <path class="cls-3" d="m83.1,102.66c-4.29-8.02-4.37-17.83-2.1-26.48.52,8.9.48,17.68,2.1,26.48h0Z"/>
        <path class="cls-3" d="m88.03,103.07c-4.29-8.02-4.37-17.83-2.1-26.48.52,8.9.48,17.68,2.1,26.48h0Z"/>
        <path class="cls-3" d="m93.9,103.3c-4.29-8.02-4.37-17.83-2.1-26.48.52,8.9.48,17.68,2.1,26.48h0Z"/>
        <path class="cls-3" d="m98.83,103.71c-4.29-8.02-4.37-17.83-2.1-26.48.52,8.9.48,17.68,2.1,26.48h0Z"/>
        <path class="cls-3" d="m78.15,100.95c-3.86-6.51-4.03-14.78-1.99-21.93.75,7.25.81,14.72,1.99,21.93h0Z"/>
      </g>
      <g id="nose">
        <path class="cls-4" d="m6.83,79.49s-.27-.86,0-1.1c.56-.51,3.23,1.53,3,2.2-.13.39-1.22.41-2,0-.21-.11-.77-.41-1-1.1Z"/>
      </g>
    </g>
  </g>
</svg>