<?xml version="1.0" encoding="UTF-8"?>
<svg id="Layer_2" data-name="Layer 2" xmlns="http://www.w3.org/2000/svg" viewBox="0 0 413.83 414.02">
  <defs>
    <style>
      .cls-1 {
        fill: #17152a;
      }

      .cls-2 {
        fill: #374d65;
      }
    </style>
  </defs>
  <g id="UNIQUE_WILDLIFE" data-name="UNIQUE WILDLIFE">
    <g id="UNIQUE_WILDLIFE-2" data-name="UNIQUE_WILDLIFE">
      <path id="coral" class="cls-1" d="m270.31,300.32c65.69,11.07,90.56-42.27,110.21-16.84,20.3,39.57-59.88,55.28-86.53,56.11-17.56.55-48.56-11.45-43.52,5.38,28.78,96.14-11.04,62.17-82.46,67.08-26.85,1.84-13.58-31.9-11.75-48.49C166.6,269.69-5.57,339.13.14,114.81c.2-7.78-.11-15.57-.06-23.36-1-25.02,35.38-27.1,38.41-3.34.73,49.16-10.31,108.08,27.7,146.78,8.38,5.15,13.17-14.22,13.94-20.61,1.09-23.59,38.97-23.64,38.43.75,2.62,20.85-22.81,42.05-8.41,45.34,25.73,14.27,51.36,29.04,73.67,48.4,10.74,9.31,1.75-27.1,1.75-32.18-2.1-57.43-57.31-82.9-83.36-127.28-15.65-21.27-59.36-107.21-1.37-93.42,13.6,3.23,11.35,38.86,23.71,55.38,8.51,20.34,23.01-30.35,24.12-38.31,2.59-18.77-.61-52.39,30.69-44.29,21.09,5.45,5.71,55.56-.83,78.45-1.64,13.49-30.99,44.52-24.01,47.56,14.89,15.18,31.6,29.46,43.98,46.3,7.12-10.29,6-30.24,22.87-32.18,41.85,2.52,11.19,54.83-1.54,74.45-2.61,10.23,3.1,21.51,5.41,31.78,5.2,23.09,13.26-.96,22.26-7.3,11.05-10.37,22.95-19.65,35.94-27.5,4.53-4,13.78-5.52,13.52-12.73,9.06-65.66-67.88-74.56-70.14-137.67-.43-26.14-9.58-94.7,28.78-89.57,28.84,3.86-3.63,67.22,11.47,95.65,10.48,50.66,37.77-25.84,43.55-42.85,3.84-20.96,39.17-23.85,38.58-3.77-.76,25.82-21.72,63.98-41.45,89.59-4.01,7.8,6.53,14.69,11.05,20.82,10.64,14.41,13.41,30.05,15.18,46.69-.73,2.59,1.88,3.65,3.15,1.29,58.65-52.71,8.63-145.04,67.35-132.92,25.95,5.35-7.19,129.31-37.76,157.37-26.94,28.9-73.03,36.74-96.41,68.17Z"/>
      <path class="cls-2" d="m310.43,328.13c15.26-.82,33.39-6.15,34-13,.32-3.6-4.22-7.3-8-9-12.82-5.77-23.17,8.68-44,10-11.76.74-29.27-2.54-33-12-4.77-12.1,12.54-35.61,33-42,10.05-3.14,20.53-2.04,22-7,.96-3.23-2.28-7.79-6-10-13.34-7.93-45.69,6.64-56,30-4.53,10.27-2.41,16.83-10,26-5.42,6.55-16.25,14.99-23,12-8.22-3.64-2.28-20.61-8-53-6.76-38.26-21.19-49.32-25-52-6.79-4.77-16.03-8.35-18-6-2.5,2.98,8.99,12.65,19,31,11.22,20.56,12.88,37.91,15,60,2.07,21.58-.76,26.66-4,29-5.44,3.93-13.54,1.24-20-1-21.66-7.52-24.25-20.11-50-37-14.06-9.22-15.56-6.96-25-15-12.3-10.48-15.65-19.34-25-20-6.66-.47-14.21,3.39-15,8-.83,4.87,5.99,9.76,14,15,26.68,17.47,37.81,20.03,54,31,12.09,8.19,30.98,20.99,30,36-.3,4.5-2.33,8.32-4.95,11.55.35,3.92.29,8.19-.22,12.86-1.83,16.59-15.1,50.34,11.75,48.49,68.16-4.68,107.54,26.04,85.97-54.71-13.79-11.76-23.8-16.52-22.55-23.19,1.49-7.96,17.59-11.13,22-12,22.71-4.48,31.35,7.38,57,6Z"/>
    </g>
  </g>
</svg>