<?xml version="1.0" encoding="UTF-8"?>
<svg id="Layer_2" data-name="Layer 2" xmlns="http://www.w3.org/2000/svg" viewBox="0 0 502.74 174.31">
  <defs>
    <style>
      .cls-1 {
        fill: #f7f5f5;
      }

      .cls-2 {
        fill: #004e7e;
      }

      .cls-3 {
        fill: #1a1a1a;
      }
    </style>
  </defs>
  <g id="SHARKS">
    <g id="Whale_Shark">
      <path id="body" class="cls-2" d="m272.27,125.53c10.34-3.35,24.85-6.87,42.46-7.52,16.56-.62,30.52,1.5,40.74,3.84,2.38,2.09,6.73,4.05,8.42.13,3.09-17.77,24.91-14.77,38.24-11.94,16.55,17.03,24.95,42.01,40.54,60.26,16.95,6.37,6.44-34.75,5.58-44.07-27.49-37.65,120.41-185.37,17.71-100.14-19.99,19.28-37.12,41.72-57.51,60.59-9.01,7.58-20.67-1.78-30.45-3.21-27.57-6.87-14.04-4.63-25.54-20.38-21.77,16.53-54.77-3.47-83.42-9.85-18.75-4.17,1.53-41.32-17.16-44.25-23.34,1.61-35,26.99-56.34,33.48-61.29,2.32-122.74,12.38-180.99,31.88C7.81,76.6.56,81.54.03,87.72c-1.66,19.27,66.42,42.62,113.83,50.75,33.65,5.77,88.59,9.33,158.41-12.94Z"/>
      <path id="belly" class="cls-1" d="m310.64,118.22c-13.21-1.51-31.92-4.21-59.95-3.6-54.22,1.17-50.84,12.71-91,11-17.17-.73-36.44-4.82-75-13-44.88-9.52-49.98-11.99-69.87-7.03,22.4,14.01,65.8,27.19,99.04,32.9,33.65,5.77,88.59,9.33,158.41-12.94,9.52-3.09,22.6-6.31,38.36-7.31Z"/>
      <path id="fin" class="cls-2" d="m116.76,138.32c10.42,13.04,12.23,14.65,12.64,15.08,0,0,11.59,13.6,29.29,19.84,2.12.75,4.26,1,6.37,1.07,1.62.06,2.97-.48,3.43-2.28.45-1.73-.56-3.12-1.69-4.41-6.62-7.58-12.37-15.87-16.88-25.08-2.61-5.33-4.26-9.78-5.83-14.79-.96-3.05-2.59-8.31-3.67-15.27-1.6-10.36.47-12.73-1.84-13.35-11.48-3.09-27.22,4.91-35.55,14.5-1.51,1.74.92,4.67,3.02,9.18,2.78,5.97,6.06,9.71,10.7,15.51Z"/>
      <circle id="eye" class="cls-3" cx="14.69" cy="89.61" r="2"/>
      <path id="fin-2" data-name="fin" class="cls-2" d="m269.69,113.61c-.32-2.26-6.04-1.48-6.69-3.9-.07-.27-.18-.52-.12-.93.26-1.96.74-5.33,2.4-9.65,2.47-6.43,5.35-7.57,3.4-8.25-9.73-3.41-27.78-.75-39.4,3.87-2.11.84-.93,2.92-.67,5.91.34,3.95,2.02,6.64,4.2,10.75,4.89,9.23,5.99,10.44,6.22,10.76,0,0,5.79,9.72,20.22,15.86,1.17.5,3.06,1.54,5.65,1.51,1.82-.02,3.47-.38,4.15-.9,2.65-2.02,1.65-18.02.65-25.02Z"/>
      <g id="dots">
        <circle id="eye-2" data-name="eye" class="cls-1" cx="69.19" cy="94.11" r="3.5"/>
        <circle id="eye-3" data-name="eye" class="cls-1" cx="36.19" cy="88.11" r="3.5"/>
        <circle id="eye-4" data-name="eye" class="cls-1" cx="89.19" cy="66.11" r="3.5"/>
        <circle id="eye-5" data-name="eye" class="cls-1" cx="83.19" cy="101.11" r="3.5"/>
        <circle id="eye-6" data-name="eye" class="cls-1" cx="107.19" cy="63.11" r="3.5"/>
        <circle id="eye-7" data-name="eye" class="cls-1" cx="125.19" cy="79.11" r="3.5"/>
        <circle id="eye-8" data-name="eye" class="cls-1" cx="52.35" cy="76.51" r="3.5"/>
        <circle id="eye-9" data-name="eye" class="cls-1" cx="69.19" cy="73.11" r="3.5"/>
        <circle id="eye-10" data-name="eye" class="cls-1" cx="51.19" cy="95.11" r="3.5"/>
        <circle id="eye-11" data-name="eye" class="cls-1" cx="99.19" cy="92.11" r="3.5"/>
        <circle id="eye-12" data-name="eye" class="cls-1" cx="103.19" cy="78.11" r="3.5"/>
        <circle id="eye-13" data-name="eye" class="cls-1" cx="127.19" cy="135.11" r="3.5"/>
        <circle id="eye-14" data-name="eye" class="cls-1" cx="123.19" cy="118.11" r="3.5"/>
        <circle id="eye-15" data-name="eye" class="cls-1" cx="134.19" cy="59.11" r="3.5"/>
        <circle id="eye-16" data-name="eye" class="cls-1" cx="151.19" cy="99.11" r="3.5"/>
        <circle id="eye-17" data-name="eye" class="cls-1" cx="152.19" cy="113.11" r="3.5"/>
        <circle id="eye-18" data-name="eye" class="cls-1" cx="152.19" cy="82.11" r="3.5"/>
        <circle id="eye-19" data-name="eye" class="cls-1" cx="141.19" cy="75.11" r="3.5"/>
        <circle id="eye-20" data-name="eye" class="cls-1" cx="137.74" cy="102.51" r="3.5"/>
        <circle id="eye-21" data-name="eye" class="cls-1" cx="156.19" cy="64.11" r="3.5"/>
        <circle id="eye-22" data-name="eye" class="cls-1" cx="175.19" cy="91.11" r="3.5"/>
        <circle id="eye-23" data-name="eye" class="cls-1" cx="176.19" cy="105.11" r="3.5"/>
        <circle id="eye-24" data-name="eye" class="cls-1" cx="176.19" cy="74.11" r="3.5"/>
        <circle id="eye-25" data-name="eye" class="cls-1" cx="180.19" cy="56.11" r="3.5"/>
        <circle id="eye-26" data-name="eye" class="cls-1" cx="201.19" cy="89.11" r="3.5"/>
        <circle id="eye-27" data-name="eye" class="cls-1" cx="202.19" cy="103.11" r="3.5"/>
        <circle id="eye-28" data-name="eye" class="cls-1" cx="202.19" cy="72.11" r="3.5"/>
        <circle id="eye-29" data-name="eye" class="cls-1" cx="206.19" cy="54.11" r="3.5"/>
        <circle id="eye-30" data-name="eye" class="cls-1" cx="247.19" cy="75.11" r="3.5"/>
        <circle id="eye-31" data-name="eye" class="cls-1" cx="299.19" cy="102.11" r="3.5"/>
        <circle id="eye-32" data-name="eye" class="cls-1" cx="381.19" cy="98.11" r="3.5"/>
        <circle id="eye-33" data-name="eye" class="cls-1" cx="406.19" cy="100.11" r="3.5"/>
        <circle id="eye-34" data-name="eye" class="cls-1" cx="251.19" cy="57.11" r="3.5"/>
        <circle id="eye-35" data-name="eye" class="cls-1" cx="264.19" cy="89.11" r="3.5"/>
        <circle id="eye-36" data-name="eye" class="cls-1" cx="303.19" cy="81.11" r="3.5"/>
        <circle id="eye-37" data-name="eye" class="cls-1" cx="426.19" cy="103.11" r="3.5"/>
        <circle id="eye-38" data-name="eye" class="cls-1" cx="451.19" cy="63.11" r="3.5"/>
        <circle id="eye-39" data-name="eye" class="cls-1" cx="435.19" cy="127.11" r="3.5"/>
        <circle id="eye-40" data-name="eye" class="cls-1" cx="440.19" cy="146.11" r="3.5"/>
        <circle id="eye-41" data-name="eye" class="cls-1" cx="430.19" cy="82.11" r="3.5"/>
        <circle id="eye-42" data-name="eye" class="cls-1" cx="472.19" cy="34.11" r="3.5"/>
        <circle id="eye-43" data-name="eye" class="cls-1" cx="351.19" cy="94.11" r="3.5"/>
        <circle id="eye-44" data-name="eye" class="cls-1" cx="335.19" cy="108.11" r="3.5"/>
        <circle id="eye-45" data-name="eye" class="cls-1" cx="361.19" cy="108.11" r="3.5"/>
        <circle id="eye-46" data-name="eye" class="cls-1" cx="268.19" cy="71.11" r="3.5"/>
        <circle id="eye-47" data-name="eye" class="cls-1" cx="249.19" cy="101.11" r="3.5"/>
        <circle id="eye-48" data-name="eye" class="cls-1" cx="289.19" cy="69.11" r="3.5"/>
        <circle id="eye-49" data-name="eye" class="cls-1" cx="279.19" cy="104.11" r="3.5"/>
        <circle id="eye-50" data-name="eye" class="cls-1" cx="334.19" cy="80.11" r="3.5"/>
        <circle id="eye-51" data-name="eye" class="cls-1" cx="257.19" cy="119.11" r="3.5"/>
        <circle id="eye-52" data-name="eye" class="cls-1" cx="141.19" cy="149.11" r="3.5"/>
        <circle id="eye-53" data-name="eye" class="cls-1" cx="283.19" cy="86.11" r="3.5"/>
        <circle id="eye-54" data-name="eye" class="cls-1" cx="320.19" cy="93.11" r="3.5"/>
        <circle id="eye-55" data-name="eye" class="cls-1" cx="221.19" cy="40.11" r="3.5"/>
        <circle id="eye-56" data-name="eye" class="cls-1" cx="223.19" cy="85.11" r="3.5"/>
        <circle id="eye-57" data-name="eye" class="cls-1" cx="224.19" cy="99.11" r="3.5"/>
        <circle id="eye-58" data-name="eye" class="cls-1" cx="224.19" cy="68.11" r="3.5"/>
        <circle id="eye-59" data-name="eye" class="cls-1" cx="228.19" cy="50.11" r="3.5"/>
        <circle id="eye-60" data-name="eye" class="cls-1" cx="242.19" cy="31.11" r="3.5"/>
        <circle id="eye-61" data-name="eye" class="cls-1" cx="122.19" cy="98.11" r="3.5"/>
        <circle id="eye-62" data-name="eye" class="cls-1" cx="84.19" cy="82.11" r="3.5"/>
        <circle id="eye-63" data-name="eye" class="cls-1" cx="103.19" cy="109.11" r="3.5"/>
      </g>
    </g>
  </g>
</svg>