<?xml version="1.0" encoding="UTF-8"?>
<svg id="Layer_2" data-name="Layer 2" xmlns="http://www.w3.org/2000/svg" viewBox="0 0 466.1 397.47">
  <defs>
    <style>
      .cls-1 {
        fill: #17152a;
      }

      .cls-2 {
        fill: #374d65;
      }
    </style>
  </defs>
  <g id="WHALES">
    <g id="WHALES-2" data-name="WHALES">
      <path id="fluke" class="cls-1" d="m5.27,24.96c1.67,4.86,2.59,9.45,5.24,13.35,5.64,8.3,13.74,13.18,22.88,16.54,14.75,5.41,30.25,6.2,45.71,7.08,37.84,2.15,75.74,3.62,113,11.47,13.67,2.88,26.96,6.9,39.36,13.51,8.1,4.32,15.45,9.69,20.4,17.47,2.73,4.29,4.52,3.75,7.88.96,22.39-18.58,47.1-33.34,74.1-44.23,17.34-6.99,35.36-11.46,53.71-14.82,19.89-3.65,38.81-9.9,54.85-22.81,6.72-5.41,12.15-11.94,15.16-20.21.46-1.26.52-3.14,2.17-3.26,2.04-.15,2.2,1.95,2.67,3.32,4.69,13.73,4.49,27.7,1.81,41.74-4.97,26.04-17.44,48.25-34.98,67.8-24.42,27.2-53.77,47.67-86.71,63.22-8.97,4.24-17.79,8.77-26.24,13.99-23.18,14.33-33.98,35.83-36.46,62.35-2.29,24.46,2.69,48.14,7.18,71.87,3.49,18.46,7.26,36.88,14,54.51,1.11,2.91,2.31,5.85,3.92,8.51,2.05,3.4,1.04,4.62-2.57,4.99-11.24,1.17-22.45,2.72-33.71,3.61-29.56,2.34-59.08,2.62-88.33-3.41-6.9-1.42-7.03-1.69-3.36-7.9,18.08-30.67,33.82-62.42,43.43-96.87,3.8-13.61,6.41-27.44,5.89-41.69-.23-6.31-1.45-12.43-3.39-18.41-4.41-13.6-14.01-22.04-27.03-27.1-14.27-5.55-28.52-11.14-42.74-16.8-33.17-13.2-66.03-27.09-95.84-47.1-20.58-13.82-39.03-29.79-49.89-52.85C-.81,66.36-1.93,48.33,2.77,29.81c.38-1.48.55-3.1,2.5-4.85Z"/>
      <path id="fluke-2" data-name="fluke" class="cls-2" d="m251.24,131c16.81,5.14,25.49-16.82,58.6-34.34,19.75-10.45,37.98-14.66,47.71-16.91,20.83-4.82,53.87-9.29,65.39-17.46,3.41-2.42,14.09-11.66,14.87-14.26.07-.23.49-1.85,1.47-2.02.36-.06.69.1.77.13,0,0,.84.41,1.04,1.93,1.73,13.05-9.99,27.45-9.99,27.45-23.31,28.64-34.96,42.97-46.88,52.3-19.35,15.14-37.44,24.41-68.48,40.32-9.51,4.88-14.27,7.31-17.78,8.7-36.6,14.47-71,8.49-81.61,6.51-6.59-1.23-16.77-4.71-37.13-11.66-23.66-8.09-42.97-14.75-67.11-26.15,0,0-22.69-10.72-47.8-27.84-3.7-2.52-10.04-6.99-16.5-14.23-2.38-2.67-6.42-7.56-10.16-14.45-4.66-8.58-9.51-21.69-6.43-19.4,14.71,10.97,31.25,14.34,62.51,16.03,14.37.78,19.9.83,26.72,1.34,21.91,1.65,38.31,4.41,44.06,5.41,25.09,4.37,37.63,6.55,49.29,11.89,26.86,12.3,23.19,22.34,37.45,26.7Z"/>
    </g>
  </g>
</svg>