<?xml version="1.0" encoding="UTF-8"?>
<svg xmlns="http://www.w3.org/2000/svg" xmlns:xlink="http://www.w3.org/1999/xlink" width="512px" height="512px" viewBox="0 0 512 511" version="1.1">
<g id="surface1">
<path style=" stroke:none;fill-rule:nonzero;fill:rgb(0%,0%,0%);fill-opacity:1;" d="M 146.582031 118.394531 C 145.046875 119.121094 143.375 120.4375 140.347656 123.386719 C 138.792969 124.878906 135.726562 127.730469 133.503906 129.734375 C 131.285156 131.738281 127.605469 135.335938 125.324219 137.695312 C 116.558594 146.773438 109.046875 153.398438 102.734375 157.585938 C 100.160156 159.292969 93.75 162.496094 90.050781 163.894531 C 85.648438 165.582031 84.960938 165.898438 83.683594 166.820312 C 82.070312 168.019531 80.082031 170.105469 79.257812 171.480469 C 78.371094 172.953125 78.195312 174.546875 78.824219 175.351562 C 79.277344 175.902344 81.066406 176.6875 81.933594 176.6875 C 82.402344 176.6875 82.421875 176.726562 82.324219 177.414062 C 82.246094 177.828125 82.109375 179.617188 81.992188 181.40625 C 81.324219 191.269531 83.601562 203.398438 88.183594 214.226562 C 92.6875 224.878906 100.511719 237.164062 110.167969 248.777344 C 115.0625 254.65625 118.523438 258.269531 135.097656 274.761719 C 144.476562 284.117188 153.148438 292.824219 154.367188 294.121094 C 159.636719 299.78125 161.464844 303.535156 162.351562 310.433594 C 162.800781 313.96875 162.800781 328.257812 162.328125 336.867188 C 161.425781 353.730469 161.78125 363.359375 163.589844 371.851562 C 165.890625 382.621094 170.390625 390.894531 177.960938 398.285156 C 181.953125 402.15625 184.292969 403.511719 186.277344 403.0625 C 189.816406 402.273438 192.316406 395.945312 194.65625 381.875 C 196.011719 373.699219 197.523438 369.746094 200.335938 366.9375 C 203.148438 364.125 205.527344 363.28125 211.367188 362.988281 C 217.855469 362.652344 220.589844 361.945312 222.554688 360.097656 C 224.03125 358.703125 224.441406 357.640625 224.441406 355.242188 C 224.421875 353.472656 224.34375 353.101562 223.714844 351.429688 L 223.007812 349.601562 L 223.597656 350.347656 C 224.894531 352 228.550781 355.378906 231.050781 357.246094 C 232.503906 358.328125 235.136719 360.214844 236.929688 361.433594 C 238.71875 362.652344 241.980469 364.992188 244.203125 366.640625 C 250.886719 371.574219 254.78125 374.191406 260.855469 377.804688 C 277.058594 387.476562 292.925781 393.566406 307.121094 395.554688 C 310.226562 396.003906 320.964844 396.0625 324.324219 395.671875 C 339.425781 393.902344 350.554688 388.773438 360.679688 378.925781 C 372.300781 367.625 379.988281 351.726562 383.703125 331.363281 C 384.097656 329.144531 384.648438 326.785156 384.90625 326.097656 C 385.964844 323.246094 388.523438 320.277344 392.023438 317.800781 C 394.832031 315.835938 398 314.109375 404.78125 310.84375 C 411.269531 307.738281 413.101562 306.757812 415.261719 305.242188 C 417.484375 303.671875 420.140625 300.941406 423.679688 296.476562 C 429.125 289.679688 430.304688 288.675781 436.792969 285.414062 C 440.136719 283.722656 442.984375 282.070312 442.984375 281.816406 C 442.984375 281.757812 442.042969 281.503906 440.882812 281.246094 C 439.703125 281.011719 436.28125 280.105469 433.253906 279.261719 C 425.113281 276.941406 424.523438 276.84375 420.078125 276.824219 C 414.691406 276.824219 412.902344 277.296875 405.136719 280.753906 C 399.75 283.171875 396.722656 284.371094 394.617188 284.941406 C 388.484375 286.652344 383.015625 286.199219 376.863281 283.507812 C 373.617188 282.070312 371.496094 280.5 367.089844 276.234375 C 361.742188 271.066406 358.695312 268.804688 354.015625 266.585938 C 349.984375 264.660156 345.050781 263.300781 340.3125 262.792969 C 337.578125 262.476562 337.34375 262.496094 338.1875 262.96875 C 340.800781 264.34375 343.023438 267.960938 344.558594 273.285156 C 344.929688 274.582031 345.679688 277.847656 346.25 280.558594 C 346.839844 283.46875 347.546875 286.238281 347.960938 287.339844 C 349.316406 290.996094 351.28125 294.179688 355.15625 298.972656 C 356.472656 300.605469 358.398438 302.964844 359.421875 304.242188 C 361.625 306.972656 363.078125 309.292969 363.6875 311.101562 C 364.21875 312.691406 364.296875 315.070312 363.828125 316.644531 C 362.6875 320.554688 357.457031 327.277344 352.933594 330.695312 C 350.710938 332.386719 347.074219 334.175781 344.578125 334.804688 C 332.800781 337.808594 319.527344 330.441406 308.105469 314.578125 C 301.792969 305.8125 295.402344 294.414062 292.6875 287.0625 C 291.292969 283.289062 290.269531 280.992188 289.621094 280.066406 C 289.386719 279.734375 289.25 279.476562 289.308594 279.476562 C 289.367188 279.476562 290.113281 279.714844 290.941406 279.988281 C 292.984375 280.675781 295.558594 280.851562 296.796875 280.382812 C 300.90625 278.808594 300.929688 271.65625 296.878906 260.589844 C 295.972656 258.171875 295.835938 257.5625 295.835938 256.445312 C 295.914062 250.921875 303.464844 246.144531 317.835938 242.527344 C 321.375 241.644531 326.664062 240.640625 330.324219 240.191406 C 335.0625 239.582031 338.816406 237.714844 339.742188 235.492188 C 339.957031 234.980469 339.917969 234.785156 339.464844 233.859375 C 336.0625 227.179688 328.574219 220.792969 318.898438 216.371094 C 306.867188 210.867188 289.367188 206.523438 273.421875 205.066406 C 265.183594 204.320312 262.46875 203.730469 258.890625 201.882812 C 255.683594 200.253906 253.40625 198.25 248.15625 192.507812 C 244.695312 188.695312 243.140625 187.085938 228.570312 172.167969 C 210.855469 154.007812 205.214844 148.089844 198.785156 140.917969 C 194.515625 136.140625 192.296875 133.84375 190.625 132.46875 C 185.257812 128.066406 177.902344 124.78125 169.761719 123.152344 C 164.511719 122.109375 162.78125 121.953125 155.800781 121.953125 L 149.273438 121.953125 L 149.371094 120.476562 C 149.472656 119.179688 149.433594 118.945312 149.039062 118.453125 C 148.507812 117.785156 147.898438 117.765625 146.582031 118.394531 Z M 146.582031 118.394531 "/>
</g>
</svg>
